<svg id="Layer_1" height="512" viewBox="0 0 150 150" width="512" xmlns="http://www.w3.org/2000/svg" data-name="Layer 1"><circle cx="75" cy="75" fill="#d5d6db" r="64"/><rect fill="#3a556a" height="76.75" rx="4.96" width="48.54" x="50.73" y="36.63"/><path d="m53.5 45.91h43v58.17h-43z" fill="#27a2db"/><path d="m70.09 40.97h9.83v1.25h-9.83z" fill="#2f4859"/><rect fill="#2f4859" height="3.67" rx=".67" width="3.67" x="73.17" y="106.44"/><path d="m90.24 91.62c-.22-4-.68-8.8-1.68-10.71-1.37-2.6-5.72-3.76-7.92-4.18l-.8-.14h-.1-.14-.28-.53-.26l-1.53-.24-2 .91-2-.91-1.49.1h-.27-.52-.3-.23l-.49.09h-.17c-2.16.41-6.65 1.56-8 4.21-1 1.91-1.46 6.69-1.68 10.71z" fill="#e1e6e9"/><path d="m72.08 72.34h5.84v4.91h-5.84z" fill="#f7be56"/><g fill="#fcd462"><path d="m68.74 65.68c.47-.08 1 .64 1.13 1.6s-.1 1.79-.56 1.87-1-.64-1.13-1.6.1-1.8.56-1.87z"/><path d="m81.26 65.68c-.47-.08-1 .64-1.13 1.6s.1 1.79.56 1.87 1-.64 1.13-1.6-.1-1.8-.56-1.87z"/><ellipse cx="75" cy="66.38" rx="5.98" ry="8.32"/></g><path d="m73.53 91.62h2.94l-.78-10.75 1.64-2.29-2.33-1.32-2.33 1.32 1.64 2.29z" fill="#e56353"/><path d="m77.92 74.91-2.92 2.35 2.47 2.72 1.85-3.47z" fill="#ebf0f3"/><path d="m72.08 74.91 2.92 2.35-2.75 2.66-1.57-3.41z" fill="#ebf0f3"/><path d="m69.54 68.35a11.09 11.09 0 0 1 0-2.67 29.11 29.11 0 0 1 .56-3.51s2.84 2.37 7.46-.15c0 0 2.4.87 2.34 2.61s.7 1.15.61 3.72h.49c.34-1.73 1.1-6.07.22-8.18v-.08a5.82 5.82 0 0 0 -4.79-3.51c-.59-.06-1.26-.12-2-.16a6.23 6.23 0 0 0 -6.18 5.81 22.33 22.33 0 0 0 .68 6.12z" fill="#3a556a"/></svg>