<svg id="Layer_1" height="512" viewBox="0 0 150 150" width="512" xmlns="http://www.w3.org/2000/svg" data-name="Layer 1"><circle cx="75" cy="75" fill="#fe7058" r="64"/><path d="m64.58 79-16.36 31.27a2.39 2.39 0 0 0 4.05 2.52l20.78-28.51z" fill="#3a556a"/><path d="m85.75 79 16.35 31.25a2.39 2.39 0 0 1 -4 2.52l-20.82-28.49z" fill="#3a556a"/><path d="m112.63 38.25a1.25 1.25 0 0 0 -1.77 0l-20.18 20.17 1.77 1.77 20.18-20.19a1.24 1.24 0 0 0 0-1.75z" fill="#eab053"/><path d="m110.83 40.05a13 13 0 0 0 -18.31-.11l18.41 18.41a13 13 0 0 0 -.1-18.3z" fill="#fcd462"/><path d="m37.37 38.25a1.25 1.25 0 0 1 1.77 0l20.18 20.17-1.77 1.77-20.18-20.19a1.24 1.24 0 0 1 0-1.75z" fill="#eab053"/><path d="m39.17 40.05a13 13 0 0 1 18.31-.11l-18.41 18.41a13 13 0 0 1 .1-18.3z" fill="#fcd462"/><circle cx="75.16" cy="72.95" fill="#fcd462" r="32.55"/><circle cx="75.16" cy="72.95" fill="#ebf0f3" r="25.83"/><g fill="#64798a"><path d="m74.88 51.56h.56v2.15h-.56z"/><path d="m74.88 92.18h.56v2.15h-.56z"/><path d="m94.4 72.67h2.15v.56h-2.15z"/><path d="m53.78 72.67h2.15v.56h-2.15z"/><path d="m88.45 58.31h2.15v.56h-2.15z" transform="matrix(.707 -.707 .707 .707 -15.21 80.46)"/><path d="m59.73 87.03h2.15v.56h-2.15z" transform="matrix(.707 -.707 .707 .707 -43.93 68.56)"/><path d="m89.25 86.23h.56v2.15h-.56z" transform="matrix(.707 -.707 .707 .707 -35.52 88.88)"/><path d="m60.52 57.51h.56v2.15h-.56z" transform="matrix(.707 -.707 .707 .707 -23.62 60.15)"/><path d="m67.11 53.11h.56v2.15h-.56z" transform="matrix(.92 -.38 .38 .92 -15.6 29.9)"/><path d="m82.66 90.64h.56v2.15h-.56z" transform="matrix(.924 -.382 .382 .924 -28.76 38.67)"/><path d="m92.85 64.9h2.15v.56h-2.15z" transform="matrix(.923 -.384 .384 .923 -17.82 41.02)"/><path d="m55.32 80.44h2.15v.56h-2.15z" transform="matrix(.923 -.384 .384 .923 -26.65 27.81)"/><path d="m81.86 53.9h2.15v.56h-2.15z" transform="matrix(.383 -.924 .924 .383 1.15 110.08)"/><path d="m66.32 91.43h2.15v.56h-2.15z" transform="matrix(.383 -.924 .924 .383 -43.13 118.89)"/><path d="m93.65 79.65h.56v2.15h-.56z" transform="matrix(.384 -.923 .923 .384 -16.65 136.49)"/><path d="m56.12 64.1h.56v2.15h-.56z" transform="matrix(.384 -.923 .923 .384 -25.43 92.26)"/></g><path d="m75.56 57.38h-.92l-.51 16.17h1.94z" fill="#3a556a"/><path d="m87.75 73.54v-1.18l-11.63-.66v2.5z" fill="#3a556a"/><path d="m60.97 78.78h16.72v.56h-16.72z" fill="#e56353" transform="matrix(.707 -.707 .707 .707 -35.59 72.18)"/><path d="m75.16 70.36a2.59 2.59 0 1 0 2.59 2.64 2.59 2.59 0 0 0 -2.59-2.64z" fill="#64798a"/></svg>