<svg id="Layer_1" height="512" viewBox="0 0 150 150" width="512" xmlns="http://www.w3.org/2000/svg" data-name="Layer 1"><circle cx="75" cy="75" fill="#029bc5" r="64"/><path d="m103.07 114.96h-61.52l-.73-22.47.07-.19 62.77-.11.11.3z" fill="#f7be56"/><path d="m103.77 92.49h-62.95l8.03-22.46h46.88z" fill="#fcd462"/><path d="m44.52 89.89 6.17-17.26h43.21l6.17 17.26z" fill="#f7be56"/><path d="m83.18 100.05a1.59 1.59 0 1 0 1.59 1.59 1.59 1.59 0 0 0 -1.59-1.59z" fill="#2f4859"/><circle cx="61.38" cy="101.64" fill="#2f4859" r="1.59"/><path d="m82.06 107.56h-19.53a2 2 0 0 1 -2-2v-3.8a.87.87 0 1 1 1.73 0v3.8a.27.27 0 0 0 .27.27h19.53a.27.27 0 0 0 .26-.27v-3.8a.87.87 0 0 1 1.74 0v3.8a2 2 0 0 1 -2 2z" fill="#3a556a"/><path d="m80.47 58.86h-24.09v31.03h31.83v-23.29z" fill="#ebf0f3"/><g fill="#e1e6e9"><path d="m60.64 69.49h23.31v1.06h-23.31z"/><path d="m60.64 73.81h23.31v1.06h-23.31z"/><path d="m60.64 78.12h23.31v1.06h-23.31z"/><path d="m60.64 82.44h23.31v1.06h-23.31z"/></g><path d="m80.47 66.6h7.74l-7.74-7.74z" fill="#d5d6db"/><path d="m93.9 72.63v17.26h6.17z" fill="#e5aa4a"/><path d="m50.69 72.63v17.26h-6.17z" fill="#e5aa4a"/><path d="m71.81 55.45 5.86-11.85 15.86-3.5 5.5 13-13.43 9.71a4.74 4.74 0 0 1 -.22-7l3.62-3.53-2.7-5.11-5.45 1.45-2 4.41a5.09 5.09 0 0 1 -6.38 2.65z" fill="#fcd462"/><path d="m91.89 38.8 7.45 17.13 9.84-4.13-7.41-16.76z" fill="#e56353"/></svg>