<svg id="Layer_1" height="512" viewBox="0 0 150 150" width="512" xmlns="http://www.w3.org/2000/svg" data-name="Layer 1"><circle cx="75" cy="75" fill="#3a556a" r="64"/><rect fill="#e56353" height="65.25" rx="2.16" width="20.7" x="32.07" y="42.37"/><path d="m35.57 46.71h13.71v43.49h-13.71z" fill="#ebf0f3"/><path d="m42.42 94.19a5.21 5.21 0 1 0 5.21 5.21 5.22 5.22 0 0 0 -5.21-5.21z" fill="#d15241"/><circle cx="42.42" cy="99.4" fill="#ebf0f3" r="2.91"/><rect fill="#029bc5" height="65.25" rx="2.16" width="20.7" x="54.17" y="42.37"/><path d="m57.67 46.71h13.71v43.49h-13.71z" fill="#ebf0f3"/><path d="m64.53 94.19a5.21 5.21 0 1 0 5.2 5.21 5.21 5.21 0 0 0 -5.2-5.21z" fill="#048baa"/><path d="m64.53 96.49a2.92 2.92 0 1 0 2.91 2.91 2.91 2.91 0 0 0 -2.91-2.91z" fill="#ebf0f3"/><path d="m117.78 99.48-22.55-56.62a2.16 2.16 0 0 0 -2.8-1.2l-15.22 6.06a2.16 2.16 0 0 0 -1.21 2.8l22.54 56.62a2.16 2.16 0 0 0 2.8 1.2l15.23-6.06a2.16 2.16 0 0 0 1.21-2.8z" fill="#fcd462"/><path d="m87.61 47.18h13.71v43.49h-13.71z" fill="#ebf0f3" transform="matrix(.929 -.37 .37 .929 -18.8 39.84)"/><path d="m104 92.83a5.21 5.21 0 1 0 6.76 2.92 5.21 5.21 0 0 0 -6.76-2.92z" fill="#f7be56"/><path d="m104.84 95a2.92 2.92 0 1 0 3.78 1.63 2.91 2.91 0 0 0 -3.78-1.63z" fill="#ebf0f3"/><g fill="#e1e6e9"><path d="m37.9 49.21h1.67v38.5h-1.67z"/><path d="m41.59 49.21h1.67v38.5h-1.67z"/><path d="m45.28 49.21h1.67v38.5h-1.67z"/><path d="m59.95 49.21h1.67v38.5h-1.67z"/><path d="m63.63 49.21h1.67v38.5h-1.67z"/><path d="m67.32 49.21h1.67v38.5h-1.67z"/><path d="m90.58 51.45h1.67v38.5h-1.67z" transform="matrix(.923 -.384 .384 .923 -20.13 40.5)"/><path d="m93.98 50.04h1.67v38.5h-1.67z" transform="matrix(.923 -.384 .384 .923 -19.33 41.69)"/><path d="m97.38 48.62h1.67v38.5h-1.67z" transform="matrix(.923 -.384 .384 .923 -18.53 42.89)"/></g></svg>