<svg id="Layer_1" height="512" viewBox="0 0 150 150" width="512" xmlns="http://www.w3.org/2000/svg" data-name="Layer 1"><circle cx="75" cy="75" fill="#ea8953" r="64"/><path d="m75 116.45a1.79 1.79 0 0 1 -1.79-1.79v-16.66l-12.39 17.52a1.84 1.84 0 0 1 -1.57.93 1.76 1.76 0 0 1 -.9-.24 1.79 1.79 0 0 1 -.65-2.46l15.13-21.39a2.59 2.59 0 0 1 .24-.33l.07-.08.07-.18v-56.43a1.79 1.79 0 0 1 3.58 0v57l15.21 21.46a1.74 1.74 0 0 1 .16 1.31 1.8 1.8 0 0 1 -3.29.45l-12.06-17v16.15a1.79 1.79 0 0 1 -1.81 1.74z" fill="#2f4859"/><path d="m47.4 39.71h55.21v40.55h-55.21z" fill="#ebf0f3"/><path d="m103.83 38h-57.66a1.69 1.69 0 0 0 0 3.38h57.66a1.69 1.69 0 0 0 0-3.38z" fill="#3a556a"/><path d="m103.41 79h-56.82a1.27 1.27 0 0 0 0 2.54h56.82a1.27 1.27 0 1 0 0-2.54z" fill="#3a556a"/><path d="m59.23 57.67h2.71v11.38h-2.71z" fill="#44c4a1"/><path d="m64.64 61.47h2.71v7.57h-2.71z" fill="#27a2db"/><path d="m61.94 52.41h2.71v16.63h-2.71z" fill="#fe7058"/><path d="m82.5 54.37h2.71v14.67h-2.71z" fill="#fe7058"/><path d="m87.92 59.12h2.71v9.93h-2.71z" fill="#27a2db"/><path d="m85.21 48.04h2.71v21h-2.71z" fill="#3a556a"/><path d="m70.86 54.87h2.71v14.17h-2.71z" fill="#3a556a"/><path d="m76.28 51.18h2.71v17.87h-2.71z" fill="#27a2db"/><path d="m73.57 57.76h2.71v11.28h-2.71z" fill="#fcd462"/><path d="m57.45 69.04h35.75v.75h-35.75z" fill="#2f4859"/></svg>