<svg id="Layer_1" height="512" viewBox="0 0 150 150" width="512" xmlns="http://www.w3.org/2000/svg" data-name="Layer 1"><circle cx="75" cy="75" fill="#fe7058" r="64"/><rect fill="#3a556a" height="54.48" rx="3.02" width="47.6" x="51.2" y="31.24"/><path d="m56.25 36.35h37.49v12.77h-37.49z" fill="#77b3d5"/><g fill="#64798a"><rect height="7.47" rx="1.03" width="7.47" x="56.54" y="54.82"/><rect height="7.47" rx="1.03" width="7.47" x="66.36" y="54.82"/><rect height="7.47" rx="1.03" width="7.47" x="76.17" y="54.82"/><rect height="7.47" rx="1.03" width="7.47" x="85.98" y="54.82"/><rect height="7.47" rx="1.03" width="7.47" x="56.54" y="63.85"/><rect height="7.47" rx="1.03" width="7.47" x="66.36" y="63.85"/><rect height="7.47" rx="1.03" width="7.47" x="76.17" y="63.85"/><rect height="7.47" rx="1.03" width="7.47" x="56.54" y="72.88"/><rect height="7.47" rx="1.03" width="7.47" x="66.36" y="72.88"/><rect height="7.47" rx="1.03" width="7.47" x="76.17" y="72.88"/></g><path d="m92.42 63.85h-5.42a1 1 0 0 0 -1 1v14.46a1 1 0 0 0 1 1h5.4a1 1 0 0 0 1-1v-14.43a1 1 0 0 0 -.98-1.03z" fill="#fe7058"/><path d="m87.87 73.79a3 3 0 0 0 -3 3v-.52a3 3 0 1 0 -6 0v-.51a3 3 0 1 0 -6 0v-14.28a3 3 0 1 0 -6 0v23.36l-3.07-4.84a3.81 3.81 0 1 0 -6.39 4.16l9.52 14.6 3.15 5.28 19.57-.28 1.22-6.91v-20.07a3 3 0 0 0 -3-2.99z" fill="#fcd462"/><path d="m68.33 103.02h22.53v15.74h-22.53z" fill="#3a556a"/></svg>