<svg id="Layer_1" height="512" viewBox="0 0 150 150" width="512" xmlns="http://www.w3.org/2000/svg" data-name="Layer 1"><circle cx="75" cy="75" fill="#21b3a9" r="64"/><circle cx="75" cy="75" fill="#21b3a9" r="64"/><path d="m81.61 57.07h11.73v11.89h-11.73z" fill="#f7be56" transform="matrix(1 -.011 .011 1 -.69 .97)"/><path d="m109.25 88.22-.12-10.44a11.84 11.84 0 0 0 -2.42-7.19 11.61 11.61 0 0 0 -5.51-3.89l-5.63-1.8-2.23-.7-1.2-.4-4.6 5-4.73-4.89-1.19.42-2.21.75-5.59 1.92a11.48 11.48 0 0 0 -5 3.47 11.81 11.81 0 0 0 -2.71 7.82l.11 9.93z" fill="#d5d6db"/><path d="m86.1 73.92-.55 14.3h4.63l-1.04-14.35.98-1.74.38-.68-1.48-2.51-2.91.03-1.43 2.54.38.65z" fill="#fe7058"/><path d="m93.36 61.99-5.82 6.92 3.77 4.71 4.26-8.61z" fill="#ebf0f3"/><path d="m81.57 62.12 5.97 6.79-3.67 4.79-4.45-8.51z" fill="#ebf0f3"/><path d="m96.07 49.23c-.82-.06-1.59 1.3-1.73 3s.41 3.19 1.23 3.24 1.58-1.3 1.72-3-.41-3.19-1.22-3.24z" fill="#f7be56"/><path d="m78.58 49.42c.81-.07 1.62 1.27 1.79 3s-.34 3.19-1.15 3.26-1.61-1.27-1.79-3 .34-3.19 1.15-3.26z" fill="#f7be56"/><path d="m95 42.47-2.52-1.75-5.18 1.37-5.3-1.26-2.48 1.81-.18 5.06v4.43s.14 4 .39 5.22 2.69 4.22 4.33 5.33a8.12 8.12 0 0 0 3.43 1.32 8 8 0 0 0 3.31-1.35c1.62-1.15 4-4.19 4.21-5.42s.28-5.24.28-5.24l-.05-4.43z" fill="#fcd462"/><path d="m96.67 39.46c-.66-2.52-4.7-6.53-12-5.08-4.84 1-4.48 3.34-4.48 3.34s-2.63-.81-2.95 1.49a28.74 28.74 0 0 0 -.13 8.4 11.29 11.29 0 0 0 2.26 4.85h.52a14.84 14.84 0 0 1 -.28-4.46 10.44 10.44 0 0 0 2.39-5.74c2.13 2.31 6.95 4.27 12.17 1 .21 1.12.36 5 .87 6.43v2.42h1.49a39.88 39.88 0 0 0 1.2-6.35c.35-3.47-.4-3.76-1.06-6.3z" fill="#3a556a"/><path d="m111.81 100.91c-2.91-2.52-20.71 4-20.71 4l-17.16-.37 14.06-.38a1.41 1.41 0 0 0 1.38-1.73 6.49 6.49 0 0 0 -5.26-5.26l-13-1.11s-7-6.22-11.31-5.28-12.45 1.7-12.45 1.7l1.32 15.24h6.41l21.8 7.88a5.62 5.62 0 0 0 3.58.07l14.24-4.54c.74-.24 17.28-7.53 17.28-7.53a1.76 1.76 0 0 0 -.18-2.69z" fill="#fcd462"/><path d="m37.47 89.21h15.48v21.03h-15.48z" fill="#3a556a"/></svg>