<svg id="Layer_1" height="512" viewBox="0 0 150 150" width="512" xmlns="http://www.w3.org/2000/svg" data-name="Layer 1"><circle cx="75" cy="75" fill="#334d5c" r="64"/><rect fill="#d5d6db" height="50.92" rx="1.89" width="72.34" x="38.83" y="49.54"/><path d="m41.6 52.03h66.81v45.94h-66.81z" fill="#ebf0f3"/><g fill="#d5d6db"><path d="m52.24 76.9h45.52v2.07h-45.52z"/><path d="m55.64 82h38.73v2.07h-38.73z"/><path d="m58.92 87.09h18.68v2.07h-18.68z"/></g><path d="m86.94 90.76a.17.17 0 0 1 -.17-.16.17.17 0 0 1 .16-.18l6.07-.35h.25v-.06s0 0-.16 0a4.39 4.39 0 0 1 -1.25-.18 1.8 1.8 0 0 1 -.78-.47 1.08 1.08 0 0 1 -1 .06l-.18.73-.14.13-.18-.09a6.9 6.9 0 0 1 -.56-1.45 3.29 3.29 0 0 1 -.6 1h-.25v-.24a3 3 0 0 0 .72-1.63l.17-.16.17.16a6.09 6.09 0 0 0 .46 1.72l.12-.49.12-.13h.16a.69.69 0 0 0 .51.16.71.71 0 0 0 .28-.09v-.08a1.13 1.13 0 0 1 .24-1.33.81.81 0 0 1 .51-.18.54.54 0 0 1 .48.33.82.82 0 0 1 -.2.77 4.37 4.37 0 0 1 -.49.56 1.73 1.73 0 0 0 .59.36 4.76 4.76 0 0 0 1.16.16.47.47 0 0 1 .45.21.4.4 0 0 1 -.16.52.82.82 0 0 1 -.41.11l-6.03.29zm4.64-3-.25.11a.77.77 0 0 0 -.15.91 3.47 3.47 0 0 0 .42-.5c.1-.14.21-.31.16-.43l-.18-.11z" fill="#3a556a"/><path d="m87.25 92.14h-.25a4.43 4.43 0 0 1 -2.94-1.14 2.94 2.94 0 0 1 -.81-3 2.25 2.25 0 0 1 2.63-1.46 1.85 1.85 0 0 1 1.18 1.22 1.61 1.61 0 0 1 -.2 1.5h-.24v-.24a1.31 1.31 0 0 0 .15-1.18 1.49 1.49 0 0 0 -1-1 1.88 1.88 0 0 0 -2.2 1.24 2.56 2.56 0 0 0 .72 2.61 4 4 0 0 0 2.66 1 9.58 9.58 0 0 0 3-.43.17.17 0 0 1 .21.12.17.17 0 0 1 -.12.21 10.14 10.14 0 0 1 -2.79.55z" fill="#3a556a"/><path d="m93.68 73.27a27.6 27.6 0 0 0 -10.28-5.93l1.6-4.9a32.66 32.66 0 0 1 12.18 7 26.81 26.81 0 0 0 -4.1 0 27.6 27.6 0 0 1 .6 3.83z" fill="#d15241"/><path d="m56.32 73.27a27.6 27.6 0 0 1 10.28-5.93l-1.6-4.9a32.66 32.66 0 0 0 -12.18 7 26.81 26.81 0 0 1 4.1 0 27.6 27.6 0 0 0 -.6 3.83z" fill="#d15241"/><path d="m89.25 67a30.39 30.39 0 0 0 -28.5 0l-2.42-4.54a35.52 35.52 0 0 1 33.34 0z" fill="#e56353"/><path d="m75 66.66 1.21 2.44 2.7.4-1.96 1.9.47 2.69-2.42-1.27-2.42 1.27.47-2.69-1.96-1.9 2.7-.4z" fill="#d5d6db"/></svg>