<svg id="Layer_1" height="512" viewBox="0 0 150 150" width="512" xmlns="http://www.w3.org/2000/svg" data-name="Layer 1"><circle cx="75" cy="75" fill="#fe7058" r="64"/><path d="m39.2 43.93h72v50.21h-72z" fill="#ebf0f3"/><g fill="#3a556a"><path d="m110.92 42.31h-72.23a2.64 2.64 0 0 0 0 5.28h72.23a2.64 2.64 0 0 0 0-5.28z"/><path d="m112.84 92.82h-75.29a1.12 1.12 0 0 0 0 2.23h75.29a1.12 1.12 0 0 0 0-2.23z"/><path d="m73.92 93.21h2.55v6.53h-2.55z"/><path d="m75.19 98.47a4.61 4.61 0 1 0 4.61 4.61 4.61 4.61 0 0 0 -4.61-4.61zm0 7.3a2.7 2.7 0 1 1 2.7-2.69 2.69 2.69 0 0 1 -2.7 2.69z"/><path d="m96.25 84.21h-39.55v-30.28h.96v29.31h38.59z"/></g><path d="m57.66 78.45v-8.9l6.22 1.57 3.74-5.49 5.7 1.04 5.42-5.58 6.5 1.78 7.83-6.77v22.35z" fill="#27a2db"/><path d="m57.66 83.16v-8.9l6.22 1.57 3.56-3.66 6.09.34 5.25-4.27 6.97.83 7.32-5.94v20.03z" fill="#fcd462"/></svg>