<svg id="Layer_1" height="512" viewBox="0 0 150 150" width="512" xmlns="http://www.w3.org/2000/svg" data-name="Layer 1"><circle cx="75" cy="75" fill="#21b3a9" r="64"/><path d="m53.77 68.45h14.59v14.79h-14.59z" fill="#f7be56"/><path d="m84.9 85.68a14.47 14.47 0 0 0 -6.8-4.93l-7-2.31-2.76-.91-1.47-.53-5.79 6.16-5.82-6.16-1.49.5-2.77.94-7 2.31a14.34 14.34 0 0 0 -6.24 4.25 14.7 14.7 0 0 0 -3.47 9.69v13h53.53v-13a14.65 14.65 0 0 0 -2.92-9.01z" fill="#d5d6db"/><path d="m64.72 86.39-1.81-3.14h-3.63l-1.81 3.14.47.8 1.26 2.21-1.2 18.29c1 .1 5.11.1 6.13 0l-1.13-18.31 1.24-2.15z" fill="#fe7058"/><g fill="#ebf0f3"><path d="m68.41 74.66-7.34 8.53 4.63 5.91 5.42-10.65z"/><path d="m53.73 74.66 7.34 8.53-4.63 5.91-5.42-10.65z"/><path d="m103.7 52.34c6.63 0 12 4.19 12 9.34 0 3.61-2.63 6.73-6.48 8.29a6.42 6.42 0 0 0 3.78 5.39 7.37 7.37 0 0 1 -7-4.5 16.29 16.29 0 0 1 -2.24.16c-6.63 0-12-4.18-12-9.34s5.31-9.34 11.94-9.34z"/></g><path d="m91.69 42.24c-8.75 0-15.84 5.52-15.84 12.32 0 4.76 3.47 8.88 8.55 10.93a8.51 8.51 0 0 1 -5 7.12s6 .63 9.28-6a20.51 20.51 0 0 0 3 .22c8.75 0 15.85-5.51 15.85-12.32s-7.09-12.27-15.84-12.27z" fill="#fe7058"/><path d="m85.25 52.34a2.26 2.26 0 1 0 2.26 2.26 2.26 2.26 0 0 0 -2.26-2.26z" fill="#ebf0f3"/><path d="m91.69 52.34a2.26 2.26 0 1 0 2.31 2.26 2.27 2.27 0 0 0 -2.31-2.26z" fill="#ebf0f3"/><path d="m98.14 52.34a2.26 2.26 0 1 0 2.26 2.26 2.26 2.26 0 0 0 -2.26-2.26z" fill="#ebf0f3"/><path d="m70.52 58.44s2.43-2 2.34 1.81-1.69 6.23-3.93 6.41 1.59-8.22 1.59-8.22z" fill="#f7be56"/><path d="m51.33 58.44s-2.43-2-2.33 1.81 1.68 6.23 3.92 6.41-1.59-8.22-1.59-8.22z" fill="#f7be56"/><path d="m70.86 51.07-3.08-2.15-6.2-1.69v-.37l-.66.19-.67-.19v.37l-6.2 1.69-3.05 2.15 1.17 9.32a47.35 47.35 0 0 0 0 8.89c.45 2.71 3 5.21 7.09 6.34a6.25 6.25 0 0 0 3.43 0c4-1.13 6.56-3.63 7-6.34a47.35 47.35 0 0 0 0-8.89z" fill="#fcd462"/><path d="m69.46 63.11h.75s1-4.39 2.24-4.85c0 0 3-10-3-10.41 0 0-.28-4.35-5.79-4.44s-11.58.9-13.17 6.94.81 8.54.81 8.54l.49 4.22h1s-1.31-10.53.83-12.11 6.12 3.06 13.32-.65c0 0 1.87-1 2.52 3.52a38.15 38.15 0 0 1 0 9.24z" fill="#3a556a"/></svg>