<svg id="Layer_1" height="512" viewBox="0 0 150 150" width="512" xmlns="http://www.w3.org/2000/svg" data-name="Layer 1"><circle cx="75" cy="75" fill="#21b3a9" r="64"/><path d="m92 98.79h-37.42s-5.36 3.49-4.76 14.95a4.58 4.58 0 0 0 4.57 4.32h38.87a4.58 4.58 0 0 0 4.57-4.86c-.83-12.2-5.83-14.41-5.83-14.41z" fill="#fcd462"/><path d="m100.75 69.14-2.38 4.3a3.73 3.73 0 0 1 -4.77 1.56l-16.44-7.25c-.47 5.25 1.84 5.4 7.51 10.52 8.15 7.34 7.64 17.9 7.64 17.9h-36.84c-17.3-37.79 4.4-46.65 4.4-46.65l9.95-17.58 5.24 13.59 5.82 1.47a7.93 7.93 0 0 1 4.25 2.28l15 15.47a3.69 3.69 0 0 1 .62 4.39z" fill="#fcd462"/><g fill="#f7be56"><path d="m92.32 95.47h-37.52a3.32 3.32 0 0 0 0 6.63h37.52a3.32 3.32 0 0 0 0-6.63z"/><path d="m75.43 53.26a4.1 4.1 0 0 0 5.78 0 4.08 4.08 0 0 0 -5.78 0z"/><path d="m61.86 95-.74 1.16h-5.65c-17.3-37.79 4.4-46.65 4.4-46.65l.6 3.74s-12.82 17.23 1.39 41.75z"/></g></svg>