<svg id="Layer_1" height="512" viewBox="0 0 150 150" width="512" xmlns="http://www.w3.org/2000/svg" data-name="Layer 1"><circle cx="75" cy="75" fill="#709584" r="64"/><path d="m48.06 49.19h53.87v67.09h-53.87z" fill="#ebf0f3"/><path d="m64.2 42.91h21.59v12.57h-21.59z" fill="#3a556a"/><path d="m81.48 54.77h-3.48l-1.9-13a2.21 2.21 0 0 1 .54-1.79l1.92-2.11a1.37 1.37 0 0 0 -.24-2 5.91 5.91 0 0 0 -6.69 0 1.36 1.36 0 0 0 -.24 2l1.92 2.12a2.17 2.17 0 0 1 .54 1.79l-1.89 13h-3.5v-1h2.54l1.77-12.16a1.18 1.18 0 0 0 -.28-.95l-1.89-2.16a2.38 2.38 0 0 1 -.6-1.87 2.4 2.4 0 0 1 1-1.7 7 7 0 0 1 7.89 0 2.41 2.41 0 0 1 .41 3.58l-1.91 2.11a1.18 1.18 0 0 0 -.29.95l1.77 12.16h2.61z" fill="#2f4859"/><path d="m64.2 53.04h5.36v2.43h-5.36z" fill="#64798a"/><path d="m80.44 53.04h5.36v2.43h-5.36z" fill="#64798a"/><path d="m93.2 102.33-1.38 1.38 1.33 1.33h-33.85v-34.92l1.33 1.33 1.38-1.38-3.69-3.68-3.68 3.68 1.38 1.38 1.33-1.33v36.87h35.8l-1.33 1.33 1.38 1.38 3.68-3.68z" fill="#3a556a"/><path d="m61.6 77.7h7.2v26.13h-7.2z" fill="#e56353"/><path d="m71.62 84.41h7.2v19.42h-7.2z" fill="#27a2db"/><path d="m81.64 91.83h7.2v12h-7.2z" fill="#44c4a1"/><path d="m92.84 89.61-8.08-7.74-10.49-3.09-8.48-8.9.94-.89 8.24 8.65 10.46 3.08 8.31 7.96z" fill="#3a556a"/><path d="m93.24 87.06a2.13 2.13 0 1 0 2.12 2.13 2.12 2.12 0 0 0 -2.12-2.13z" fill="#3a556a"/><circle cx="93.24" cy="89.19" fill="#e56353" r="1.14"/><g fill="#3a556a"><path d="m84.92 79.3a2.12 2.12 0 1 0 2.08 2.12 2.12 2.12 0 0 0 -2.08-2.12z"/><path d="m74.84 76a2.13 2.13 0 1 0 2.16 2.07 2.13 2.13 0 0 0 -2.16-2.07z"/><path d="m66.68 67.54a2.12 2.12 0 1 0 2.12 2.12 2.12 2.12 0 0 0 -2.12-2.12z"/></g><path d="m84.92 80.28a1.14 1.14 0 1 0 1.14 1.14 1.14 1.14 0 0 0 -1.14-1.14z" fill="#e56353"/><path d="m74.84 76.93a1.14 1.14 0 1 0 1.16 1.14 1.14 1.14 0 0 0 -1.16-1.14z" fill="#e56353"/><circle cx="66.68" cy="69.66" fill="#e56353" r="1.14"/></svg>