<svg id="Layer_1" height="512" viewBox="0 0 150 150" width="512" xmlns="http://www.w3.org/2000/svg" data-name="Layer 1"><circle cx="75" cy="75" fill="#ea8953" r="64"/><path d="m30.75 109.3h29v-8c1.11-1.61 2.92-1.55 7.92-1.52s4.47-3.17 4.28-4.35-1.43-2.67.37-4.16.38-2.64.38-2.64c1.58-.93.29-2 .29-2a7.09 7.09 0 0 1 -.09-3.24 3.5 3.5 0 0 0 3.33-4c-.09-2.69-3.88-6.2-3.78-6.76s1.25-1.27 1.55-3.63-3.15-11.1-3.15-11.1l-7.75-6.11-9.5-3.28-6.93 10-15.67 12.67s4.87 8.39 5.72 17.15c.75 8.14-5.13 19.4-5.97 20.97z" fill="#fcd462"/><path d="m83.42 49.59h20.83a1.67 1.67 0 0 1 1.67 1.67v12.07a1.67 1.67 0 0 1 -1.67 1.67h-11.64l-5.41 5.4v-5.4h-3.78a1.67 1.67 0 0 1 -1.67-1.67v-12.07a1.66 1.66 0 0 1 1.67-1.67z" fill="#27a2db"/><path d="m119.34 40.7h-25.07a2 2 0 0 0 -2 2v14.53a2 2 0 0 0 2 2h14l6.51 6.51v-6.5h4.55a2 2 0 0 0 2-2v-14.54a2 2 0 0 0 -1.99-2z" fill="#ebf0f3"/><g fill="#64798a"><path d="m100.57 48.16a1.86 1.86 0 1 0 1.85 1.84 1.86 1.86 0 0 0 -1.85-1.84z"/><path d="m106.26 48.16a1.86 1.86 0 1 0 1.85 1.84 1.86 1.86 0 0 0 -1.85-1.84z"/><path d="m111.94 48.16a1.86 1.86 0 1 0 1.86 1.84 1.85 1.85 0 0 0 -1.86-1.84z"/></g><path d="m73.75 51.53a7.71 7.71 0 0 0 -4.43-6.66c-1.6-.71-3.41-.84-5.08-1.37-1.39-.44-2.68-1.16-4.06-1.63-3.27-1.11-6.84-.77-10.26-.25-4.35.68-8.79 1.69-12.43 4.17a14.72 14.72 0 0 0 -3.05 2.8c-2.86 2.23-5.79 8.12-5.79 17.48 0 12 8 22.26 8 22.26s2.55-.73 2.67-6.36-.85-10.06 4.51-11 6.32 3.77 6.32 3.77l3.9 1.09s1-4.5 1.34-7.18 2.79-1.82 4.25-4.25-.24-3.05-.85-4.75-.49-7.18 1.58-4.14 10.43 2.46 10.43 2.46a21.62 21.62 0 0 0 3.32-3.07 3.61 3.61 0 0 0 -.37-3.37z" fill="#3a556a"/></svg>