<svg id="Layer_1" height="512" viewBox="0 0 150 150" width="512" xmlns="http://www.w3.org/2000/svg" data-name="Layer 1"><circle cx="75" cy="75" fill="#fcd462" r="64"/><circle cx="75" cy="75" fill="#3a556a" r="45.03"/><circle cx="75" cy="75" fill="#d5d6db" r="36.61"/><circle cx="75" cy="75" fill="#ebf0f3" r="33.17"/><circle cx="75" cy="75" fill="#ebf0f3" r="35.49"/><circle cx="75" cy="75" fill="#d5d6db" r="16.44"/><path d="m94.77 55.23-25.2 14.34 10.85 10.85z" fill="#27a2db"/><path d="m69.57 69.57-14.34 25.2 25.19-14.35z" fill="#e56353"/><path d="m78.31 71.69a4.68 4.68 0 1 0 0 6.62 4.68 4.68 0 0 0 0-6.62z" fill="#e1e6e9"/><g fill="#3a556a"><path d="m77.32 72.68a3.28 3.28 0 1 0 0 4.64 3.28 3.28 0 0 0 0-4.64z"/><path d="m74.35 43.09h1.3v4.29h-1.3z"/><path d="m74.35 102.63h1.3v4.29h-1.3z"/><path d="m102.63 74.35h4.29v1.3h-4.29z"/><path d="m43.09 74.35h4.29v1.3h-4.29z"/></g></svg>