<svg id="Layer_1" height="512" viewBox="0 0 150 150" width="512" xmlns="http://www.w3.org/2000/svg" data-name="Layer 1"><circle cx="75" cy="75" fill="#d5d6db" r="64"/><path d="m50.83 88.37h19.31v8.72h-19.31z" fill="#2f4859"/><path d="m43.89 96.54h33.18v3.68h-33.18z" fill="#3a556a"/><rect fill="#3a556a" height="41.44" rx="2.5" width="56.74" x="32.11" y="48.51"/><path d="m36.42 52.81h48.13v29.73h-48.13z" fill="#27a2db"/><rect fill="#3a556a" height="52.99" rx="1.7" width="26" x="91.89" y="48.51"/><g fill="#2f4859"><path d="m94.84 51.83h20.11v6.8h-20.11z"/><path d="m94.84 60.88h20.11v6.8h-20.11z"/><path d="m94.84 69.94h20.11v6.8h-20.11z"/></g><path d="m104.89 86.55a2.37 2.37 0 1 0 2.37 2.37 2.37 2.37 0 0 0 -2.37-2.37z" fill="#64798a"/><path d="m79.92 84.65a1.42 1.42 0 1 0 1.41 1.42 1.42 1.42 0 0 0 -1.41-1.42z" fill="#2f4859"/><path d="m76.05 84.65a1.42 1.42 0 1 0 1.42 1.42 1.42 1.42 0 0 0 -1.42-1.42z" fill="#2f4859"/><path d="m72.19 84.65a1.42 1.42 0 1 0 1.42 1.42 1.42 1.42 0 0 0 -1.42-1.42z" fill="#2f4859"/></svg>