<svg id="Layer_1" height="512" viewBox="0 0 150 150" width="512" xmlns="http://www.w3.org/2000/svg" data-name="Layer 1"><circle cx="75" cy="75" fill="#21b3a9" r="64"/><path d="m70.29 81.2a2.07 2.07 0 0 1 -2.43.64 3.28 3.28 0 0 1 -1.78-1.94 8.52 8.52 0 0 1 -.43-2.66 37.3 37.3 0 0 1 .22-5.69 1.24 1.24 0 0 0 -1.82-1.26l-3.52 1.88a10.73 10.73 0 0 0 -5.82 3.74 9.87 9.87 0 0 0 -.77 1.24 8.76 8.76 0 0 0 -.76-1.24 10.72 10.72 0 0 0 -5.83-3.74l-3.58-1.91a1.2 1.2 0 0 0 -1.77 1.22 38.23 38.23 0 0 1 .23 5.76 8.24 8.24 0 0 1 -.44 2.66 3.23 3.23 0 0 1 -1.79 1.94 2.06 2.06 0 0 1 -2.42-.64 5.4 5.4 0 0 0 1.32 4.9 11.67 11.67 0 0 0 4.43 2.9 8 8 0 0 0 4.1.79 8.1 8.1 0 0 0 4.57-2.96 13.75 13.75 0 0 0 1.93-2.64 14.24 14.24 0 0 0 1.94 2.64 8.07 8.07 0 0 0 4.58 2.93 8.06 8.06 0 0 0 4.1-.79 11.63 11.63 0 0 0 4.45-2.87 5.38 5.38 0 0 0 1.29-4.9z" fill="#2f4859"/><path d="m53.94 57.94a12.18 12.18 0 1 0 12.17 12.17 12.17 12.17 0 0 0 -12.17-12.17z" fill="#2f4859"/><path d="m59.61 86.67v-5.13l-5.66-1.97h-.01l-5.66 1.97v5.13l-2.63 1.32v5.62h16.96v-5.43z" fill="#f7be56"/><ellipse cx="53.94" cy="73.4" fill="#fcd462" rx="9.2" ry="12.2"/><path d="m75.92 109.41-1.12-11.74a6.42 6.42 0 0 0 -3.48-5.1l-11.71-6.43s0 .19 0 .53c-1.67 4.88-9.12 5.39-11.33 0 0-.34 0-.53 0-.53l-11.71 6.43a6.38 6.38 0 0 0 -3.48 5.1l-1.09 11.74h44z" fill="#fe7058"/><path d="m47.14 63.3s3.21 6.73 16.39 6l-1.83-6-4.81-3.84h-4.57z" fill="#2f4859"/><path d="m86.93 71.35c.67-.11 1.41.93 1.63 2.33s-.13 2.62-.81 2.73-1.41-.94-1.64-2.34.14-2.61.82-2.72z" fill="#fcd462"/><path d="m100.06 81.3h-8.51l-1.38 7.17 5.22 5.94 6.05-5.94z" fill="#f7be56"/><path d="m104.93 71.58c-.68-.11-1.41.94-1.64 2.33s.14 2.62.82 2.73 1.41-.93 1.64-2.33-.14-2.62-.82-2.73z" fill="#fcd462"/><path d="m95.81 60.47c-4.82 0-8.72 5.43-8.72 12.13s3.91 12.14 8.72 12.14 8.71-5.44 8.71-12.14-3.9-12.13-8.71-12.13z" fill="#fcd462"/><path d="m104.87 61.78c-.79-.66-3.55-1.78-4.63-1.58-1.39-3.9-9.82-1.37-12.37.89-3 2.62-1 9.36-.86 12.47a.57.57 0 0 0 .55.53.55.55 0 0 0 .55-.5c.21-2.22.18-8 1.27-8.41 3 5.1 8.32 5 13 3.28.78.91 1.1 3.25 1.23 5.11a.56.56 0 0 0 .55.52.57.57 0 0 0 .56-.53c.22-3.11 2.13-10.12.15-11.78z" fill="#2f4859"/><path d="m118 109.41h-44.41c.31-5.86 1-12.83 2.45-15.61 2-3.87 8.59-5.55 11.73-6.15h.24l.72-.13h.11.16.11l.43-.06.76-.05h.14a5.76 5.76 0 0 0 10.81 0h.13l.77.05.41.06h.09.1.15l1.17.21c3.22.63 9.54 2.31 11.55 6.11 1.38 2.74 2.09 9.71 2.38 15.57z" fill="#ebf0f3"/><path d="m78.64 40.59h-16.03v10.36h2v4.72l3.44-4.72h10.59z" fill="#ebf0f3"/><path d="m69.88 46.12h16.03v10.36h-2v4.72l-3.44-4.72h-10.59z" fill="#fe7058"/><g fill="#ea6453"><path d="m72.24 48.13h11.21v.46h-11.21z"/><path d="m72.24 50.01h11.21v.46h-11.21z"/><path d="m72.24 51.89h11.21v.46h-11.21z"/><path d="m72.24 53.77h11.21v.46h-11.21z"/></g></svg>