<svg id="Layer_1" height="512" viewBox="0 0 150 150" width="512" xmlns="http://www.w3.org/2000/svg" data-name="Layer 1"><circle cx="75" cy="75" fill="#21b3a9" r="64"/><g fill="#ebf0f3"><circle cx="49.56" cy="77.25" r="17.33"/><path d="m103.85 40.33a14.47 14.47 0 1 0 14.47 14.47 14.47 14.47 0 0 0 -14.47-14.47z"/><path d="m104.17 80.93a14.15 14.15 0 1 0 14.15 14.15 14.15 14.15 0 0 0 -14.15-14.15z"/></g><path d="m104.05 79.69a15.41 15.41 0 0 0 -14.82 11.31c-13.23-5.32-18.9-7.45-21.48-8.15a19 19 0 0 0 -1.32-14.35l22.73-9.76a15.33 15.33 0 1 0 -.5-3.82c0 .49 0 .95.07 1.42l-23.54 10.11a19 19 0 1 0 1.71 18.55c3.06.9 14.37 5.35 21.86 8.36a16 16 0 0 0 -.1 1.7 15.4 15.4 0 1 0 15.39-15.39zm0-37.78a13 13 0 1 1 -13 13 13 13 0 0 1 13-13zm-54.48 52a16.65 16.65 0 1 1 16.63-16.66 16.65 16.65 0 0 1 -16.63 16.64zm40.73-2.46-.3-.12.27.11zm13.75 16.64a13 13 0 1 1 13-13 13 13 0 0 1 -13 13z" fill="#2f4859"/><path d="m58.84 87.6c-.13-2.58-.43-5.65-1.08-6.87-.88-1.68-3.66-2.42-5.08-2.69l-.51-.1h-.17-.17-.35-.16l-1-.07-1.31.59-1.31-.59-1 .07h-.17-.34-.19-.15-.31-.11c-1.38.26-4.27 1-5.17 2.71-.55 1.35-.85 4.35-.99 6.95z" fill="#d15241"/><path d="m47.18 75.22h3.75v3.15h-3.75z" fill="#f7be56"/><path d="m45 70.76c.36-.05.73.49.85 1.21s-.07 1.36-.42 1.41-.73-.48-.85-1.2.07-1.36.42-1.42z" fill="#fcd462"/><path d="m53.11 70.76c-.35-.05-.73.49-.84 1.21s.07 1.36.42 1.41.73-.48.85-1.2-.08-1.36-.43-1.42z" fill="#fcd462"/><path d="m49.06 66.05c-2.12 0-3.84 2.39-3.84 5.34s1.72 5.35 3.84 5.35 3.84-2.4 3.84-5.35-1.72-5.34-3.84-5.34z" fill="#fcd462"/><path d="m53.05 65.83a4 4 0 0 0 -2-.69c-.61-1.72-4.32-.6-5.44.39-1.31 1.16-.46 4.92-.38 6.29a.23.23 0 0 0 .24.23.26.26 0 0 0 .25-.22c.09-1 .07-3.5.55-3.7 1.3 2.24 4-1.93 5.75 1.44a4.83 4.83 0 0 1 .54 2.25.24.24 0 0 0 .24.23.23.23 0 0 0 .24-.23c.04-1.37.88-5.25.01-5.99z" fill="#3a556a"/><path d="m48.12 87.6h1.88l-.5-6.9 1.05-1.47-1.49-.85-1.5.85 1.06 1.47z" fill="#27a2db"/><path d="m50.93 76.87-1.87 1.51 1.59 1.75 1.19-2.23z" fill="#e56353"/><path d="m47.18 76.87 1.88 1.51-1.76 1.71-1.02-2.19z" fill="#e56353"/><path d="m112.18 63.29c-.11-2.15-.36-4.7-.89-5.71-.73-1.39-3.05-2-4.23-2.24l-.43-.08h-.12-.15-.42l-.8-.06-1.09.49-1.05-.55-.79.06h-.42-.16-.12-.27-.08c-1.16.22-3.55.83-4.3 2.25-.54 1-.78 3.56-.9 5.71z" fill="#2d93ba"/><path d="m102.5 53h3.12v2.62h-3.12z" fill="#f7be56"/><path d="m100.69 49.3c.29 0 .6.4.7 1s-.06 1.13-.35 1.18-.61-.41-.71-1 .06-1.13.36-1.18z" fill="#fcd462"/><path d="m107.42 49.3c-.29 0-.6.4-.7 1s.06 1.13.35 1.18.61-.41.7-1-.06-1.13-.35-1.18z" fill="#fcd462"/><path d="m104.05 45.38c-1.76 0-3.18 2-3.18 4.44s1.42 4.44 3.18 4.44 3.19-2 3.19-4.44-1.43-4.44-3.19-4.44z" fill="#fcd462"/><path d="m107 45.38a4.11 4.11 0 0 0 -5.86-.43c-1.09 1-.38 4.08-.31 5.22a.19.19 0 0 0 .2.19.18.18 0 0 0 .2-.18c.09-2.24-.79-3.43 2.75-3.39 1.91 0 2.84-.08 2.8 1.4.09.65.11 1.54.14 2a.2.2 0 0 0 .2.18.19.19 0 0 0 .2-.19c.08-1.18.3-4.08-.32-4.8z" fill="#3a556a"/><path d="m103.27 63.29h1.57l-.42-5.74.88-1.22-1.25-.7-1.24.7.88 1.22z" fill="#e1e6e9"/><path d="m105.61 54.38-1.56 1.25 1.32 1.45.99-1.85z" fill="#27a2db"/><path d="m102.5 54.38 1.55 1.25-1.46 1.42-.84-1.82z" fill="#27a2db"/><path d="m112 103.17c-.11-2.08-.35-4.54-.86-5.52-.71-1.34-3-1.94-4.08-2.16l-.42-.07h-.12-.14-.27-.11-.77l-1 .47-1-.47h-.77-.14-.27-.15-.12-.25-.08c-1.12.21-3.43.8-4.15 2.17-.52 1-.76 3.44-.87 5.52z" fill="#2d93ba"/><path d="m102.67 93.24h3.01v2.53h-3.01z" fill="#f7be56"/><path d="m100.92 89.66c.28 0 .59.39.68 1s-.06 1.08-.34 1.13-.59-.39-.68-1 .06-1.09.34-1.13z" fill="#fcd462"/><path d="m107.42 89.66c-.28 0-.58.39-.68 1s.06 1.08.34 1.13.59-.39.68-1-.05-1.09-.34-1.13z" fill="#fcd462"/><path d="m104.17 85.88c-1.7 0-3.08 1.91-3.08 4.28s1.38 4.29 3.08 4.29 3.08-1.92 3.08-4.29-1.38-4.28-3.08-4.28z" fill="#fcd462"/><path d="m103.42 103.17h1.51l-.4-5.54.84-1.18-1.2-.68-1.2.68.85 1.18z" fill="#e1e6e9"/><path d="m105.68 94.56-1.51 1.21 1.27 1.4.96-1.79z" fill="#27a2db"/><path d="m102.67 94.56 1.5 1.21-1.41 1.37-.82-1.76z" fill="#27a2db"/><path d="m107 85.88a4 4 0 0 0 -5.65-.42c-1.05.93-.37 3.94-.31 5a.21.21 0 0 0 .2.19.2.2 0 0 0 .2-.18 7.89 7.89 0 0 1 .11-2.53 8.63 8.63 0 0 0 1.76 0c1.83-.13 2.29-.58 2.38-.7.76.09 1.13.37 1.1 1.29.09.63.11 1.49.14 1.93a.19.19 0 0 0 .19.18.2.2 0 0 0 .2-.19c.08-1.05.3-3.88-.32-4.57z" fill="#3a556a"/></svg>