<svg id="Layer_1" height="512" viewBox="0 0 150 150" width="512" xmlns="http://www.w3.org/2000/svg" data-name="Layer 1"><circle cx="75" cy="75" fill="#709584" r="64"/><path d="m46.05 86c2.45 0 2.71 1.61 2.71 1.61-3 1.61-2.4 5.72-2.4 5.72-.18 7.1 14.14 6.29 14.14 6.29l1.3 16.93h36.85c-3.77-5.55-3.71-18.75-3.65-19.74 11.66-10.4 20.66-46.38 1.16-58.45-22.7-14-41.7 6.2-40.91 9-2.34 4.27-4.39 9.88-4.48 13.8-.13 6-5.06 7.07-7.37 9s.09 4.74 2.44 5.7.79 4 .79 4c-2.91 1-.24 3-.24 3-1.95 1.04-.34 3.14-.34 3.14z" fill="#fcd462"/><path d="m96.69 62.74v-4.17l-4.22-.77a12.79 12.79 0 0 0 -1.7-4.08l2.44-3.53-2.94-2.95-3.53 2.44a13 13 0 0 0 -4.08-1.68l-.78-4.22h-4.16l-.72 4.22a12.69 12.69 0 0 0 -4.08 1.7l-3.53-2.45-3 2.95 2.44 3.53a12.79 12.79 0 0 0 -1.7 4.08l-4.21.77v4.17l4.21.77a12.69 12.69 0 0 0 1.7 4.08l-2.44 3.53 3 2.95 3.53-2.44a12.9 12.9 0 0 0 4.08 1.68l.77 4.22h4.16l.78-4.22a13 13 0 0 0 4.08-1.69l3.53 2.44 2.94-2.95-2.43-3.53a12.9 12.9 0 0 0 1.69-4.08zm-16.89 4.26a6.36 6.36 0 1 1 6.36-6.35 6.35 6.35 0 0 1 -6.36 6.35z" fill="#3a556a"/></svg>