<svg id="Layer_1" height="512" viewBox="0 0 150 150" width="512" xmlns="http://www.w3.org/2000/svg" data-name="Layer 1"><circle cx="75" cy="75" fill="#fe7058" r="64"/><path d="m105.5 77.89c-2.91-5.58-5.21-7.64-3.51-10.67s-1.22-9.1-5.34-15.65a12.37 12.37 0 0 0 .19-1.86.86.86 0 0 1 -.3-1.22c.35-.56-.32-1.66-.56-2.17a17.61 17.61 0 0 1 -.86-1.94h-35.58v28.21h-1.72v16.33h-1.09a5.89 5.89 0 0 0 .75 1.82.91.91 0 0 1 -.86 1.37c.38.82.62 1.3.62 1.3l-8.35 13.48 32.74 8.11 4.37-13.22s14.06 2.06 15.4-3-1.82-6.54-1.82-6.54 2.18-2.31.6-3.76c0 0 3-.36 1.55-2.43a2.21 2.21 0 0 1 .38-3.27s6.3.69 3.39-4.89z" fill="#fcd462"/><path d="m96.65 51.57s-11.28-6.06-15.77-1.94 2.55 11 2.55 11-5.37.78-5.43 13.87h-4.63s-2.91-8-8.37-7 0 16.37 0 16.37l-7.76 9.58s-6.67-13.45-7.24-21.26-1-17.71 5-25.23 14.19-12.12 29.35-10.3 12.3 14.91 12.3 14.91z" fill="#3a556a"/><path d="m71.51 50.8v-3.8l-3.37-.71a10.53 10.53 0 0 0 -1.25-3l1.88-2.9-2.65-2.65-2.9 1.88a10.82 10.82 0 0 0 -3-1.25l-.72-3.37h-3.75l-.75 3.4a10.94 10.94 0 0 0 -3 1.25l-2.89-1.88-2.66 2.65 1.89 2.9a10.82 10.82 0 0 0 -1.25 3l-3.36.68v3.8l3.38.71a10.94 10.94 0 0 0 1.25 3l-1.89 2.9 2.66 2.65 2.87-1.87a10.92 10.92 0 0 0 3 1.24l.72 3.38h3.78l.71-3.38a10.8 10.8 0 0 0 3-1.24l2.9 1.88 2.65-2.65-1.88-2.9a10.65 10.65 0 0 0 1.25-3zm-13.88 3.65a5.53 5.53 0 1 1 5.52-5.53 5.54 5.54 0 0 1 -5.52 5.53z" fill="#ebf0f3"/></svg>