<svg id="Layer_1" height="512" viewBox="0 0 150 150" width="512" xmlns="http://www.w3.org/2000/svg" data-name="Layer 1"><circle cx="75" cy="75" fill="#3a556a" r="64"/><path d="m110.92 81.43h-71.84l6.13-18.24h59.58z" fill="#44c4a1"/><path d="m44.15 79.08 4.19-14.21h53.32l4.19 14.21z" fill="#3ea69b"/><path d="m46.12 78.17 3.51-12.61h50.74l3.51 12.61z" fill="#44c4a1"/><path d="m75 66.9c-5 0-9.29 2-9.49 4.53s4 4.91 9.49 4.91 9.71-2.25 9.49-4.91-4.49-4.53-9.49-4.53z" fill="#3ea69b"/><path d="m92.63 69.54c-2.13 0-3.74.85-3.58 1.92s2.08 2 4.3 2 3.81-.9 3.57-2-2.16-1.92-4.29-1.92z" fill="#3ea69b"/><path d="m57.37 69.54c-2.13 0-4 .85-4.29 1.92s1.35 2 3.57 2 4.15-.9 4.3-2-1.45-1.92-3.58-1.92z" fill="#3ea69b"/><path d="m39.08 81.43h71.84v24.92h-71.84z" fill="#3ea69b"/><g fill="#44c4a1"><path d="m39.08 82.75h71.84v.51h-71.84z"/><path d="m39.08 84.54h71.84v.51h-71.84z"/><path d="m39.08 86.34h71.84v.51h-71.84z"/><path d="m39.08 88.14h71.84v.51h-71.84z"/><path d="m39.08 89.94h71.84v.51h-71.84z"/><path d="m39.08 91.74h71.84v.51h-71.84z"/><path d="m39.08 93.53h71.84v.51h-71.84z"/><path d="m39.08 95.33h71.84v.51h-71.84z"/><path d="m39.08 97.13h71.84v.51h-71.84z"/><path d="m39.08 98.93h71.84v.51h-71.84z"/><path d="m39.08 100.73h71.84v.51h-71.84z"/><path d="m39.08 102.52h71.84v.51h-71.84z"/><path d="m39.08 104.32h71.84v.51h-71.84z"/></g><path d="m81.19 81.51h-12.88l1.43-18.32h10.01z" fill="#e1e6e9"/><path d="m68.31 81.51h12.88v24.84h-12.88z" fill="#d5d6db"/><path d="m85.73 57.09v13.52h11.23v-13.52h6.92l-12.54-13.44-12.54 13.44z" fill="#fe7058"/></svg>