<svg id="Layer_1" height="512" viewBox="0 0 150 150" width="512" xmlns="http://www.w3.org/2000/svg" data-name="Layer 1"><circle cx="75" cy="75" fill="#029bc5" r="64"/><path d="m74.42 35.87a3 3 0 0 0 -3 3v75.31h5.89v-75.36a3 3 0 0 0 -2.89-2.95z" fill="#f7be56"/><path d="m112.58 52.05a1.25 1.25 0 0 1 -.31.47l-.12.12-6.22 5a1.42 1.42 0 0 1 -.93.36h-43.45a1.47 1.47 0 0 1 -1.47-1.47v-10.06a1.46 1.46 0 0 1 1.47-1.47h43.45a1.47 1.47 0 0 1 .92.32l6.22 5a1.47 1.47 0 0 1 .44 1.73z" fill="#fcd462"/><path d="m89.93 63.48v10.06a1.46 1.46 0 0 1 -1.47 1.46h-43.46a1.47 1.47 0 0 1 -.92-.32l-3-2.4-1.68-1.36-1.57-1.27a1.46 1.46 0 0 1 0-2.28l6.22-5a1.47 1.47 0 0 1 .95-.37h43.46a1.47 1.47 0 0 1 1.47 1.48z" fill="#fcd462"/><g fill="#f7be56"><path d="m88.06 109.06h-27.28a2.54 2.54 0 0 0 0 5.07h27.28a2.54 2.54 0 0 0 0-5.07z"/><path d="m90 49.45h5.57a47 47 0 0 1 -5.57 0z"/><path d="m84.4 48.76a43.55 43.55 0 0 0 5.59.69h-14.99-9.59a6.45 6.45 0 0 0 3.67.73h22.28-24.48-4.7a4.42 4.42 0 0 1 -1.66-.18 1.79 1.79 0 0 1 -.44-.27v-1.73a.69.69 0 0 1 .68 0l-.14-.15h20.69l-4.76.07 14.6.41 13.72.37z"/><path d="m112.27 52.52q-3.81.69-7.66 1.08l3.34.23h-7.24l2.12-.13h-20.78a9.74 9.74 0 0 1 -4.74-.79 160.21 160.21 0 0 1 16.69-.2l-7.07-.32 15.17-.25-1.42-.14h5.52l-.31.05h6.69a1.25 1.25 0 0 1 -.31.47z"/><path d="m75.47 56.55h7.13a56.54 56.54 0 0 1 -7.13 0z"/><path d="m67.61 55.58a57.6 57.6 0 0 0 7.86 1q-6.64 0-13.28 0c-.7 0-1.41 0-2.11 0v-.72c1.43-.05 2.86-.08 4.3-.12l.06-.35h21.85l-3.21.08 17.65.17z"/><path d="m89.93 63.65v2.85h-25.93a30 30 0 0 1 -8.88-.91l17.31-.12-2.33-.69 7.62-.1-5.31-.79h14.78l-.1-.18c.91-.06 1.91-.08 2.84-.06z"/><path d="m61.07 71.69q4.53.15 9.07.21-14.52 0-29 .38l-1.68-1.36h18.26l-3.3.17a86.67 86.67 0 0 0 10.06.5z"/><path d="m68.29 71.48c-1.27.07-2.54.11-3.81.11z"/><path d="m84.48 71.92q-7.17.09-14.34 0 7.17-.05 14.34 0z"/><path d="m42.6 65.5h8.49l-4.17 1.36a17.16 17.16 0 0 0 5.52.6l-3.34 1 22.06.18h-31l5.76-1-5.8-.22 8.17-1.29h-7.29a8.77 8.77 0 0 1 3.86-.59z"/></g></svg>