<svg id="Layer_1" height="512" viewBox="0 0 150 150" width="512" xmlns="http://www.w3.org/2000/svg" data-name="Layer 1"><circle cx="75" cy="75" fill="#029bc5" r="64"/><path d="m103.09 104.37v-.37a2.54 2.54 0 0 1 2.54-2.53 2.54 2.54 0 0 0 2.53-2.53v-8.86a2.53 2.53 0 0 0 -2.53-2.53 2.54 2.54 0 0 1 -2.54-2.55v-3.46h-5v22.83z" fill="#3a556a"/><path d="m105.63 68.53a2.54 2.54 0 0 1 -2.54-2.53v-3.48h-5v33.19h5v-10.78a2.54 2.54 0 0 1 2.54-2.53 2.53 2.53 0 0 0 2.53-2.53v-8.81a2.53 2.53 0 0 0 -2.53-2.53z" fill="#e56353"/><path d="m103.09 104.37v-36.32a2.54 2.54 0 0 1 2.54-2.53 2.53 2.53 0 0 0 2.53-2.52v-8.82a2.54 2.54 0 0 0 -2.53-2.53 2.54 2.54 0 0 1 -2.54-2.53v-3.49h-5v58.74z" fill="#fcd462"/><rect fill="#ebf0f3" height="73.81" rx="5.32" width="58.39" x="44.75" y="38.1"/><g fill="#3a556a"><path d="m48.83 47.38h-6a1 1 0 0 0 0 1.94h6a1 1 0 0 0 0-1.94z"/><path d="m48.83 54h-6a1 1 0 0 0 0 1.94h6a1 1 0 0 0 0-1.94z"/><path d="m48.83 60.71h-6a1 1 0 0 0 0 1.94h6a1 1 0 0 0 0-1.94z"/><path d="m48.83 67.37h-6a1 1 0 0 0 0 1.94h6a1 1 0 0 0 0-1.94z"/><path d="m48.83 74h-6a1 1 0 0 0 0 1.94h6a1 1 0 0 0 0-1.94z"/><path d="m48.83 80.69h-6a1 1 0 0 0 0 1.94h6a1 1 0 1 0 0-1.94z"/><path d="m48.83 87.35h-6a1 1 0 0 0 0 1.94h6a1 1 0 0 0 0-1.94z"/><path d="m48.83 94h-6a1 1 0 0 0 0 1.94h6a1 1 0 0 0 0-1.94z"/><path d="m48.83 100.68h-6a1 1 0 0 0 0 1.94h6a1 1 0 1 0 0-1.94z"/></g><path d="m59 62.28-.09.74a2.34 2.34 0 0 0 .23 1.33 59.61 59.61 0 0 0 9.25 12.83s.42.45 1.18 1.2 1.2 1.18 1.2 1.18a59.61 59.61 0 0 0 12.83 9.25 2.33 2.33 0 0 0 1.4.19l.74-.1a2.25 2.25 0 0 0 1.78-1.31l1.15-2.48.13-.27a2.29 2.29 0 0 0 -.8-2.79l-4.18-3a2.26 2.26 0 0 0 -2.48-.12l-.76.44-1.42.74a3.49 3.49 0 0 1 -4.08-.45c-.93-.85-2.48-2.3-3.51-3.27s-2.42-2.58-3.27-3.52a3.45 3.45 0 0 1 -.45-4.07l.73-1.42.45-.76a2.26 2.26 0 0 0 -.12-2.48l-3-4.18a2.3 2.3 0 0 0 -2.83-.75l-.27.12-2.48 1.15a2.32 2.32 0 0 0 -1.33 1.8z" fill="#2f4859"/><path d="m68.59 67.39.45-.76a2.26 2.26 0 0 0 -.12-2.48l-3-4.18a2.29 2.29 0 0 0 -2.83-.75l-.27.12z" fill="#2f4859"/><path d="m80.59 79.38.76-.44a2.26 2.26 0 0 1 2.48.12l4.18 3a2.29 2.29 0 0 1 .75 2.83l-.13.27z" fill="#2f4859"/></svg>