<svg id="Layer_1" height="512" viewBox="0 0 150 150" width="512" xmlns="http://www.w3.org/2000/svg" data-name="Layer 1"><circle cx="75" cy="75" fill="#029bc5" r="64"/><path d="m109.1 97.32h6.9v10.15h-6.9z" fill="#fcd462"/><path d="m76.09 97.32h6.9v10.15h-6.9z" fill="#fcd462"/><path d="m99.96 80.92-4.05 2.2-4.05-2.2v-6.81h8.1z" fill="#f7be56"/><path d="m114.7 86c-1.9-3.61-7.92-5.21-11-5.81-.44-.09-.82-.15-1.12-.2h-.13-.11-.08l-.39-.05h-.73-.37l-2.06-.14-2.83 3.46-2.83-3.46h-2.05-.38-.72l-.41.06h-.1-.11-.11l-.68.12-.23.05c-3 .56-9.22 2.16-11.16 5.84-.81 1.54-1.37 6.69-1.75 11.82h7.77v9.66h25.93v-9.54h7.39c-.37-5.13-.92-10.28-1.74-11.81z" fill="#e1e6e9"/><path d="m87.32 64.4c.77-.12 1.62 1.08 1.88 2.68s-.16 3-.94 3.14-1.62-1.07-1.88-2.68.16-3.01.94-3.14z" fill="#fcd462"/><path d="m104.36 64.4c-.78-.12-1.63 1.08-1.89 2.68s.16 3 .94 3.14 1.63-1.07 1.89-2.68-.16-3.01-.94-3.14z" fill="#fcd462"/><path d="m95.91 54.3c-4.58 0-8.29 5.16-8.29 11.54s3.71 11.53 8.29 11.53 8.28-5.16 8.28-11.53-3.71-11.54-8.28-11.54z" fill="#fcd462"/><path d="m99.96 77.67-3.47 4.74 4.26 3.23 1.15-5.76z" fill="#ebf0f3"/><path d="m91.86 77.67 3.45 4.78-4.23 3.19-1.17-5.76z" fill="#ebf0f3"/><g fill="#3a556a"><path d="m104.49 56.43a7.5 7.5 0 0 0 -2.07-4 7.58 7.58 0 0 0 -5.49-2.27c-1.11-.05-2.18.34-3.25.39-2.7.12-4 2-3.77 2.94-1.68-.58-2.44-.1-3 1.38-1.79 5.08.33 8.35.39 9.84 0 .89 0 .58 0 .17.09.65.17 1.25.2 1.74a.52.52 0 0 0 .52.5.53.53 0 0 0 .53-.47c.19-2.11.16-7.56 1.2-8 8.86 3.88 9.07-3 12.86 1.14.75.87.58 5.07.71 6.84a.52.52 0 0 0 .52.48.53.53 0 0 0 .53-.5c.22-2.45.9-7.55.12-10.18z"/><path d="m69.66 74.08a17.17 17.17 0 0 0 -1.58-3.5 30.52 30.52 0 0 1 -3.49-11.26.8.8 0 0 0 -.79-.73h-2.8a18.15 18.15 0 0 1 -.6 9.88c-.45 1.27-1 2.49-1.4 3.8a5.85 5.85 0 0 0 .16 4c1 2 3.46 2.9 5.71 3a5 5 0 0 0 4.22-1.45 4.23 4.23 0 0 0 .57-3.74z"/><path d="m49.19 72.27c-.35-1.31-.95-2.53-1.4-3.8a18.15 18.15 0 0 1 -.6-9.88h-2.57a1 1 0 0 0 -1 .93 30.52 30.52 0 0 1 -3.47 11.06 17.77 17.77 0 0 0 -1.59 3.5 4.26 4.26 0 0 0 .54 3.67 5 5 0 0 0 4.22 1.45c2.25-.07 4.74-.93 5.71-3a5.91 5.91 0 0 0 .16-3.93z"/><path d="m54.12 50.19a10.56 10.56 0 1 0 10.56 10.56 10.55 10.55 0 0 0 -10.56-10.56z"/></g><path d="m59.04 75.09v-4.44l-4.91-1.71h-.01l-4.9 1.71v4.44l-2.28 1.15v4.87h14.7v-4.71z" fill="#f7be56"/><path d="m54.13 53c-4.41 0-8 4.73-8 10.58s3.57 10.57 8 10.57 8-4.73 8-10.57-3.6-10.58-8-10.58z" fill="#fcd462"/><path d="m62.44 60.08a27.6 27.6 0 0 1 -3.67 0 6 6 0 0 1 -1.9-4.22 10.76 10.76 0 0 0 -.87 3.8 18.46 18.46 0 0 1 -1.83-.5 3.85 3.85 0 0 1 -.27-2.09 9.21 9.21 0 0 0 -.76 1.71c-3.79-1.57-4.92-3.94-4.92-3.94l4.49-3.33h4l4.17 3.33z" fill="#3a556a"/><path d="m33.55 107.47h7.13c.2-4.67.51-14.29.87-13.69 2.49 4.25 2.6 8.8 1.63 13.69h21.5c-.66-4.44-.57-8.9 1.56-13.38.42-.87 1.17 8.44 1.42 13.38h7.16a174.14 174.14 0 0 0 -2.62-22.84 5.56 5.56 0 0 0 -3-4.42l-8.27-4.21-1.86-.94c-1.45 4.23-7.9 4.67-9.82 0l-1.9.94-8.26 4.17a5.51 5.51 0 0 0 -3 4.42 160.74 160.74 0 0 0 -2.54 22.88z" fill="#fe7058"/><path d="m85.7 42.53h-11.75v8.1h7.83l2.37 2.37v-2.37h1.55z" fill="#ebf0f3"/><path d="m67.02 47.02h11.75v8.1h-7.83l-2.36 2.36v-2.36h-1.56z" fill="#d5d6db"/></svg>