<svg id="Layer_1" height="512" viewBox="0 0 150 150" width="512" xmlns="http://www.w3.org/2000/svg" data-name="Layer 1"><circle cx="75" cy="75" fill="#d5d6db" r="64"/><path d="m37.57 56.18h67.19v37.65h-67.19z" fill="#3fb28e" transform="matrix(.887 -.463 .463 .887 -26.62 41.41)"/><path d="m40.78 59.39h60.77v31.23h-60.77z" fill="#31978c" transform="matrix(.887 -.463 .463 .887 -26.62 41.41)"/><path d="m49.87 94.67-7-13.46a5.62 5.62 0 0 0 2.38-7.58l39.64-20.63a5.61 5.61 0 0 0 7.57 2.38l7 13.46a5.63 5.63 0 0 0 -2.39 7.58l-39.62 20.63a5.62 5.62 0 0 0 -7.58-2.38z" fill="#3fb28e"/><g fill="#31978c"><path d="m67.51 68a7.91 7.91 0 1 0 10.67 3.35 7.91 7.91 0 0 0 -10.67-3.35z"/><path d="m85 65.19a2.31 2.31 0 1 0 3.12 1 2.32 2.32 0 0 0 -3.12-1z"/><path d="m55.23 80.71a2.31 2.31 0 1 0 3.11 1 2.31 2.31 0 0 0 -3.11-1z"/></g><path d="m50.13 69.38h67.19v37.65h-67.19z" fill="#44c4a1"/><path d="m53.34 72.59h60.77v31.23h-60.77z" fill="#31978c"/><path d="m55.75 95.8v-15.18a5.62 5.62 0 0 0 5.62-5.62h44.72a5.62 5.62 0 0 0 5.62 5.62v15.18a5.62 5.62 0 0 0 -5.62 5.61h-44.72a5.62 5.62 0 0 0 -5.62-5.61z" fill="#44c4a1"/><path d="m83.73 80.3a7.91 7.91 0 1 0 7.9 7.91 7.91 7.91 0 0 0 -7.9-7.91z" fill="#31978c"/><path d="m100.5 85.9a2.31 2.31 0 1 0 2.32 2.31 2.31 2.31 0 0 0 -2.32-2.31z" fill="#31978c"/><path d="m67 85.9a2.31 2.31 0 1 0 2.32 2.31 2.31 2.31 0 0 0 -2.32-2.31z" fill="#31978c"/></svg>