<svg id="Layer_1" height="512" viewBox="0 0 150 150" width="512" xmlns="http://www.w3.org/2000/svg" data-name="Layer 1"><circle cx="75" cy="75" fill="#3a556a" r="64"/><rect fill="#44c4a1" height="40.54" rx="2.01" width="74.93" x="37.53" y="47.11"/><path d="m40.47 78.84v-22.91a5.88 5.88 0 0 0 5.88-5.88h57.3a5.88 5.88 0 0 0 5.88 5.88v22.91a5.88 5.88 0 0 0 -5.88 5.88h-57.3a5.88 5.88 0 0 0 -5.88-5.88z" fill="#ebf0f3"/><g fill="#44c4a1"><path d="m75 56c-4.21 0-7.62 5.08-7.62 11.35s3.41 11.39 7.62 11.39 7.62-5.09 7.62-11.36-3.41-11.38-7.62-11.38z"/><path d="m95.22 62.75a4.64 4.64 0 1 0 4.64 4.63 4.63 4.63 0 0 0 -4.64-4.63z"/><path d="m54.78 62.75a4.64 4.64 0 1 0 4.63 4.63 4.63 4.63 0 0 0 -4.63-4.63z"/></g><path d="m79.36 68.33a3.7 3.7 0 0 0 -1.57-1.26 12.49 12.49 0 0 0 -1.92-.6v-3.89a2.68 2.68 0 0 1 1.25.51 2.52 2.52 0 0 1 .88 1.76l1.55-.11a3.66 3.66 0 0 0 -.59-1.93 3.34 3.34 0 0 0 -1.58-1.29 5.51 5.51 0 0 0 -1.45-.37v-1.76h-1.73v1.75a5.42 5.42 0 0 0 -1.48.34 3.2 3.2 0 0 0 -1.54 1.21 3.13 3.13 0 0 0 -.54 1.73 2.83 2.83 0 0 0 .42 1.52 3.35 3.35 0 0 0 1.3 1.15 9 9 0 0 0 1.81.63v4.4a4.66 4.66 0 0 1 -.75-.23 2.68 2.68 0 0 1 -1.22-1 3.37 3.37 0 0 1 -.5-1.5l-1.52.12a4.15 4.15 0 0 0 .66 2.2 3.81 3.81 0 0 0 1.75 1.46 5.88 5.88 0 0 0 1.58.42v1.76h1.7v-1.69a5.45 5.45 0 0 0 1.85-.42 3.63 3.63 0 0 0 1.61-1.34 3.24 3.24 0 0 0 .57-1.83 2.94 2.94 0 0 0 -.54-1.74zm-6.7-2.93a1.43 1.43 0 0 1 -.47-1.09 1.59 1.59 0 0 1 .68-1.31 2.67 2.67 0 0 1 1.32-.48v3.5a4.17 4.17 0 0 1 -1.53-.62zm5.34 5.84a2.21 2.21 0 0 1 -1.06.75 4.15 4.15 0 0 1 -1 .22v-4.06c.47.13.82.23 1 .31a2.45 2.45 0 0 1 1.09.73 1.54 1.54 0 0 1 .33 1 1.77 1.77 0 0 1 -.36 1.05z" fill="#ebf0f3"/><circle cx="92.55" cy="90.2" fill="#fcd462" r="12.69"/><path d="m92.55 80.21a10 10 0 1 0 10 10 10 10 0 0 0 -10-10z" fill="#eab053"/><path d="m96.48 91.05a3.35 3.35 0 0 0 -1.41-1.13 10.9 10.9 0 0 0 -1.74-.54v-3.52a2.59 2.59 0 0 1 1.13.47 2.26 2.26 0 0 1 .75 1.58l1.4-.09a3.33 3.33 0 0 0 -.53-1.74 3.05 3.05 0 0 0 -1.44-1.17 4.77 4.77 0 0 0 -1.3-.33v-1.58h-1.51v1.58a4.86 4.86 0 0 0 -1.34.31 2.89 2.89 0 0 0 -1.4 1.11 2.76 2.76 0 0 0 -.48 1.56 2.5 2.5 0 0 0 .39 1.33 3 3 0 0 0 1.17 1 8.07 8.07 0 0 0 1.63.57v4a3.61 3.61 0 0 1 -.68-.22 2.39 2.39 0 0 1 -1.1-.86 3 3 0 0 1 -.48-1.38l-1.38.12a3.78 3.78 0 0 0 .6 2 3.47 3.47 0 0 0 1.58 1.32 5.27 5.27 0 0 0 1.42.37v1.59h1.54v-1.54a5 5 0 0 0 1.7-.38 3.4 3.4 0 0 0 1.45-1.2 3 3 0 0 0 .51-1.66 2.65 2.65 0 0 0 -.48-1.57zm-6-2.64a1.25 1.25 0 0 1 -.42-1 1.43 1.43 0 0 1 .61-1.17 2.35 2.35 0 0 1 1.18-.42v3.18a3.81 3.81 0 0 1 -1.41-.59zm4.77 5.27a2.09 2.09 0 0 1 -.95.67 3.56 3.56 0 0 1 -1 .2v-3.66c.42.12.74.21.91.28a2.25 2.25 0 0 1 1 .66 1.44 1.44 0 0 1 .3.9 1.58 1.58 0 0 1 -.3.95z" fill="#fcd462"/><path d="m93 75.39c-2.63 2.63-1.91 3 5.52 3-7.43 0-8.15.39-5.52 3-2.63-2.63-3-1.91-3 5.53 0-7.44-.4-8.16-3-5.53 2.62-2.63 1.91-3-5.53-3 7.44 0 8.15-.39 5.53-3 2.62 2.63 3 1.91 3-5.53 0 7.44.41 8.14 3 5.53z" fill="#fff"/></svg>