<svg id="Layer_1" height="512" viewBox="0 0 150 150" width="512" xmlns="http://www.w3.org/2000/svg" data-name="Layer 1"><circle cx="75" cy="75" fill="#3a556a" r="64"/><path d="m36.15 50.03h77.71v49.94h-77.71z" fill="#e1e6e9"/><path d="m69.75 52.77h8.26l2.99-2.73h-8.27z" fill="#e56353"/><path d="m82.2 52.77h8.27l2.98-2.73h-8.27z" fill="#44c4a1"/><path d="m44.84 52.77h8.26l2.99-2.73h-8.27z" fill="#e56353"/><path d="m94.66 52.77h8.26l2.99-2.73h-8.27z" fill="#e56353"/><path d="m36.14 68.35 2.72-2.5v-7.59l-2.72 2.5z" fill="#e56353"/><path d="m111.14 52.77v3.9l2.72-2.5v-4.13h-3.77l-2.98 2.73z" fill="#44c4a1"/><path d="m113.86 77.04v-7.59l-2.72 2.5v7.59z" fill="#44c4a1"/><path d="m38.86 97.23v-4.66l-2.72 2.5v4.9h2.93l2.99-2.74z" fill="#44c4a1"/><path d="m111.14 60.51v7.59l2.72-2.49v-7.6z" fill="#e56353"/><path d="m57.29 52.77h8.27l2.98-2.73h-8.27z" fill="#44c4a1"/><path d="m38.86 77.29v-7.59l-2.72 2.5v7.59z" fill="#44c4a1"/><path d="m113.86 80.89-2.72 2.5v7.59l2.72-2.5z" fill="#e56353"/><path d="m38.86 54.42v-1.65h1.79l2.98-2.73h-7.49v6.87z" fill="#44c4a1"/><path d="m91.88 97.23h-8.27l-2.98 2.74h8.26z" fill="#44c4a1"/><path d="m111.14 94.82v2.41h-2.62l-2.98 2.74h8.32v-7.65z" fill="#44c4a1"/><g fill="#e56353"><path d="m104.33 97.23h-8.26l-2.99 2.74h8.27z"/><path d="m79.42 97.23h-8.26l-2.99 2.74h8.27z"/><path d="m54.51 97.23h-8.26l-2.99 2.74h8.27z"/><path d="m38.86 88.73v-7.59l-2.72 2.49v7.59z"/></g><path d="m66.97 97.23h-8.27l-2.98 2.74h8.26z" fill="#44c4a1"/><path d="m45.33 62.71h59.33v3.41h-59.33z" fill="#d5d6db"/><path d="m45.33 73.29h59.33v3.41h-59.33z" fill="#d5d6db"/><path d="m45.33 83.88h59.33v3.42h-59.33z" fill="#d5d6db"/></svg>