<svg id="Layer_1" height="512" viewBox="0 0 150 150" width="512" xmlns="http://www.w3.org/2000/svg" data-name="Layer 1"><circle cx="75" cy="75" fill="#709584" r="64"/><circle cx="75" cy="75" fill="#ebf0f3" r="37.86"/><circle cx="75" cy="75" fill="#e56353" r="29.62"/><circle cx="75" cy="75" fill="#ebf0f3" r="21.85"/><circle cx="75" cy="75" fill="#e56353" r="13.54"/><circle cx="75" cy="75" fill="#e1e6e9" r="6.5"/><path d="m104.68 44.9a1.89 1.89 0 0 0 -2.69 0l-28.31 28.31a1.9 1.9 0 0 0 2.68 2.69l28.32-28.32a1.9 1.9 0 0 0 0-2.68z" fill="#3a556a"/><g fill="#fcd462"><path d="m98.55 60.06-6.28-.86 10.44-10.44 6.28.86z"/><path d="m89.51 51.02.87 6.28 10.44-10.44-.87-6.28z"/></g></svg>