<svg id="Layer_1" height="512" viewBox="0 0 150 150" width="512" xmlns="http://www.w3.org/2000/svg" data-name="Layer 1"><circle cx="75" cy="75" fill="#21b3a9" r="64"/><path d="m28.46 61.43h50.33v37.63h-50.33z" fill="#3a556a"/><path d="m31.02 64.17h45.22v32.15h-45.22z" fill="#ebf0f3"/><path d="m42.78 93.46v-1.85h-3.78v-.33h3.74v-2.64h-3.74v-.33h3.74v-2.64h-3.74v-.33h3.74v-2.64h-3.74v-.33h3.74v-2.64h-3.74v-.33h3.74v-2.64h-3.74v-.33h3.74v-2.64h-3.74v-.33h3.74v-2.64h-3.74v-.33h3.74v-1.85h.33v1.85h2.64v-1.85h.33v1.85h2.64v-1.85h.33v1.85h2.64v-1.85h.35v1.85h2.64v-1.85h.36v1.85h2.64v-1.85h.36v1.85h2.6v-1.85h.33v1.85h2.64v-1.85h.33v1.85h3.74v.33h-3.74v2.64h3.74v.33h-3.74v2.64h3.74v.33h-3.74v2.64h3.74v.33h-3.74v2.64h3.74v.33h-3.74v2.64h3.74v.33h-3.74v2.64h3.74v.33h-3.74v2.64h3.74v.33h-3.74v1.85h-.33v-1.85h-2.64v1.85h-.33v-1.85h-2.6v1.85h-.33v-1.85h-2.67v1.85h-.33v-1.85h-2.67v1.85h-.33v-1.85h-2.62v1.85h-.33v-1.85h-2.64v1.85h-.33v-1.85h-2.64v1.85zm3-4.82h-2.67v2.64h2.64zm3 0h-2.7v2.64h2.64zm3 0h-2.73v2.64h2.64zm3 0h-2.78v2.64h2.64zm3 0h-2.78v2.64h2.64zm3 0h-2.78v2.64h2.6zm3 0h-2.85v2.64h2.64zm-17.82-3h-2.85v2.64h2.64zm3 0h-2.88v2.64h2.64zm3 0h-2.91v2.64h2.64zm3 0h-2.96v2.64h2.64zm3 0h-2.96v2.64h2.64zm3 0h-2.96v2.64h2.6zm3 0h-3.03v2.64h2.64zm-17.82-3h-3.03v2.64h2.64zm3 0h-3.06v2.64h2.64zm3 0h-3.09v2.64h2.64zm3 0h-3.14v2.64h2.64zm3 0h-3.14v2.64h2.64zm3 0h-3.14v2.64h2.6zm3 0h-3.21v2.64h2.64zm-17.82-3h-3.21v2.64h2.64zm3 0h-3.24v2.64h2.64zm3 0h-3.27v2.64h2.64zm3 0h-3.32v2.64h2.64zm3 0h-3.32v2.64h2.64zm3 0h-3.32v2.64h2.6zm3 0h-3.39v2.64h2.64zm-17.82-3h-3.39v2.76h2.64zm3 0h-3.42v2.76h2.64zm3 0h-3.45v2.76h2.64zm3 0h-3.5v2.76h2.64zm3 0h-3.5v2.76h2.64zm3 0h-3.5v2.76h2.6zm3 0h-3.57v2.76h2.64zm-17.82-3h-3.57v2.64h2.64zm3 0h-3.6v2.64h2.64zm3 0h-3.63v2.64h2.64zm3 0h-3.68v2.64h2.64zm3 0h-3.68v2.64h2.64zm3 0h-3.68v2.64h2.6zm3 0h-3.75v2.64h2.64zm-17.82-3h-3.75v2.64h2.64zm3 0h-3.78v2.64h2.64zm3 0h-3.81v2.64h2.64zm3 0h-3.86v2.64h2.64zm3 0h-3.86v2.64h2.64zm3 0h-3.86v2.64h2.6zm3 0h-3.93v2.64h2.64z" fill="#d5d6db"/><path d="m64 91.28c-3.27-3.89-1.56-13.28-5.42-13.52-4.28-.3-2.75 10-5.41 13.52z" fill="#fe7058"/><path d="m51.24 80.24c3.15.22 1.75 7.86 4.43 11h-8.85c2.18-2.82.93-11.24 4.42-11z" fill="#f7be56"/><path d="m45.16 82.7c2.45.17 1.36 6.11 3.44 8.58h-6.88c1.7-2.22.73-8.77 3.44-8.58z" fill="#27a2db"/><path d="m41.72 80.17c.11 0 10.81 0 15.79-7.59h-.85v-.58h1.83l.16 1.88h-.6l-.05-.88c-5.14 7.72-16 7.8-16.25 7.8z" fill="#3a556a"/><path d="m73.11 89.59s-1.88-2.7-1.88-4.3-1.26-.77-.68 1.21-1.55-2.8-2.37-3.09-2.17.53-1.59 2.46 4.49 5.94 4.49 5.94z" fill="#f7be56"/><path d="m91.38 106.55v-.08c.01.17.01.19 0 .08z" fill="#d15241"/><path d="m118.15 93.58c-.33-1.75-2-2.64-3.77-2.82a12.8 12.8 0 0 1 -7.07-2.67s0 .27 0 .74l-.4-.58-4.27 1.75-4.16-1.75-.62.51c0-.46 0-.74 0-.74s-3.8 1.14-6.14 2.09a6.36 6.36 0 0 0 -1.72 1.09l-7.46 6.43-10.23-10-3.2 3 11.76 12.61a4 4 0 0 0 4.54.8l5.29-2.55c.34 2.48.65 4.72.7 5.12a50.86 50.86 0 0 1 1.36 10.76h20.04a88.17 88.17 0 0 1 .29-14.8c.61 3.39 1.75 10 2.57 14.8h5.88c-.39-10.66-3.39-23.79-3.39-23.79z" fill="#fe7058"/><path d="m94.15 80.69c0 .42.46 1 .89.79 0 0 .23.39-.19 1 0 0 0 .48.23.5a.44.44 0 0 0 0 .46 1.35 1.35 0 0 1 .21 1.23c-.17.71-.2 1.76 1.17 1.6s2.21.24 2.49 1c.2.6.32 1.29.61 2l3.44 1.3 4-1.3a34.15 34.15 0 0 1 -1.61-7 4.41 4.41 0 0 1 .8-2.68l-.86-3.88-3.55-2.17-2.5-1.32-3.58 1.45a6.35 6.35 0 0 0 -.62 4.11s.46.07.32.68-1.22 1.81-1.25 2.23z" fill="#fcd462"/><path d="m95.47 74.17s3.18-1.75 4.3-.87-.4 1.7-.32 2.7 1.61.81 2.42 2.23a2.74 2.74 0 0 1 .47 2.22l.53.13a4.7 4.7 0 0 1 1.37-2.58c1-.68 1.94.24 1.69 1.54s-.75 1.61-.75 1.61l.66.6a11.85 11.85 0 0 0 1-2.79c.36-1.6 1-3.35.34-4.84a4.93 4.93 0 0 0 -2.67-2.92 11.41 11.41 0 0 0 -4.29-1.39c-1.81-.22-2.84-.25-3.38.3s-3.11 1.75-1.37 4.06z" fill="#3a556a"/><path d="m104.78 91.34-1.46 2.22 1.46 17.97-2.21 3.71-2.11-3.84 1.73-17.95-1.36-2.71 1.84-.96z" fill="#e1e6e9"/><path d="m96.81 88.49 1.94-1.49s.81 1.67 3.83 2.61c3.34-1 3.75-2.8 3.75-2.8l2 2.08c0 .93-2.54 4.71-2.54 4.71l-3.19-3.25-3.2 3.25s-2.56-4.18-2.59-5.11z" fill="#ea6453"/></svg>