<?xml version="1.0"?>
<svg xmlns="http://www.w3.org/2000/svg" id="Layer_1" data-name="Layer 1" viewBox="0 0 150 150" width="512" height="512"><circle cx="75" cy="75" r="64" fill="#3a556a"/><path d="M91.8,87.26,76.82,75l15-12.26a7.08,7.08,0,0,0,2.58-5.46V37.36H55.62V57.28a7.08,7.08,0,0,0,2.58,5.46L73.18,75l-15,12.26a7.08,7.08,0,0,0-2.58,5.46v19.92H94.38V92.72A7.08,7.08,0,0,0,91.8,87.26Z" fill="#e1e6e9"/><path d="M88.37,87.26,76.45,75,88.37,62.74a7.9,7.9,0,0,0,2.06-5.46V37.36H59.57V57.28a7.9,7.9,0,0,0,2.06,5.46L73.55,75,61.63,87.26a7.9,7.9,0,0,0-2.06,5.46v19.92H90.43V92.72A7.9,7.9,0,0,0,88.37,87.26Z" fill="#ebf0f3"/><path d="M53.08,116.76H96.92a3.12,3.12,0,0,0,0-6.23H53.08a3.12,3.12,0,0,0,0,6.23Z" fill="#fcd462"/><path d="M96.92,33.24H53.08a3.12,3.12,0,0,0,0,6.23H96.92a3.12,3.12,0,0,0,0-6.23Z" fill="#fcd462"/><path d="M90.53,61.19a5,5,0,0,0,1.85-3.91v-5.8H57.62v5.8a5,5,0,0,0,1.85,3.91L74,73.09v28.3H57.62v9.25H92.38v-9.25H76V73.09Z" fill="#029bc5"/></svg>
