<svg id="Layer_1" height="512" viewBox="0 0 150 150" width="512" xmlns="http://www.w3.org/2000/svg" data-name="Layer 1"><circle cx="75" cy="75" fill="#709584" r="64"/><path d="m67 108.9v8.1a1.54 1.54 0 0 0 1.55 1.55h13a1.54 1.54 0 0 0 1.64-1.55v-8.1z" fill="#2f4859"/><path d="m64.62 101.4v10.6a2 2 0 0 0 2 2h17a2 2 0 0 0 2-2v-10.6z" fill="#3a556a"/><path d="m73.4 43.48a26.38 26.38 0 0 0 -16.91 45 21.24 21.24 0 0 1 6 12.82 2 2 0 0 0 2 1.77h21.28a2 2 0 0 0 2-1.77 22.74 22.74 0 0 1 6.36-13.15 26.39 26.39 0 0 0 -20.73-44.67z" fill="#ebf0f3"/><path d="m82.16 73.85h-1.58a3 3 0 0 0 -3 3v2.15h-4.92v-2.15a3 3 0 0 0 -3-3h-1.58a3 3 0 0 0 0 6h3.69v23.23h.89v-23.23h4.92v23.23h.88v-23.23h3.7a3 3 0 0 0 0-6zm-10.39 5.15h-3.69a2.12 2.12 0 1 1 0-4.23h1.57a2.12 2.12 0 0 1 2.12 2.12zm10.39 0h-3.7v-2.15a2.12 2.12 0 0 1 2.12-2.12h1.58a2.12 2.12 0 0 1 0 4.23z" fill="#d5d6db"/><g fill="#ebf0f3"><path d="m73.95 31.41h2.11v8.13h-2.11z"/><path d="m105.4 68.88h8.13v2.11h-8.13z"/><path d="m36.48 68.88h8.13v2.11h-8.13z"/><path d="m95.3 44.51h8.13v2.11h-8.13z" transform="matrix(.707 -.707 .707 .707 -3.11 83.61)"/><path d="m49.58 41.5h2.11v8.13h-2.11z" transform="matrix(.707 -.707 .707 .707 -17.39 49.17)"/><path d="m60.76 34.03h2.11v8.13h-2.11z" transform="matrix(.924 -.383 .383 .924 -9.87 26.55)"/><path d="m102.77 55.69h8.13v2.1h-8.13z" transform="matrix(.924 -.383 .383 .924 -13.58 45.22)"/><path d="m39.1 82.06h8.13v2.11h-8.13z" transform="matrix(.924 -.383 .383 .924 -28.52 22.84)"/><path d="m84.12 37.04h8.13v2.11h-8.13z" transform="matrix(.383 -.924 .924 .383 19.25 104.99)"/><path d="m105.78 79.05h2.11v8.13h-2.11z" transform="matrix(.383 -.924 .924 .383 -10.84 150.02)"/><path d="m42.11 52.68h2.1v8.13h-2.1z" transform="matrix(.383 -.924 .924 .383 -25.78 74.9)"/></g></svg>