<svg id="Layer_1" height="512" viewBox="0 0 150 150" width="512" xmlns="http://www.w3.org/2000/svg" data-name="Layer 1"><circle cx="75" cy="75" fill="#d5d6db" r="64"/><path d="m62.6 97.54-1.51-.06c0-.35 0-.7 0-1l1.51-.07c.09 0 .16-.13.15-.29s-.09-.27-.18-.27l-1.51.13c0-.35-.07-.69-.12-1l1.5-.26c.08 0 .14-.15.11-.3s-.12-.26-.21-.25l-1.48.32c-.07-.34-.15-.68-.24-1l1.46-.49c.09 0 .12-.17.08-.32s-.15-.24-.24-.21l-1.44.49c-.1-.33-.22-.66-.35-1l1.4-.61c.08 0 .1-.18 0-.32s-.18-.23-.26-.19l-1.37.67c-.15-.31-.3-.62-.47-.93l1.31-.78c.08-.05.08-.19 0-.33s-.2-.2-.28-.15l-1.28.84c-.19-.3-.38-.58-.59-.86l1.21-.94c.08-.06.06-.21 0-.33s-.23-.18-.3-.12l-1.18 1a10.27 10.27 0 0 0 -.7-.78l1.09-1.13c.07-.07 0-.21-.09-.32s-.26-.15-.32-.08c-.34.38-.69.75-1 1.13-.26-.24-.53-.47-.82-.69l.94-1.21c.06-.07 0-.21-.13-.31s-.28-.11-.34 0l-.95 1.25c-.3-.21-.61-.4-.93-.58l.77-1.33c0-.07 0-.2-.18-.28s-.31-.08-.35 0l-.72 1.36c-.34-.17-.69-.32-1-.46.19-.47.39-.94.59-1.41 0-.09-.07-.2-.24-.26s-.33 0-.36 0c-.17.48-.35 1-.52 1.43-.38-.12-.77-.23-1.17-.32.12-.49.25-1 .38-1.47 0-.09-.11-.2-.29-.23s-.35 0-.37.09c-.1.5-.21 1-.31 1.49a12.58 12.58 0 0 0 -1.3-.12l.16-1.51c0-.09-.15-.18-.35-.19h-.38c-.2 0-.36.1-.35.19l.15 1.51a12.75 12.75 0 0 0 -1.28.17c-.11-.5-.21-1-.31-1.49 0-.09-.19-.13-.37-.09s-.31.14-.29.23c.13.49.25 1 .38 1.47-.4.09-.79.2-1.17.32-.17-.48-.35-1-.52-1.43 0-.09-.2-.11-.36 0s-.27.17-.24.26l.59 1.41c-.36.14-.71.29-1 .46l-.72-1.36c0-.08-.2-.08-.35 0s-.23.21-.18.28l.77 1.33c-.32.18-.63.37-.93.58l-.89-1.25c-.06-.08-.21-.06-.34 0s-.19.24-.13.31c.31.4.62.81.94 1.21-.29.22-.56.45-.82.69-.35-.38-.7-.75-1-1.13-.07-.07-.21 0-.32.08s-.16.25-.09.32l1.09 1.08a10.27 10.27 0 0 0 -.7.78l-1.18-1c-.07-.06-.21 0-.3.12s-.12.27 0 .33l1.21.94c-.21.28-.4.56-.59.86l-1.28-.84c-.08 0-.21 0-.28.15s-.08.28 0 .33l1.31.78c-.17.31-.32.62-.47.93l-1.37-.67c-.08 0-.2 0-.26.19s0 .28 0 .32l1.4.61c-.13.32-.25.65-.35 1l-1.44-.49c-.09 0-.2.06-.24.21s0 .29.08.32l1.46.44c-.09.33-.17.67-.24 1l-1.48-.32c-.09 0-.19.09-.21.25s0 .29.11.3l1.5.26c0 .34-.09.68-.12 1l-1.51-.13c-.09 0-.17.12-.18.27s.06.29.15.29l1.51.07v1l-1.51.06c-.09 0-.16.13-.15.29s.09.27.18.27l1.4-.05c0 .35.07.69.12 1l-1.5.26c-.09 0-.14.15-.11.3s.12.26.21.24l1.48-.31c.07.34.14.68.23 1l-1.45.44c-.09 0-.13.17-.08.32s.15.24.23.21l1.44-.49c.11.33.22.66.35 1l-1.39.61c-.09 0-.11.18 0 .33s.18.22.26.18l1.37-.67c.14.32.3.62.47.93l-1.32.78c-.08 0-.08.19 0 .33s.21.2.28.15l1.29-.84a10.11 10.11 0 0 0 .58.87l-1.21.94c-.07.05-.06.2 0 .32s.23.18.3.12l1.18-1a10.27 10.27 0 0 0 .7.78c-.36.36-.73.72-1.09 1.09-.06.06 0 .2.09.32s.26.14.32.07c.35-.37.7-.75 1-1.13.26.24.54.47.82.69l-.94 1.22c-.06.07 0 .21.13.3s.28.11.34 0c.3-.42.59-.84.89-1.25.3.2.61.4.94.58l-.78 1.32c0 .08 0 .21.18.29s.31.07.35 0l.72-1.35c.34.17.69.32 1.05.46-.19.47-.39.94-.59 1.41 0 .08.07.2.24.26s.33 0 .36 0c.17-.48.35-1 .52-1.43.38.12.77.23 1.17.32-.13.49-.25 1-.38 1.47 0 .09.1.19.29.23s.35 0 .37-.1c.1-.49.2-1 .31-1.48.41.07.84.13 1.28.17l-.15 1.51c0 .09.14.18.35.19h.4c.2 0 .36-.1.35-.19l-.11-1.53c.44 0 .87-.1 1.28-.17.11.49.21 1 .31 1.48 0 .09.19.14.37.1s.31-.14.29-.23c-.13-.49-.25-1-.38-1.47.4-.09.79-.2 1.17-.32.17.47.35 1 .52 1.43 0 .08.2.11.36 0s.27-.18.24-.26c-.2-.47-.4-.94-.59-1.41.36-.14.71-.29 1-.46l.72 1.35c0 .08.2.09.35 0s.23-.21.18-.29l-.78-1.32c.33-.18.64-.38.94-.58.3.41.59.83.89 1.25 0 .07.21.06.34 0s.19-.23.13-.3l-.94-1.22c.28-.22.56-.45.82-.69.34.38.69.76 1 1.13.06.07.21 0 .32-.07s.15-.26.09-.32l-1.09-1.09a10.27 10.27 0 0 0 .7-.78l1.17 1c.07.06.21 0 .31-.12s.11-.27 0-.32l-1.21-.94c.2-.28.4-.57.58-.87l1.29.84c.07.05.2 0 .28-.15s.08-.28 0-.33l-1.32-.78c.17-.31.33-.61.47-.93l1.37.67c.08 0 .2 0 .26-.18s0-.29 0-.33l-1.4-.61c.13-.32.25-.65.35-1l1.44.49c.09 0 .2-.06.24-.21s0-.29-.08-.32l-1.46-.44c.1-.33.17-.67.24-1l1.48.31c.09 0 .19-.09.21-.24s0-.29-.11-.3l-1.41-.24c.05-.34.09-.68.12-1l1.51.13c.09 0 .17-.12.18-.27s-.06-.32-.15-.32zm-13 11.21c-14.64-1-14.64-22.61 0-23.58 14.64.97 14.64 22.61 0 23.58z" fill="#2f4859"/><rect fill="#2f4859" height="64.16" rx="3.91" width="67.98" x="45.57" y="39.06"/><path d="m74.46 47.4h31.43v13.51h-31.43z" fill="#27a2db"/><g fill="#64798a"><rect height="5.99" rx="1.12" width="5.99" x="74.46" y="64.3"/><rect height="5.99" rx="1.12" width="5.99" x="83.07" y="64.3"/><rect height="5.99" rx="1.12" width="5.99" x="91.68" y="64.3"/><rect height="5.99" rx="1.12" width="5.99" x="100.3" y="64.3"/><rect height="5.99" rx="1.12" width="5.99" x="74.46" y="72.79"/><rect height="5.99" rx="1.12" width="5.99" x="83.07" y="72.79"/><rect height="5.99" rx="1.12" width="5.99" x="91.68" y="72.79"/><rect height="5.99" rx="1.12" width="5.99" x="100.3" y="72.79"/><rect height="5.99" rx="1.12" width="5.99" x="74.46" y="81.28"/><rect height="5.99" rx="1.12" width="5.99" x="83.07" y="81.28"/><rect height="5.99" rx="1.12" width="5.99" x="91.68" y="81.28"/><rect height="5.99" rx="1.12" width="5.99" x="100.3" y="81.28"/><rect height="5.99" rx="1.12" width="5.99" x="74.46" y="89.77"/><rect height="5.99" rx="1.12" width="5.99" x="83.07" y="89.77"/><rect height="5.99" rx="1.12" width="5.99" x="91.68" y="89.77"/><rect height="5.99" rx="1.12" width="5.99" x="100.3" y="89.77"/></g><path d="m67.4 44.93v52.42a2.48 2.48 0 0 1 -2.49 2.48h-12.51a2.48 2.48 0 0 1 -2.49-2.48v-52.42a2.48 2.48 0 0 1 2.49-2.49h12.51a2.48 2.48 0 0 1 2.49 2.49z" fill="#3a556a"/><path d="m63.51 71.14c0 9.72 1.54 18.28 3.89 23.2v-46.41c-2.35 4.93-3.89 13.48-3.89 23.21z" fill="#344d5e"/><path d="m49.91 94.34c2.34-4.92 3.89-13.48 3.89-23.2s-1.55-18.28-3.89-23.21z" fill="#344d5e"/></svg>