<svg id="Layer_1" height="512" viewBox="0 0 150 150" width="512" xmlns="http://www.w3.org/2000/svg" data-name="Layer 1"><circle cx="75" cy="75" fill="#fe7058" r="64"/><path d="m112 81.13a4.69 4.69 0 0 0 -4.69-4.7h-4.65a4.69 4.69 0 1 0 0-9.38h-15c1.76-1.49 8.31-8.78 9.18-15.28.37-2.77 1.08-8.92-5.85-8.4-2.31.17-3.32 3.12-4.5 5.12a29.3 29.3 0 0 1 -3 4.39l-6.9 7-10 7.58a29.06 29.06 0 0 1 -3.15 1l-13.92 3.83v32.29h49.53a4.69 4.69 0 0 0 0-9.38h3.59a4.69 4.69 0 0 0 0-9.38h4.65a4.69 4.69 0 0 0 4.71-4.69z" fill="#fcd462"/><path d="m38.02 67.11h23v39.55h-23z" fill="#3a556a"/><path d="m48.6 97.69a2.64 2.64 0 1 0 2.65 2.64 2.64 2.64 0 0 0 -2.65-2.64z" fill="#64798a"/></svg>