<svg id="Layer_1" height="512" viewBox="0 0 150 150" width="512" xmlns="http://www.w3.org/2000/svg" data-name="Layer 1"><circle cx="75" cy="75" fill="#3a556a" r="64"/><path d="m110 87.54c.1-2.34.19-4.67.37-7a2.21 2.21 0 0 1 .73-1.53 62.53 62.53 0 0 0 -1.1-8.44 33.62 33.62 0 0 0 -5.51-11.47c-3-4.29-10.26-7.36-11.71-12.54-.28-.14-.55-.3-.83-.43a35.22 35.22 0 1 0 18.14 43.19c.07-.22.13-.45.2-.67a2.07 2.07 0 0 1 -.29-1.11z" fill="#ebf0f3"/><path d="m99.93 88.16a.61.61 0 0 0 -.33-.26 3 3 0 0 0 -.5-.17c-.15 0-.22-.07-.36 0a2.08 2.08 0 0 1 -.34.24.33.33 0 0 1 -.3-.06c-.16-.1-.11-.18-.17-.3s-.3-.23-.45-.33a1.05 1.05 0 0 1 -.27-.2.77.77 0 0 0 -.4 0h-1.41a2.58 2.58 0 0 1 -.68 0 1.75 1.75 0 0 1 -.59-.46 1.51 1.51 0 0 0 -.26-.18 2.1 2.1 0 0 1 -.41-.24.58.58 0 0 1 -.11-.51 2.51 2.51 0 0 0 -.06-.82c-.05-.16-.13-.43-.3-.45a2.46 2.46 0 0 0 -.47 0h-.37a1.07 1.07 0 0 1 -.4 0c-.32-.12-.46-.56-.61-.83s-.16-.4-.3-.47-.22 0-.31 0a7.85 7.85 0 0 0 -1 0 .54.54 0 0 1 -.49-.09l-.19-.22a.72.72 0 0 1 -.24-.28l-.09-.25a1.66 1.66 0 0 0 -.22-.3 1.17 1.17 0 0 0 -.51-.4 4.63 4.63 0 0 0 -1.23 0c-.23 0-.67.07-.86 0s-.18-.35-.37-.39a1.3 1.3 0 0 0 -.72.19c-.27.1-.54 0-.81 0a1.39 1.39 0 0 1 -.69-.15c-.19-.1-.32-.25-.55-.26s-.63 0-1 0h-.33a1.61 1.61 0 0 0 -.62 0c-.1 0-.18.13-.27.17h-.15c-.11.06-.15.19-.27.23a1.32 1.32 0 0 0 -.41.17c-.21.15-.25.37-.52.43a2.3 2.3 0 0 0 -.28.06c-.1 0-.16.11-.27.13a2.91 2.91 0 0 1 -.42 0 2 2 0 0 1 -.35 0c-.26-.09-.46-.35-.71-.47s-.35-.21-.54-.32a1.59 1.59 0 0 0 -.5-.29h-.27a.89.89 0 0 1 -.39-.19 6 6 0 0 0 -.69-.42c-.2-.09-.41-.17-.49-.41s-.1-.38-.16-.57a1.52 1.52 0 0 1 -.16-.4 1.41 1.41 0 0 1 0-.41c0-.28.69-.65.1-.75a4.34 4.34 0 0 0 -.51 0 1.06 1.06 0 0 0 -.35.07c-.23.1-.43.29-.67.37a2 2 0 0 1 -.6 0 .8.8 0 0 1 -.38-.06.55.55 0 0 1 -.35-.56 1 1 0 0 1 .19-.85 2.6 2.6 0 0 1 .52-.47c.21-.17.4-.36.61-.53s.25-.17.25-.36a.67.67 0 0 0 -.14-.58c-.17-.18-.38-.12-.61-.12s-.72-.08-1 .12a.39.39 0 0 0 -.16.29 1.06 1.06 0 0 1 -.18.37 5.86 5.86 0 0 1 -.26.57c-.18.23-.24.35-.53.38s-.42 0-.63 0a2.12 2.12 0 0 1 -.71 0 2.3 2.3 0 0 1 -.68-.43 1.24 1.24 0 0 1 -.39-.69c0-.4 0-.79 0-1.19a9 9 0 0 1 0-1 2.58 2.58 0 0 0 0-.39.69.69 0 0 1 0-.32 1.45 1.45 0 0 1 .72-.55 1.17 1.17 0 0 1 .51-.19h.52a2.64 2.64 0 0 0 .79-.27h.19l.22-.12a1.94 1.94 0 0 1 .68 0c.36 0 .75-.41 1-.64a3.57 3.57 0 0 1 .54-.42 2.41 2.41 0 0 0 .65-.3c.17-.16.25-.24.49-.23s.21.07.28.21 0 .29.09.41.15.12.22.19.12.64.27.9c.07.11.18.19.26.3l.2.2a1.06 1.06 0 0 0 .47 0h.52a2.57 2.57 0 0 0 .48 0c.28 0 .32-.4.45-.61a.85.85 0 0 0 .17-.54c0-.2 0-.4 0-.6a.53.53 0 0 0 -.16-.48 1.55 1.55 0 0 1 -.35-.57.56.56 0 0 1 .34-.52.52.52 0 0 0 .36-.13 1.23 1.23 0 0 0 .26-.37c.12-.23.29-.44.43-.66s.2-.38.4-.45.54 0 .75-.27a2.9 2.9 0 0 0 .36-.7c.06-.24 0-.49.08-.73s.07 0 .09-.16v-.35a.66.66 0 0 1 .29-.47c.36-.19.78.07 1.12-.19l.16-.12a.26.26 0 0 0 .16-.19.93.93 0 0 0 0-.44v-.38c0-.17 0-.35 0-.52s-.14-.38.08-.45a2 2 0 0 1 .65 0 1.42 1.42 0 0 1 .41 0 3.86 3.86 0 0 0 1.48.1l.28-.26a.38.38 0 0 0 .13-.23.61.61 0 0 0 0-.46 1.22 1.22 0 0 0 -.8-.57c-.29 0-.58 0-.87 0a1.13 1.13 0 0 1 -.65-.26c-.34-.28-.31-.7-.34-1.11 0-.19 0-.33.14-.47a1.46 1.46 0 0 1 1-.2 1.9 1.9 0 0 1 .63 0l.2.17h.14c.22.08.26.24.25.45a4.61 4.61 0 0 0 0 .91c.06.39.58.71.94.79a1.06 1.06 0 0 0 .56 0 1.66 1.66 0 0 0 .57-.49c.13-.14.1-.2.15-.36a1.3 1.3 0 0 0 .09-.52c0-.19-.24-.36-.4-.48l-.26-.14c-.17 0-.32 0-.48-.08s-.27-.3-.45-.4-.31-.09-.31-.28.24-.51.34-.62.19-.19.19-.34a.54.54 0 0 0 -.17-.39 1.06 1.06 0 0 0 -.47-.13 3.4 3.4 0 0 0 -.46-.08c-.24 0-.48 0-.72 0s-.34 0-.44 0 0-.27-.06-.4a2.64 2.64 0 0 0 0-.29v-.26a1.12 1.12 0 0 0 -.3-.27 9.21 9.21 0 0 1 -.92-.73c-.18-.19-.29-.38-.58-.38a.63.63 0 0 0 -.52.27c-.11.17-.11.43-.34.46a4 4 0 0 1 -.6 0c-.32 0-.25-.32-.25-.56a.75.75 0 0 1 .23-.61 1 1 0 0 1 .24-.21.83.83 0 0 1 .44 0c.26 0 .21-.18.21-.39v-.56a.86.86 0 0 0 -.38-.68c-.24-.19-.61-.11-.9-.11a1.29 1.29 0 0 1 -.44 0 1.64 1.64 0 0 1 -.4-.29 1.36 1.36 0 0 1 -.42-.44c-.08-.17-.14-.35-.23-.51a2.08 2.08 0 0 1 -.19-.29 1.59 1.59 0 0 0 -.08-.35c-.16-.29-.53-.19-.81-.19 0-.33.42-.34.61-.43a1.73 1.73 0 0 1 .46-.21 3.38 3.38 0 0 1 .55 0 3.5 3.5 0 0 1 1 .09.78.78 0 0 1 .4.3c.17.19.28.56.54.63a1.47 1.47 0 0 1 .29.05.7.7 0 0 1 .28.19 9.29 9.29 0 0 0 .83.83c.24.19.49 0 .73.2a2.25 2.25 0 0 1 .3.39c.1.14.14.32.24.45s.08.1.2.15a2.44 2.44 0 0 1 .8.48 1.4 1.4 0 0 1 .22.32c.07.12 0 .18.08.29a1 1 0 0 0 .72.47 1 1 0 0 1 .34.07c.11.06.15.15.31.09a.52.52 0 0 0 .28-.3v-.16a.54.54 0 0 1 .09-.25v-.14l-.11-.15a1 1 0 0 0 -.34-.25 1.5 1.5 0 0 1 -.32-.09c-.12-.08-.2-.26-.29-.36.21-.26.52-.27.8-.42a.68.68 0 0 0 .3-.46 3.39 3.39 0 0 0 0-.9c0-.27 0-.53 0-.79s.09-.41-.08-.59a2.37 2.37 0 0 0 -.9-.6l-.19-.09-.19-.16c-.16-.09-.35 0-.52-.08a1 1 0 0 0 -.4-.08 1.59 1.59 0 0 1 -1-.47 1.45 1.45 0 0 0 -1.1-.29h-1.15c-.35 0-.71 0-1.06 0s-.63.16-1 .17-.62 0-.92 0a1.58 1.58 0 0 0 -.77.27 1 1 0 0 1 -.54.1h-.32a1.94 1.94 0 0 0 -1 .54l-.31.21-.61.27-.26.17a2.35 2.35 0 0 0 -.36.64 1.54 1.54 0 0 0 -.27.82v.22l-.16.14a1.34 1.34 0 0 1 -.87.16c-.22-.11-.14-.76-.09-1 .34-.1.64.07.86-.31a.36.36 0 0 0 .06-.37 1.2 1.2 0 0 0 -.52-.4c-.21-.12-.45-.14-.67-.24s-.19-.13-.3-.18a1.38 1.38 0 0 0 -.72.05 1.4 1.4 0 0 0 -.52.42 2.37 2.37 0 0 0 -.32.46c0 .11 0 .32-.11.41a.5.5 0 0 1 -.36.11 1.85 1.85 0 0 0 -.6.13l-.23.09-.19-.11a.52.52 0 0 0 -.22-.17h-.39-.81a1.09 1.09 0 0 1 -.59-.1 3.14 3.14 0 0 1 -.55-.6 3.21 3.21 0 0 1 -.48-.62 1.61 1.61 0 0 1 .02-.91v-.26c0-.14.05-.19.16-.29a1.52 1.52 0 0 1 1.15-.28h1.32a1.42 1.42 0 0 1 .58.06 2.43 2.43 0 0 0 .7.15h.7a1.42 1.42 0 0 0 .52-.13c.34-.11.7-.07 1.06-.16s.61-.32.94-.39a3.82 3.82 0 0 0 .48-.15 3.83 3.83 0 0 1 1.22-.1 1 1 0 0 0 .42 0 2 2 0 0 0 .33-.18l.19-.23c.13-.13.44-.07.61-.07h.28c.21 0 .33-.26.47-.4s.16-.43.16-.69 0-.69-.19-.85h-.13l-.21-.1c-.16-.11-.28-.07-.48-.07h-1.28a5.21 5.21 0 0 0 -1.51.31 8.12 8.12 0 0 1 -2 .1h-1.73a2.76 2.76 0 0 0 -.76.07 3.9 3.9 0 0 0 -1 .4 5.94 5.94 0 0 1 -.84.41 2.47 2.47 0 0 1 -.38 0c-.17 0-.28.17-.44.21a1.16 1.16 0 0 0 -.43.12c-.18.11-.35.28-.53.41a2.75 2.75 0 0 0 -.26.22c-.08.1-.11.22-.19.32a2.64 2.64 0 0 1 -.36.39 2.85 2.85 0 0 1 -.63.38l-.42.17a5 5 0 0 1 -.61.31h-.25a1.6 1.6 0 0 0 -.31.1c-.21.07-.41 0-.61.07s-.2.1-.32.12h-.2a2.25 2.25 0 0 0 -.64.07 4.33 4.33 0 0 0 -.69.41 3.59 3.59 0 0 0 -.47.27c-.23.17-.42.38-.65.54a2 2 0 0 0 -.51.4l-.12.16-.22.17a.81.81 0 0 0 -.11.53c0 .15 0 .31.11.36h.69a.74.74 0 0 1 .39.12c.3.15.09.43-.11.53l-.71.34a8.41 8.41 0 0 0 -.82.35 1 1 0 0 1 -.34.15.39.39 0 0 0 -.33.17c-.29.47.26.84.67.89a6.2 6.2 0 0 0 .86 0 2.72 2.72 0 0 0 1.53-.8 1.08 1.08 0 0 1 .7-.17c.22 0 .57-.08.71.13a1 1 0 0 1 0 .89c-.08.14-.21.23-.3.37a.54.54 0 0 0 -.08.35.83.83 0 0 1 -.23.57c-.12.15-.33.28-.39.47a2.91 2.91 0 0 0 0 .66 4.52 4.52 0 0 0 .15.61 4.82 4.82 0 0 1 0 .54v.61s-.14.41-.15.62a1.52 1.52 0 0 1 -.07.52 5.52 5.52 0 0 1 -.28.54 5.17 5.17 0 0 1 -.33.72 2.57 2.57 0 0 1 -.44.49c-.15.14-.34.2-.49.34s-.39.44-.58.65-.15.69-.16 1a1.69 1.69 0 0 0 0 .55l.08.19a1 1 0 0 1 .13.47 4.07 4.07 0 0 0 .17 1.1 2.1 2.1 0 0 0 .38.52c.23.26.5.49.48.87a2.19 2.19 0 0 1 -.17.62.49.49 0 0 1 -.13.18c-.18.16-.18.21-.17.46s0 .62 0 .92a.89.89 0 0 0 .1.48.92.92 0 0 1 .09.23c0 .18.14.18.27.31a1.25 1.25 0 0 1 .21.3c.11.16.3.28.38.45s0 .24.08.37a2.12 2.12 0 0 0 .33.41 1.79 1.79 0 0 1 .27.28v.08a.87.87 0 0 0 .37.34.84.84 0 0 0 .44 0c.11 0 .18 0 .24.07l.1.26c0 .09 0 .17.07.26l.23.16.12.19c.1.14.07.14.27.14a1.11 1.11 0 0 1 .6.07c.17.12.08.34.11.5a2 2 0 0 1 0 .65 3.1 3.1 0 0 0 0 .81v.5a2.79 2.79 0 0 0 .1.39 2.07 2.07 0 0 0 .37.47c.14.18.2.13.39.21s.18.15.28.22.25.07.38.16.3.28.46.4a2.38 2.38 0 0 0 .49.34c.1.05.22.07.32.12a3.55 3.55 0 0 1 .5.21 2.56 2.56 0 0 1 .3.28 3.68 3.68 0 0 0 .51.37 2.2 2.2 0 0 1 .32.21 1.9 1.9 0 0 0 .29.28 2.65 2.65 0 0 0 .37.12 1.48 1.48 0 0 0 .41.12h.37a3.87 3.87 0 0 0 .68 0 1.55 1.55 0 0 1 .74 0c.12 0 .3.07.37.17a3.69 3.69 0 0 1 .11.45c.1.29.41.49.58.73s.13.2.31.21h.21a1.46 1.46 0 0 0 .72-.06c.08 0 .13-.14.23-.16s.25.18.37.28a.39.39 0 0 0 .36.09.49.49 0 0 1 .4.17.59.59 0 0 1 .2.35c0 .18.13.22.3.25s.75-.16.81.28a.69.69 0 0 0 .55.64 1.82 1.82 0 0 0 .33 0 1.26 1.26 0 0 1 .47.12 2.54 2.54 0 0 1 .46.17 4.33 4.33 0 0 0 .41.3 1.12 1.12 0 0 0 .53.18h.82.36a.9.9 0 0 1 .61.16 18.23 18.23 0 0 1 -1.66 3.19.29.29 0 0 0 -.28-.13l-.22.17c-.1.07-.2.16-.31.23s-.28.12-.36.29a1 1 0 0 0 -.08.5v1.06a1.15 1.15 0 0 1 -.07.49 1 1 0 0 0 -.13.3 1.09 1.09 0 0 1 -.19.33.9.9 0 0 0 -.29.58v.39a1.69 1.69 0 0 0 .06.81 3.26 3.26 0 0 0 .51.54c.11.1.23.18.35.28s.27.18.4.29.34.34.52.5.32.19.45.33a2.91 2.91 0 0 0 .33.37 1 1 0 0 1 .27.19.17.17 0 0 1 .07.21.27.27 0 0 0 .09.28c.18.26.38.51.54.79a2 2 0 0 0 .43.59 4.67 4.67 0 0 1 .44.45c.13.14.29.38.48.45h.16l.3.16a1.77 1.77 0 0 1 .5.41.7.7 0 0 1 .18.51v.71a2.24 2.24 0 0 1 0 .58 2.19 2.19 0 0 1 -.31.61l-.21.39-.22.24a13.52 13.52 0 0 0 -.81 1.13v.2a3.86 3.86 0 0 1 -.17.55 2.49 2.49 0 0 0 -.2.58.69.69 0 0 1 -.11.43c-.18.28-.14.65-.31.93a4.53 4.53 0 0 0 -.27.48 4.32 4.32 0 0 0 -.37 1.1v.41s-.11.18-.12.3v.25c0 .16-.16.28-.23.42s-.1.33-.16.49a4.11 4.11 0 0 0 -.21.42v.14a2 2 0 0 1 -.25.51 3 3 0 0 0 0 1v.38a3.09 3.09 0 0 0 0 .43v.22l-.07.11a1.78 1.78 0 0 0 0 .65 4.45 4.45 0 0 0 0 .73.38.38 0 0 0 .26.32 2.14 2.14 0 0 0 .54.23 1.87 1.87 0 0 0 .62-.06 1.16 1.16 0 0 1 .32-.08.75.75 0 0 0 .39-.06 4 4 0 0 0 .5-.34 1 1 0 0 0 .34-.53c.06-.13.13-.27.2-.4a1.08 1.08 0 0 0 .2-.4.79.79 0 0 1 .3-.62l-1 .66c0-.16.3-.27.41-.38s.19-.26.29-.37.26-.12.37-.23a.54.54 0 0 0 .11-.37.38.38 0 0 1 .06-.31l.13-.14.09-.23c0-.2.09-.23.31-.27s.24 0 .31-.13 0-.22.18-.23.26.05.4 0c.3-.22.16-.66.54-.8a1.35 1.35 0 0 1 .49 0 1.41 1.41 0 0 0 .41 0 .27.27 0 0 0 .17-.2.43.43 0 0 1 .22-.2 1.94 1.94 0 0 0 .65-.9c.3 0 .34.41.68.4s.3-.21.35-.42 0-.52.16-.63.65.44.86 0c.08-.15 0-.41 0-.58a1.57 1.57 0 0 1 .07-.68c.1 0 .09 0 .15-.09.24-.24.15-.29.57-.09l.48.32.32.21c.19 0 .26-.09.34-.23s.16-.23.24-.35l.09-.22.18-.13a.66.66 0 0 0 .27-.46.74.74 0 0 1 .21-.41c.14-.14.24-.32.39-.45a1.46 1.46 0 0 1 .58-.22c.26-.07.3-.35.35-.59a1.49 1.49 0 0 1 .07-.43l.12-.24a.44.44 0 0 1 .41-.35.67.67 0 0 0 .41-.2 1.31 1.31 0 0 0 .23-.24 3.05 3.05 0 0 1 .28-.5c.11-.12.27-.18.39-.3s.27-.21.4-.33.22-.24.33-.35a.9.9 0 0 1 .72-.22 1.48 1.48 0 0 0 .89-.33 4.3 4.3 0 0 1 .52-.27c.14-.08.16-.16.24-.29s.17-.23.22-.35a4.31 4.31 0 0 0 .11-.49 1.37 1.37 0 0 0 0-.35c0-.25.14-.32.25-.54a.59.59 0 0 0 .08-.34 1.41 1.41 0 0 1 0-.41 1.39 1.39 0 0 1 .32-.48 1.45 1.45 0 0 0 .17-.26 2.44 2.44 0 0 1 .22-.31.86.86 0 0 0 .1-.41c0-.1 0-.21 0-.31a.81.81 0 0 1 .25-.36 3.79 3.79 0 0 0 .42-.38c.08-.11 0-.17 0-.29a.84.84 0 0 1 .19-.68 1.83 1.83 0 0 1 .44-.29 2.22 2.22 0 0 0 .37-.38c.15-.19.32-.36.46-.55l.14-.17a1.22 1.22 0 0 0 .08-.5c0-.38 0-.76 0-1.13a1.13 1.13 0 0 0 -.12-.61z" fill="#27a2db"/><path d="m91.94 46.13c0 .2.07.4.1.54a4.34 4.34 0 0 1 .07 1c0 .52-.2 1.43.18 1.86s1.32.07 1.76.63a9.46 9.46 0 0 1 .49 1.15 2.77 2.77 0 0 0 .72.93 2.58 2.58 0 0 1 .49.69c.27.44.43.35.87.52a1.34 1.34 0 0 1 1.07 1.26c.06.62.34 1.49 1 1.6s1.32-.12 1.94 0a1.15 1.15 0 0 1 .63.29c.24.3 0 .43 0 .77s.35.57.5.88.09.86.28 1.31a5.36 5.36 0 0 0 1.33 1.88 6.5 6.5 0 0 1 1.63 1.85 3.56 3.56 0 0 1 -.06 2.14 3 3 0 0 1 -.22.78c-.2.41-.94.77-.94 1.24a3.18 3.18 0 0 0 .75 1.35c.43.49 1.12.79 1.34 1.45a7.45 7.45 0 0 1 .08.94 3.24 3.24 0 0 0 1.29 1.72 3.38 3.38 0 0 1 .74.67 2.72 2.72 0 0 1 .08 1.36 10.34 10.34 0 0 0 -.06 1.66c.14.67.82.67 1 1.35a6.77 6.77 0 0 1 0 1.8c0 1.09-.17 2.13-.17 3.22a17.45 17.45 0 0 0 .11 3.47 6.9 6.9 0 0 0 1 2.75l.11.13a35.26 35.26 0 0 0 -18.11-43.19z" fill="#27a2db"/><path d="m114.54 36.37h-25.43v15.57h3.92v7.48l3.55-7.48h17.96z" fill="#fe7058"/><path d="m100.44 42.84h2.48v2.51h-2.48z" fill="#f7be56"/><path d="m105.73 45.77a2.5 2.5 0 0 0 -1.15-.84l-1.19-.39-.47-.15-.25-.09-1 1.05-1-1.05-.26.09-.47.15-1.18.39a2.42 2.42 0 0 0 -1.07.73 2.5 2.5 0 0 0 -.59 1.64v2.21h9.1v-2.21a2.48 2.48 0 0 0 -.47-1.53z" fill="#e1e6e9"/><path d="m102.3 45.89-.3-.53h-.62l-.31.53.08.14.22.38-.2 3.1a9 9 0 0 0 1 0l-.17-3.11.21-.36z" fill="#3a556a"/><path d="m102.93 43.9-1.25 1.45.79 1 .92-1.81z" fill="#ebf0f3"/><path d="m100.44 43.9 1.24 1.45-.78 1-.92-1.81z" fill="#ebf0f3"/><path d="m103.68 41.1c-.15 0-.32.25-.38.62s0 .68.16.7.32-.25.38-.61-.01-.68-.16-.71z" fill="#f7be56"/><path d="m99.68 41.1c.15 0 .32.25.39.62s0 .68-.17.7-.32-.25-.38-.61.01-.68.16-.71z" fill="#f7be56"/><path d="m103.5 41.56c0 1.51-.81 2.74-1.82 2.74s-1.81-1.23-1.81-2.74.52-2.9 1.81-2.9 1.82 1.34 1.82 2.9z" fill="#fcd462"/><path d="m103.64 39.72c-.08-1.37-2-1.43-2-1.43s-1.88.06-2 1.43a8.85 8.85 0 0 0 .16 2.36h.06a10.47 10.47 0 0 0 .13-1.51c0-.65.18-.68.18-.68.6.35 1.46-.64 1.46-.64s.8 1 1.4.64c0 0 .19 0 .18.68a12.34 12.34 0 0 0 .13 1.51h.06a8.37 8.37 0 0 0 .24-2.36z" fill="#3a556a"/><path d="m35.46 113.63h25.43v-15.57h-3.92v-7.48l-3.55 7.48h-17.96z" fill="#fe7058"/><path d="m45.92 104.93h2.65v2.69h-2.65z" fill="#f7be56"/><path d="m51.57 108.06a2.66 2.66 0 0 0 -1.23-.9l-1.27-.42-.5-.16-.27-.09-1 1.11-1.06-1.11-.27.09-.5.16-1.27.42a2.64 2.64 0 0 0 -1.14.77 2.7 2.7 0 0 0 -.63 1.76v2.36h9.67v-2.36a2.63 2.63 0 0 0 -.53-1.63z" fill="#e1e6e9"/><path d="m47.91 108.18-.33-.56h-.66l-.33.56.09.15.23.4-.22 3.32a10.46 10.46 0 0 0 1.12 0l-.22-3.32.23-.39z" fill="#3a556a"/><path d="m48.58 106.06-1.34 1.54.85 1.08.98-1.94z" fill="#ebf0f3"/><path d="m45.91 106.06 1.33 1.54-.84 1.08-.98-1.94z" fill="#ebf0f3"/><path d="m49.38 103.07c-.16 0-.34.26-.41.65s0 .73.17.76.35-.27.41-.66-.01-.73-.17-.75z" fill="#f7be56"/><path d="m45.11 103.07c.16 0 .34.26.41.65s0 .73-.18.76-.34-.27-.41-.66.07-.73.18-.75z" fill="#f7be56"/><path d="m49.19 103.55c0 1.62-.87 2.94-1.94 2.94s-2-1.32-2-2.94.57-3.1 2-3.1 1.94 1.48 1.94 3.1z" fill="#fcd462"/><path d="m49.34 101.59c-.09-1.46-2.1-1.53-2.1-1.53s-2 .07-2.09 1.53a9.26 9.26 0 0 0 .17 2.52h.07a11.94 11.94 0 0 0 .13-1.61c0-.7.2-.74.2-.74a2.9 2.9 0 0 0 1.52.32 2.93 2.93 0 0 0 1.53-.32s.21 0 .2.74a11.94 11.94 0 0 0 .13 1.61h.06a9 9 0 0 0 .18-2.52z" fill="#3a556a"/></svg>