<svg id="Layer_1" height="512" viewBox="0 0 150 150" width="512" xmlns="http://www.w3.org/2000/svg" data-name="Layer 1"><circle cx="75" cy="75" fill="#d5d6db" r="64"/><rect fill="#3a556a" height="83.29" rx="5.38" width="52.68" x="48.66" y="33.35"/><path d="m51.67 43.43h46.66v63.13h-46.66z" fill="#27a2db"/><path d="m69.67 38.07h10.67v1.36h-10.67z" fill="#2f4859"/><rect fill="#2f4859" height="3.98" rx=".72" width="3.98" x="73.01" y="109.12"/><path d="m61.66 88.15h26.69v2.73h-26.69z" fill="#2d93ba"/><path d="m61.66 94.69h26.69v2.73h-26.69z" fill="#2d93ba"/><path d="m75 54a13.33 13.33 0 0 0 -10.4 21.7 13.43 13.43 0 0 0 9.4 4.9q.49 0 1 0t1 0a13.34 13.34 0 0 0 -1-26.6z" fill="#89c5cd"/><path d="m85.4 75.64a13.34 13.34 0 0 1 -9.41 5q-.49 0-1 0t-1 0a13.43 13.43 0 0 1 -9.41-4.93 7 7 0 0 1 .58-1.81c1-1.92 4.27-2.75 5.83-3.06h.11a3.06 3.06 0 0 1 .36-.05h.12.05.22.37.21.44.63l1.48.65 1.48-.65h.64.44.18.39.2.12l.59.11c1.6.3 4.75 1.15 5.74 3a7.21 7.21 0 0 1 .64 1.74z" fill="#e1e6e9"/><path d="m72.88 67.63h4.23v3.56h-4.23z" fill="#f7be56"/><g fill="#fcd462"><path d="m70.46 62.8c.34 0 .71.47.82 1.16s-.07 1.3-.41 1.36-.7-.47-.81-1.16.07-1.3.4-1.36z"/><path d="m79.54 62.8c-.34 0-.71.47-.82 1.16s.07 1.3.41 1.36.7-.47.81-1.16-.07-1.3-.4-1.36z"/><path d="m75 57.28c-2.39 0-4.33 2.7-4.33 6s1.94 6 4.33 6 4.33-2.7 4.33-6-1.94-6-4.33-6z"/></g><path d="m76.32 72.66-.82 1.16.5 6.78q-.49 0-1 0t-1 0l.49-6.78-.9-1.27-.29-.4 1.69-1 1.69 1z" fill="#3a556a"/><path d="m77.12 69.49-2.12 1.7 1.79 1.98 1.35-2.52z" fill="#ebf0f3"/><path d="m72.88 69.49 2.12 1.7-1.99 1.93-1.14-2.47z" fill="#ebf0f3"/><path d="m71 64.73a8.62 8.62 0 0 1 0-1.93 24.87 24.87 0 0 1 .41-2.54s2.06 1.71 5.41-.11c0 0 1.74.63 1.7 1.89s.5.84.44 2.69h.36c.25-1.25.79-4.77.15-6.3a1.76 1.76 0 0 0 -2.47-1.1s-.39-1.13-2.42-1.24a4.5 4.5 0 0 0 -4.48 4.21 16.48 16.48 0 0 0 .49 4.43z" fill="#3a556a"/></svg>