<svg id="Layer_1" height="512" viewBox="0 0 150 150" width="512" xmlns="http://www.w3.org/2000/svg" data-name="Layer 1"><circle cx="75" cy="75" fill="#2f4859" r="64"/><path d="m113.69 105.76h-77.38l9.08-40.52h59.22z" fill="#ebf0f3"/><path d="m107.56 102.01-3.01-15.63h-2.41l-2.99-16.9h-49.42l-6.02 32.53z" fill="#44c4a1"/><path d="m90.68 67.25 1.77 15.18h-28.68l-.73 9.66h44.47l-5.08-24.84z" fill="#d5d6db"/><path d="m62.26 102.43h47.36l-1.81-8.89h-44.88z" fill="#44c4a1"/><path d="m72.68 79.94h16.6l-1.24-12.69h-40.47l-1.31 6.44h26.52z" fill="#44c4a1"/><path d="m71.24 79.94.13-5.12h-25.35l-5.64 27.61h18.56l2.13-22.49z" fill="#d5d6db"/><g fill="#3a556a"><path d="m62.93 93.54h44.88l-.3-1.45h-44.47z"/><path d="m71.24 79.94h1.44l.1-6.25h-26.52l-.24 1.13h25.35z"/><path d="m88.04 67.25 1.24 12.69h-16.6l-.02 1.24h-1.45l.03-1.24h-10.17l-2.13 22.49h3.32l.67-8.89.11-1.45.73-9.66h28.68l-1.77-15.18z"/></g><path d="m71.21 81.18h1.45l.02-1.24h-1.44z" fill="#64798a"/><path d="m75.69 44.24a13.06 13.06 0 0 0 -13 13c0 6.17 9.55 24.25 12.31 29.35a.85.85 0 0 0 1.48 0c2.77-5.1 12.32-23.18 12.32-29.35a13.06 13.06 0 0 0 -13.11-13z" fill="#fe7058"/><circle cx="75.69" cy="57.13" fill="#fff" r="8.98"/></svg>