<svg id="Layer_1" height="512" viewBox="0 0 150 150" width="512" xmlns="http://www.w3.org/2000/svg" data-name="Layer 1"><circle cx="75" cy="75" fill="#709584" r="64"/><path d="m98.44 96.56v-15.72h-46.88v15.72h-2.36v-18.08h24.62v-14.75h2.36v14.75h24.62v18.08z" fill="#3a556a"/><rect fill="#ebf0f3" height="29.32" rx="2.81" width="29.32" x="60.34" y="39.56"/><path d="m90 86.74h19.16a2.27 2.27 0 0 1 2.3 2.26v19.16a2.28 2.28 0 0 1 -2.28 2.28h-19.18a2.27 2.27 0 0 1 -2.27-2.27v-19.17a2.27 2.27 0 0 1 2.27-2.26z" fill="#e1e6e9"/><path d="m40.82 86.74h19.18a2.27 2.27 0 0 1 2.25 2.26v19.16a2.28 2.28 0 0 1 -2.25 2.28h-19.18a2.27 2.27 0 0 1 -2.27-2.27v-19.17a2.27 2.27 0 0 1 2.27-2.26z" fill="#e1e6e9"/><path d="m85.46 66.11c-.14-2.73-.46-6-1.14-7.27-.93-1.77-3.87-2.55-5.32-2.84l-.54-.1h-.16-.19-.36-.18l-1-.07-1.39.62-1.38-.62-1 .07h-.19-.35-.2-.16l-.4.1h-.11c-1.47.28-4.52 1.06-5.46 2.86-.69 1.29-1 4.54-1.14 7.27z" fill="#d15241"/><path d="m73.14 53.03h3.96v3.33h-3.96z" fill="#f7be56"/><path d="m74.13 66.11h1.99l-.53-7.3 1.11-1.55-1.58-.9-1.58.9 1.12 1.55z" fill="#e1e6e9"/><path d="m77.11 54.77-1.99 1.59 1.68 1.85 1.26-2.36z" fill="#e56353"/><path d="m73.14 54.77 1.98 1.59-1.86 1.81-1.07-2.32z" fill="#e56353"/><path d="m78.75 49.23s.29-.6.61-.54.43 0 .32.73-.08.47-.16 1.06-.26 1.67-1 1 .23-2.25.23-2.25z" fill="#fcd462"/><path d="m78.63 45.23c-.55-1-3.38-.94-3.38-.94s-2.84-.08-3.38.94-.23 3.66-.23 3.66a8.84 8.84 0 0 0 .23 2.68 3.58 3.58 0 0 0 1.75 2.59 3.09 3.09 0 0 0 3.26 0 3.61 3.61 0 0 0 1.75-2.59 8.84 8.84 0 0 0 .23-2.68s.32-2.63-.23-3.66z" fill="#fcd462"/><path d="m71.75 49.23s-.29-.6-.62-.54-.43 0-.31.73.07.47.16 1.06.25 1.67 1 1-.23-2.25-.23-2.25z" fill="#fcd462"/><g fill="#3a556a"><path d="m79.15 44.82c-.41-1.57-1.37-2.49-3.9-2.49s-3.49.92-3.9 2.49.43 5.38.43 5.38h.31v-1.73a3.62 3.62 0 0 1 -.31-1.47c0-.87 0-1.57.56-1.56h.3a5.84 5.84 0 0 0 2.2-.27 6.41 6.41 0 0 1 -1.18.94 6 6 0 0 0 1.87-.56c.15.4-.6 1.06-.6 1.06 1.93 0 2.35-.92 3-1.38.23 0 .79.88.75 1.75a3.84 3.84 0 0 1 -.33 1.44v1.73h.31s.9-3.77.49-5.33z"/><path d="m106.18 101.92c-.66-1.27-2.77-1.83-3.84-2l-.39-.06h-.11-.14l-.7-.86v-.62a4 4 0 0 0 1.33-2.22h.06c.22 0 .48-.28.59-.73s0-.88-.21-.93h-.13c.16-1.15.51-2.83 0-3.29a2.93 2.93 0 0 0 -1.54-.52c-.46-1.3-3.27-.46-4.11.29s-.53 2.35-.36 3.49c-.22 0-.35.44-.27.91s.32.81.54.77a4.06 4.06 0 0 0 1.32 2.19v.66l-.68.77h-.15-.11-.24-.07c-1 .2-3.23.76-3.91 2a16.69 16.69 0 0 0 -.81 5.19h14.75a17 17 0 0 0 -.82-5.04z"/><path d="m57 101.92c-.67-1.27-2.77-1.83-3.84-2l-.39-.06h-.11-.14l-.71-.86v-.62a4 4 0 0 0 1.32-2.22h.06c.23 0 .49-.28.6-.73s0-.88-.21-.93h-.13c.16-1.15.51-2.83 0-3.29a2.93 2.93 0 0 0 -1.54-.52c-.46-1.3-3.27-.46-4.11.29s-.53 2.35-.37 3.49c-.23 0-.35.44-.27.91s.32.81.54.77a4.06 4.06 0 0 0 1.3 2.24v.61l-.68.77h-.15-.17-.24-.08c-1 .2-3.22.76-3.9 2a17 17 0 0 0 -.82 5.19h14.82a16.69 16.69 0 0 0 -.78-5.04z"/></g></svg>