<svg id="Layer_1" height="512" viewBox="0 0 150 150" width="512" xmlns="http://www.w3.org/2000/svg" data-name="Layer 1"><circle cx="75" cy="75" fill="#21b3a9" r="64"/><path d="m62 86.41v-3.56h-1.3v3.56a2.83 2.83 0 1 0 1.33 0zm-.67 4a1.31 1.31 0 1 1 1.31-1.31 1.31 1.31 0 0 1 -1.28 1.35z" fill="#3a556a"/><path d="m35.15 47.32h52.44v35.45h-52.44z" fill="#ebf0f3"/><path d="m89.29 46.21h-55.85a1.3 1.3 0 0 0 0 2.59h55.85a1.3 1.3 0 0 0 0-2.59z" fill="#3a556a"/><path d="m88.06 81.9h-53.39a.95.95 0 1 0 0 1.9h53.39a1 1 0 0 0 0-1.9z" fill="#3a556a"/><path d="m58.56 53c-.45-.11-.61.12-1 .3s-.9 0-1.42-.09c-.3 0-.52-.14-.82-.21a4.39 4.39 0 0 0 -1 0 5.6 5.6 0 0 0 -2.39.18 2.09 2.09 0 0 1 -1.13.16c-.51 0-.53.13-.91.46a.61.61 0 0 1 -.62.21c-.16-.05-.19-.27-.41-.26s-.65.52-.85.72c-.42-.15-.36-.57-.89-.4a1.57 1.57 0 0 0 -.54.33 7.26 7.26 0 0 1 -.68.45c-.31.2-.43.38-.87.32a4.52 4.52 0 0 0 -.63-.17c-.24 0-.47 0-.7 0a16.79 16.79 0 0 1 -2.13-.09 1.19 1.19 0 0 0 -1 .27c-.1.1-.13.24-.25.34a2.5 2.5 0 0 1 -.53.23c-.45.24-.59.69-1.11.81-.23.05-.56 0-.53.32s.53.31.74.3.29-.12.48-.21a2.17 2.17 0 0 1 .5-.11c.29-.1.22-.2.43-.31.45-.22.72 0 1 .37a1.89 1.89 0 0 1 .29 1 3.66 3.66 0 0 1 0 .81c-.06.33-.33.37-.47.66s0 .69 0 1c0 .17-.13.25-.1.42s.21.37.28.55c.15.41.08.82.5 1.13.12.09.32.1.41.24s0 .4 0 .55a1 1 0 0 0 .13.42 3.76 3.76 0 0 0 .23.55c.16.23.26.16.51.19.44.05.88.14 1.34.17.17.21 0 .56.09.8s.16.19.31.27a2.69 2.69 0 0 1 1 .59c.12.17.18.45.4.53s.3 0 .36 0c.26.17 0 .66-.14.81 0 .26-.15.39-.17.65a2.81 2.81 0 0 0 0 .58 2.15 2.15 0 0 0 .23.51c.09.19.15.39.24.58a2.81 2.81 0 0 0 .83 1.14c.19.12.31.12.45.35a1.33 1.33 0 0 1 .13.86 4.86 4.86 0 0 0 0 .54c0 .36.19.48.31.79.19.47-.15.88-.11 1.34a6.28 6.28 0 0 0 .38 1.3c.08.23.09.45.18.68a3.26 3.26 0 0 0 .33.71c.27.41.5.87 1 1.06.15.05.54.14.65 0a1.82 1.82 0 0 0 0-.7l-.07.17c-.28-.26-.66-.43-.72-.84s0-.64 0-1a2.79 2.79 0 0 1 0-.91c.09-.36.54-.5.75-.8.1-.14.19-.22.3-.35s.15-.34.25-.47.28-.18.35-.41 0-.38 0-.56.15-.28.19-.45a.58.58 0 0 1 .35-.49c.48-.28.82-.31 1-.87 0-.18.09-.36.13-.55s.19-.35.27-.57a2.54 2.54 0 0 0 .1-1.1 1.18 1.18 0 0 0 -.77-.67 4.5 4.5 0 0 1 -.64-.11c-.2-.09-.23-.2-.4-.3s-.35 0-.49-.21a2.35 2.35 0 0 1 -.17-.55c-.1-.3-.08-.28-.36-.38a4 4 0 0 1 -.36-.17c-.16-.08-.26-.12-.41-.21a3.23 3.23 0 0 0 -.66-.25l-.4-.18a1.93 1.93 0 0 0 -.67-.16 3.43 3.43 0 0 0 -1.2-.07c-.28.1-.05.17-.22.37a1 1 0 0 1 -.74 0 1.58 1.58 0 0 1 -.33-.48c-.05-.19.19-.33.11-.51-.16-.36-.9 0-1.07-.35.18-.19.58-.4.44-.73s-.54-.21-.68 0 0 .22-.21.31a1.36 1.36 0 0 1 -.45 0 .68.68 0 0 1 -.56-.58.93.93 0 0 1 0-.44c.08-.26.13-.15.31-.3s.18-.41.34-.58a1.59 1.59 0 0 1 .84-.21c.42 0 .79-.1 1.06.23s.41.71 1 .66a.57.57 0 0 0 0-.29c-.27-.15 0-.75.13-.92s.33-.24.41-.45.1-.39.32-.58a4.23 4.23 0 0 0 .51-.44c.08-.09.15-.31.24-.38s.36-.07.55-.07c.75 0 .13-.66.75-.79.21 0 .39.14.57.1s.09-.35 0-.54c-.09-.4 0-.19.27-.26s.33-.34.6-.24c.43.16-.05 1 .65.78s-.23-.56-.25-.82.14-.24.15-.35a.45.45 0 0 0 -.09-.37c-.05-.08-.15-.1-.21-.19l-.08-.33c-.06-.19-.2-.65-.43-.57s-.19.52-.33.67c-.4-.18.08-1.21-.63-1-.34.1-.23.37-.42.62s-.24.15-.3.25 0 .29 0 .4-.14.17-.19.27 0 .27-.1.39c-.14.43-.63.85-.73.18a1.27 1.27 0 0 1 0-.39l.12-.33c-.1-.26-.33 0-.52-.07s-.18-.18-.3-.33-.21-.19-.26-.34c-.25-.59.34-.45.72-.51.07 0 .14-.11.23-.12l.31.07a1.52 1.52 0 0 0 .42 0c.18-.07.2-.22.3-.35s.11-.17.38-.28.37-.33.58-.5c.43-.33.42.09.48.42s.1.7.3.83a.47.47 0 0 0 .63-.23l.11-.34c.08-.1.21 0 .28-.11.26-.28-.12-.37-.29-.62s-.06-.23-.12-.35-.28-.18-.34-.37a.6.6 0 0 1 .21-.55c.22-.23.31-.17.63-.21a.63.63 0 0 1 .47 0c.19.1.21.31.36.4s.51.16.66.33a1.25 1.25 0 0 1 .29.78c-.06.24-.26.24-.36.41a1.32 1.32 0 0 0 -.06.86.48.48 0 0 0 .7.31c.11-.07.21-.34.3-.44s.5-.26.79-.42a6.22 6.22 0 0 0 .56-.46c.35-.25.82-.29 1.14-.53.13-.09.23-.22.35-.31s.27-.09.52-.19c.43-.16.31-.63.6-.86.1-.08.29 0 .32-.2s-.29 0-.44 0z" fill="#27a2db"/><path d="m63.5 74.3c.62 0 .58 0 .78-.52.06-.18.16-.57.23-.71s.25-.28.47-.52.28-.74.52-1.1a7.49 7.49 0 0 0 .77-1.13c.4-.92-.29-1.73.23-2.66.37-.65 2-1.24 1.6-2.11-.52 0-.92.31-1.07-.32s0-.93.64-.94 1.27.17 1.66-.28.19-.87.29-1.35c.3.19.27.42.48.63a2.08 2.08 0 0 0 1.06.6c.39.06.5-.15.81.21s.18.33.19.69 0 .87.34 1.23c.12.11.41.35.58.28s-.19-1.23-.25-1.44c.44-.28.91-.18 1.23-.5s.14-.85.73-.65.23.79.41 1.21.75.66.74 1.19c0 .25-.34.56-.28.82s.18.23.41.42c.38.32.55.8 1 1.1a9.42 9.42 0 0 0 1 .64c.42.22.83.08 1.27.28a6.68 6.68 0 0 0 1 .49c.35.1.39-.28.46.28s-.52.64-.82.82a12.76 12.76 0 0 1 -1 .77c-.46.23-.66.33-.71.85-.1.94.22 2.09 1.43 1.77.44-.12.63-.82 1.18-.44.23.16.24.49.39.71a1.17 1.17 0 0 0 1 .56c.34.07 1 .33 1.25 0 .14-.18.06-.45.16-.65s.54-.53.71-.81.28-.33.27-.64c0-.67-.65-1.16-.69-1.88 0-.56.14-1.45-.59-1.6 0 .49.59 1.88-.4 1.88-.51 0-.71-.88-.74-1.3s.16-.7-.36-.8c-.27 0-.49.12-.72.1a2 2 0 0 1 -1.37-.56c-.47-.64.36-.5.77-.6.18 0 .17-.22.46-.2s.6.33.85.48a3.59 3.59 0 0 0 1.86.64c.16 0 .81.09.92 0 .3-.34-.31-.49-.48-.53-.5-.14-.85-.06-1.16-.52s-.1-.5-.57-.65c-.3-.09-.34 0-.55-.21l-.09-.35c-.13-.13-.32 0-.45-.13a1.09 1.09 0 0 1 -.49-.6c-.08-.22-.1-.45-.2-.68-.19-.5-.57-1-1.19-.75s-.39.89-.49 1.31c0 .23 0 .43-.21.61-.4.35-.8-.18-.85-.54s.14-.89.1-1.34c0-.24-.19-.6-.09-.86.18-.46.55-.23.92-.4a.93.93 0 0 0 .5-1.41c-.21-.41-.94-1-.43-1.52s1 .54 1.36.76c.49.31 1.7.23 1.42-.71-.45-.06-1 .1-1.37-.24a2 2 0 0 1 .4-1.69c.19-.26.35-.28.12-.59-.35-.46-1.25-.11-1.67-.39a.62.62 0 0 1 -.21-.75c.26-.56.75.06 1.17 0 .24-.06.44-.44.74-.5s.51.12.78 0c.23.36-.08.92.19 1.26a3.85 3.85 0 0 0 1 .62.78.78 0 0 0 .19-.47.72.72 0 0 1 -.27-.94c.26-.46 1-.47.63-1.14s-1.84-.89-2.4-1.21a2.15 2.15 0 0 0 -1.14-.23c-.36 0-.72.24-1 .25s-.34-.16-.52-.19-.48.08-.69 0-.29-.26-.48-.3a3.35 3.35 0 0 0 -.71.05 11.51 11.51 0 0 1 -2.69.13c-.57-.09-.66-.43-1.2-.46a6.56 6.56 0 0 0 -1.6.1 9.65 9.65 0 0 0 -1.22.4 5.68 5.68 0 0 1 -1.6.31 4.64 4.64 0 0 0 -1.69.44 1.22 1.22 0 0 1 -1.29.07c-.16-.08-.31-.33-.45-.38a4 4 0 0 0 -1.3-.08 1.92 1.92 0 0 0 -1.16.27c-.31.17-.29.27-.47.52s-.5.57-.72.87c-.36.5-.15.7-.21 1.25-.13 1.15-.93-.43-1.25-.46-1.42-.14-.09 2-.14 2.43s-.62.49-.91.78a1.2 1.2 0 0 0 -.4 1 1.08 1.08 0 0 1 -.43 1 1.65 1.65 0 0 0 -.58.75 3.77 3.77 0 0 0 0 2.28c.24.7 1 1.74 1.75 1.63.52-.07 1.05-.43 1.64-.31.78.15.75.69.86 1.28s.5.56.5 1c0 .2-.22.42-.25.62s.05.32.1.54a4 4 0 0 0 .15.78c.09.19.39.32.46.49a2.75 2.75 0 0 1 0 1.07c0 .24-.17.34-.12.57s.35.44.49.63.7 1.27.77.52z" fill="#27a2db"/><path d="m69.13 65.8q-.63-2.64-1.27-5.3a.93.93 0 0 0 -.36-.65c-.31-.18-.74.09-.85.44a1.76 1.76 0 0 0 .12 1.08 2.23 2.23 0 0 1 .23 1.07 4 4 0 0 0 -2.39-2 5 5 0 0 0 -2.44-.5 2.21 2.21 0 0 0 -1.92 1.42.82.82 0 0 0 .18.85 1 1 0 0 0 .37.16l1.82.51a3 3 0 0 1 1.59.94 5 5 0 0 1 .79 1.42 7.55 7.55 0 0 0 2.82 3.76" fill="#fcd462"/><path d="m111.22 103.79c-.9-5.24-2.07-12-2.72-15.6a104.08 104.08 0 0 0 -.4 15.6h-22.19c0-4.86-1.68-12.4-3-17.23l-6.93 1a3 3 0 0 1 -2.83-2.56l-8.68-17.64 5.45-2.44 7.57 13.62 10.51-3.9a16.31 16.31 0 0 0 3.66-2.53s0 .3 0 .82l.69-.58 4.61 2 4.79-2 .45.66c0-.52 0-.83 0-.83a14.11 14.11 0 0 0 7.85 3c2 .2 3.81 1.19 4.19 3.13 0 0 3.16 13.9 3.72 25.52z" fill="#d15241"/><path d="m92.69 67.25h8.35v7.39h-8.35z" fill="#f7be56"/><path d="m99.28 75.79-1.62 2.46 1.62 19.96-2.45 4.12-2.35-4.27 1.92-19.93-1.51-3.01 2.05-1.06z" fill="#e1e6e9"/><path d="m90.43 73.11 2.23-2.4s.46 2.05 4.17 3.11c3.71-1.06 4.18-3.11 4.18-3.11l2.18 2.3c0 1-2.81 5.23-2.81 5.23l-3.55-3.6-3.54 3.6s-2.82-4.1-2.86-5.13z" fill="#e56353"/><path d="m91.33 61.27s-1.42-1.16-1.33 1.06 1 3.63 2.28 3.74-.95-4.8-.95-4.8z" fill="#f7be56"/><path d="m102.53 61.27s1.41-1.16 1.36 1.06-1 3.63-2.29 3.74.93-4.8.93-4.8z" fill="#f7be56"/><path d="m91.13 57 1.8-1.26 3.61-1v-.22l.39.11.39-.11v.21l3.62 1 1.8 1.26-.74 5.42a27.88 27.88 0 0 1 0 5.18c-.26 1.59-1.76 3-4.13 3.71a3.81 3.81 0 0 1 -2 0c-2.36-.66-3.83-2.12-4.09-3.71a27.88 27.88 0 0 1 0-5.18z" fill="#fcd462"/><path d="m92 64h-.44s-.6-2.56-1.31-2.84c0 0-1.77-7.85 5.13-8.66 3.19-.38 6.75.52 7.68 4s-.47 5-.47 5l-.34 2.5h-.58s.77-4.83-.48-5.75-8.86-2.25-9.19.35a22.28 22.28 0 0 0 0 5.4z" fill="#3a556a"/></svg>