<svg id="Layer_1" height="512" viewBox="0 0 150 150" width="512" xmlns="http://www.w3.org/2000/svg" data-name="Layer 1"><circle cx="75" cy="75" fill="#77b3d5" r="64"/><path d="m47.75 51.43h2.47v54.01h-2.47z" fill="#3a556a"/><path d="m55.11 90.37-.28-1.62-4.61-3.07-.02 3.9z" fill="#f7be56"/><path d="m54.83 88.75h-6.56v8.65h6.56l3.6-1.51v-5.47z" fill="#f7be56"/><path d="m89 86.15-12.63 7.85-18.86-4.22-2.4 7.8 20.26 5a5.37 5.37 0 0 0 3-.11l16-5.21z" fill="#e1e6e9"/><path d="m87.69 87.64s-1.08 0-1.86 2a33 33 0 0 0 -4.67 11.75l3-5.35 1.95-2.85 1-3.34 1.65-1.16z" fill="#3a556a"/><path d="m95.33 79.57a.59.59 0 0 1 0-.86c.61-.64.61-1.89.77-2.72a11 11 0 0 0 .09-3.58c-.29-2.19-.87-4-2.77-5.33s-4.54-1.27-6.64-.85a8.41 8.41 0 0 0 -2.95 1.46 8.59 8.59 0 0 0 -1.5 1.09 11.45 11.45 0 0 0 -1 1.33l-.17.17.08.08c.25.23.27 1.18.27 1.18a20.24 20.24 0 0 0 -1.46 3.75 6.4 6.4 0 0 0 .32 2.35s-1.22 2.55-.9 3.06 1.68.51 1.68.51 0 .58 0 .79.43.39.43.39-.33.39-.11.71a.48.48 0 0 0 .49.25.59.59 0 0 1 .39.75 1.8 1.8 0 0 0 .7 1.83 6.21 6.21 0 0 0 3.59 0l1.31 2.13 8-5 .2-.37a10.88 10.88 0 0 1 -.83-2.69 1.52 1.52 0 0 1 .01-.43z" fill="#fcd462"/><path d="m95.35 79.49a1.36 1.36 0 0 0 0 .51l-2.35-1.53s-.6-4.47-2.49-4.59-1.78 3.44-1.78 3.44h-1.14s-3.42-3.42-2.23-4.88c3.62-4.41-3.84-.9-3.84-.9a4.55 4.55 0 0 1 -.36-3.29c.57-1.52 4.68-2.69 7.13-2.69s5.71.32 7.85 3.44-.5 9.66-.79 10.49z" fill="#3a556a"/><path d="m103.4 121a18.31 18.31 0 0 1 -.3-6.7c.3-1.31.59-2.66.84-4 .12-.66.22-1.32.31-2a33.45 33.45 0 0 0 -1.39-16.43 48.86 48.86 0 0 0 -4.14-6.68 23 23 0 0 0 -1.69-2s-10.87 6-14.15 13.75a46.47 46.47 0 0 0 -3.39 11.38 9.61 9.61 0 0 0 -.12 1.08s-.21 6-.07 11.66z" fill="#e1e6e9"/><path d="m88.73 56.38c-13.66-9.36-27.32 9.37-41 0v-24.65c13.66 9.37 27.32-9.36 41 0z" fill="#fe7058"/><g fill="#fcd462"><path d="m50.52 91h-4.08a1.13 1.13 0 0 1 0-2.25h4.08a1.13 1.13 0 0 1 0 2.25z"/><path d="m50.52 93.25h-4.08a1.13 1.13 0 0 1 0-2.25h4.08a1.13 1.13 0 0 1 0 2.25z"/><path d="m50.52 95.5h-4.08a1.13 1.13 0 0 1 0-2.25h4.08a1.13 1.13 0 0 1 0 2.25z"/><path d="m50.65 97.39h-3.33a1 1 0 0 1 0-2h3.33a1 1 0 0 1 0 2z"/></g><path d="m95.72 81.64-8.64 5.96.53 3.19 10.11-6.92z" fill="#ebf0f3"/></svg>