<svg id="Layer_1" height="512" viewBox="0 0 150 150" width="512" xmlns="http://www.w3.org/2000/svg" data-name="Layer 1"><circle cx="75" cy="75" fill="#d5d6db" r="64"/><rect fill="#3a556a" height="48.43" rx="2.56" width="77.03" x="36.48" y="47.45"/><path d="m41.62 52.44h66.77v38.46h-66.77z" fill="#fe7058"/><path d="m116.9 95.89h-83.8a1.48 1.48 0 0 0 -1.26 2.27l1.72 2.77a3.4 3.4 0 0 0 2.9 1.62h77.08a3.4 3.4 0 0 0 2.9-1.62l1.72-2.77a1.48 1.48 0 0 0 -1.26-2.27z" fill="#2f4859"/><path d="m70.41 95.89h9.17v1.41h-9.17z" fill="#3a556a"/><path d="m70.68 69.65h8.64v8.76h-8.64z" fill="#f7be56"/><path d="m91 90.88v-6.5a9 9 0 0 0 -5.93-7.44l-6.65-2.21-3.42 3.65-3.44-3.65-6.65 2.21a9 9 0 0 0 -5.91 7.44v6.5z" fill="#d5d6db"/><path d="m73.19 90.88h3.66l-.71-8.83 1.02-1.78-1.07-1.86h-2.15l-1.07 1.86 1.03 1.79z" fill="#27a2db"/><path d="m79.35 73.33-4.35 5.05 2.74 3.5 3.21-6.31z" fill="#ebf0f3"/><path d="m70.65 73.33 4.35 5.05-2.74 3.5-3.21-6.31z" fill="#ebf0f3"/><path d="m82 63.8c-.49-.06-1 .88-1.16 2.09s.12 2.25.61 2.31 1-.87 1.16-2.09-.13-2.25-.61-2.31z" fill="#fcd462"/><path d="m68 63.8c.49-.06 1 .88 1.16 2.09s-.12 2.25-.61 2.31-1-.87-1.16-2.09.13-2.25.61-2.31z" fill="#fcd462"/><path d="m80.84 58.2-2.23-1.44h-7.08l-2.23 1.44-1 3.78.29 3.5a28.14 28.14 0 0 0 .49 4.18c.34 1.19.77 1.43 1.94 2.82s1.79 2.34 4.07 2.25c2.28.09 2.91-.87 4.08-2.25s1.6-1.63 1.94-2.82a27.73 27.73 0 0 0 .48-4.18l.29-3.5z" fill="#fcd462"/><path d="m81.26 66.34a13.63 13.63 0 0 0 .9-4.81c-.13-2.17-.35-5.76-3.33-5.71 0 0-.2-1.5-2.78-1.5a9.63 9.63 0 0 0 -6.86 3c-1.3 1.63-1.18 3.58-1 5.4s.38 3.08.38 3.08h.5a8.75 8.75 0 0 1 .34-3.22c.5-1.22 1.27-2.27 2.18-2.31 0 0 3.75 1.29 4.45-2 .37-1.77 2.07-.32 2.07-.32s.3-.36 1.23 1.54a9.65 9.65 0 0 1 1.4 4.67 8.56 8.56 0 0 0 .26 2.27z" fill="#3a556a"/><path d="m101.34 62.43h-14.1v8.88h1.98v3.42l2.6-3.42h9.52z" fill="#e1e6e9"/><g fill="#3a556a"><path d="m91.71 66.05a.79.79 0 1 0 .79.78.78.78 0 0 0 -.79-.78z"/><path d="m94.29 66.05a.79.79 0 1 0 .78.78.78.78 0 0 0 -.78-.78z"/><path d="m96.86 66.05a.79.79 0 1 0 .79.78.78.78 0 0 0 -.79-.78z"/></g></svg>