<svg id="Layer_1" height="512" viewBox="0 0 150 150" width="512" xmlns="http://www.w3.org/2000/svg" data-name="Layer 1"><circle cx="75" cy="75" fill="#ea8953" r="64"/><rect fill="#3a556a" height="80.61" rx="4.1" width="47.27" x="52.23" y="34.7"/><path d="m55.14 42.61h41.44v60.93h-41.44z" fill="#27a2db"/><path d="m81.1 38.09h-10.48a.83.83 0 0 0 -.83.83.84.84 0 0 0 .83.84h10.48a.84.84 0 0 0 .83-.84.83.83 0 0 0 -.83-.83z" fill="#2f4859"/><circle cx="75.86" cy="109.25" fill="#2f4859" r="2.68"/><path d="m77 58.51v-3h-3.18v3c-.18 0-.8.15-1.56.35v4.54h6.29v-4.55c-.74-.19-1.34-.31-1.55-.34z" fill="#f7be56"/><path d="m83.32 68.49h-15.79a59.74 59.74 0 0 1 .74-7.4c.34-1.2 3-2 4.55-2.37a3.12 3.12 0 0 0 5.22 0c1.52.37 4.2 1.17 4.54 2.37a57.82 57.82 0 0 1 .74 7.4z" fill="#e1e6e9"/><path d="m79.32 52.28c-.39-.09-.83.42-1 1.12s0 1.35.42 1.43.83-.41 1-1.12-.03-1.34-.42-1.43z" fill="#fcd462"/><path d="m71.53 52.28c.39-.09.84.42 1 1.12s0 1.35-.42 1.43-.83-.41-1-1.12.04-1.34.42-1.43z" fill="#fcd462"/><path d="m75.43 47.9c-2.1 0-3.8 2-3.8 4.43s1.64 5.37 3.74 5.37 3.85-2.92 3.85-5.37-1.7-4.43-3.79-4.43z" fill="#fcd462"/><path d="m79.38 49.21a2.69 2.69 0 0 0 -2.07-1.83 3.76 3.76 0 0 0 -3.83-.2c-2 1.12-2.6 2.12-2.38 4.06a5.72 5.72 0 0 0 .66 2.53h.48s-.54-2.74 0-3.24 3.21 1 5.33-.73c0 0 1.47.91 1.21 4.07h.4s.82-2.97.2-4.66z" fill="#2f4859"/><path d="m83.63 47.07v10.63h3.56v2.35l2.35-2.35h19.99v-10.63z" fill="#fcd462"/><g fill="#f7be56"><path d="m85.88 49.66h21.3v.77h-21.3z"/><path d="m85.88 51.67h21.3v.77h-21.3z"/><path d="m85.88 53.68h21.3v.77h-21.3z"/></g><path d="m66.37 78.51v10.63h-3.56v2.35l-2.35-2.35h-19.99v-10.63z" fill="#fcd462"/><path d="m42.82 81.1h21.3v.77h-21.3z" fill="#f7be56"/><path d="m42.82 83.11h21.3v.77h-21.3z" fill="#f7be56"/><path d="m42.82 85.12h21.3v.77h-21.3z" fill="#f7be56"/><path d="m80 83.86a5.35 5.35 0 0 1 -.32-3.16 1 1 0 0 0 -.68-1.06 14.14 14.14 0 0 0 -2.67 4.22z" fill="#2f4859"/><path d="m71.36 83.86h3.69a14.14 14.14 0 0 0 -2.67-4.22h-.13a.81.81 0 0 0 -.58.9 5.46 5.46 0 0 1 -.31 3.32z" fill="#2f4859"/><path d="m77.3 87v-2.84h-3.08v2.84c-.17 0-.76.14-1.49.34v4.34h6v-4.34c-.73-.19-1.26-.34-1.43-.34z" fill="#f7be56"/><path d="m83.32 96.56h-15.12a55.32 55.32 0 0 1 .71-7.08c.32-1.15 2.89-1.92 4.35-2.27a3 3 0 0 0 5 0c1.46.35 4 1.12 4.35 2.27a55.32 55.32 0 0 1 .71 7.08z" fill="#e1e6e9"/><path d="m75.76 76.85c-2 0-3.63 1.9-3.63 4.24s1.57 5.14 3.57 5.14 3.69-2.8 3.69-5.14-1.62-4.24-3.63-4.24z" fill="#fcd462"/><path d="m81 82.86a5.51 5.51 0 0 1 -.48-1.28c-.06-.39-.09-.74-.16-1.12a7.5 7.5 0 0 0 -.33-1.4l-.15-.34a2.93 2.93 0 0 0 -.19-.8 2.64 2.64 0 0 0 -2-1.81 3.7 3.7 0 0 0 -3.78-.2c-1.7 1-2.39 1.85-2.39 3.34a9.27 9.27 0 0 0 -.27 1.21c-.07.38-.1.73-.15 1.12a5.12 5.12 0 0 1 -.49 1.28c-.38.84-.66 1.83.25 2.43.4.26.74.17 1.16.3s.51.52.84.69a.84.84 0 0 0 1-.28c.21-.41 0-.75-.24-1.09a8.39 8.39 0 0 1 -.59-1.3 2.42 2.42 0 0 1 -.12-1 2.71 2.71 0 0 1 .21-1.13c.15-.35.2-.72.35-1.06s.25-.53.39-.82a5.51 5.51 0 0 1 3.49-1.12 6 6 0 0 0 .72 1.94c.15.34.2.71.35 1.06a2.71 2.71 0 0 1 .21 1.13 2.61 2.61 0 0 1 -.11 1 9.51 9.51 0 0 1 -.6 1.3c-.2.34-.45.68-.24 1.09a.84.84 0 0 0 1 .28c.33-.17.48-.57.84-.69s.76 0 1.16-.3c.95-.6.67-1.59.32-2.43z" fill="#2f4859"/><path d="m87.12 38.09a.93.93 0 1 0 0 1.85.93.93 0 0 0 0-1.85z" fill="#2f4859"/></svg>