<svg id="Layer_1" height="512" viewBox="0 0 150 150" width="512" xmlns="http://www.w3.org/2000/svg" data-name="Layer 1"><circle cx="75" cy="75" fill="#fe7058" r="64"/><path d="m50 43.82h57.35a2.88 2.88 0 0 1 2.88 2.88v33.88a2.88 2.88 0 0 1 -2.88 2.88h-57.35a2.89 2.89 0 0 1 -2.89-2.89v-33.86a2.89 2.89 0 0 1 2.89-2.89z" fill="#3a556a"/><path d="m52.97 46.48h50.59v34.32h-50.59z" fill="#d5d6db"/><path d="m60.7 75.52a6.92 6.92 0 0 0 -5.16 2.78l-3.33 5-5.07-.93v-17.06l-4.61 6.17a6.92 6.92 0 0 0 -1.31 3.29l-2.22 18.31 13.84 7.17 3.89-8.66a61.93 61.93 0 0 1 2.27-7c1-2.81 2.11-5.34 2.82-6.93a1.53 1.53 0 0 0 -1.12-2.14z" fill="#fcd462"/><path d="m40.83 88.59h8.45v19.55h-8.45z" fill="#3a556a" transform="matrix(.404 -.915 .915 .404 -63.13 99.8)"/><circle cx="106.76" cy="63.77" fill="#64798a" r="1.59"/><path d="m49.2 59.58h1.27v5.18h-1.27z" fill="#64798a"/><path d="m87 61.48a1.11 1.11 0 0 1 -1.28.34 1.74 1.74 0 0 1 -.94-1 4.43 4.43 0 0 1 -.23-1.41 18.82 18.82 0 0 1 .12-3 .66.66 0 0 0 -1-.67l-1.86 1a5.67 5.67 0 0 0 -3.08 2 4.46 4.46 0 0 0 -.4.66 4.53 4.53 0 0 0 -.41-.66 5.61 5.61 0 0 0 -3.07-2l-1.9-1a.64.64 0 0 0 -.93.64 19.33 19.33 0 0 1 .12 3 4.17 4.17 0 0 1 -.23 1.41 1.74 1.74 0 0 1 -.94 1 1.11 1.11 0 0 1 -1.28-.34 2.87 2.87 0 0 0 .7 2.59 6.26 6.26 0 0 0 2.33 1.51 4.33 4.33 0 0 0 2.17.42 4.21 4.21 0 0 0 2.41-1.55 7.43 7.43 0 0 0 1-1.4 7 7 0 0 0 1 1.4 4.24 4.24 0 0 0 2.46 1.58 4.33 4.33 0 0 0 2.17-.42 6.14 6.14 0 0 0 2.32-1.51 2.87 2.87 0 0 0 .75-2.59z" fill="#3a556a"/><path d="m78.31 49.19a6.43 6.43 0 1 0 6.44 6.43 6.43 6.43 0 0 0 -6.44-6.43z" fill="#3a556a"/><path d="m81.31 64.36v-2.7l-2.99-1.04v-.01.01l-.01-.01v.01l-2.99 1.04v2.7l-1.38.7v2.97h8.95v-2.87z" fill="#f7be56"/><path d="m89.92 76.38-.59-6.2a3.38 3.38 0 0 0 -1.84-2.7l-5-2.53-1.14-.58a3.22 3.22 0 0 1 -6 0l-1.13.58-5 2.53a3.38 3.38 0 0 0 -1.84 2.7l-.59 6.2z" fill="#029bc5"/><path d="m78.32 50.91c-2.69 0-4.86 2.89-4.86 6.45s2.17 6.44 4.86 6.44 4.86-2.88 4.86-6.44-2.18-6.45-4.86-6.45z" fill="#fcd462"/><path d="m74.72 52s1.7 3.56 8.66 3.19l-1-3.19-2.54-2h-2.38z" fill="#3a556a"/><path d="m101.53 72.64a2.28 2.28 0 0 0 -1.1 3l-.51-1.1a2.29 2.29 0 1 0 -4.14 2 2.28 2.28 0 0 0 -4.35.88l-5-10.65a2.29 2.29 0 0 0 -4.14 1.95l9.65 20.54-3.32-.63.18-1.63a5.32 5.32 0 0 0 -3-4.88.73.73 0 0 0 -1.06.58l-.68 7.8a3 3 0 0 0 2.37 3.09l10.37 4.17 2.86 3.79 13.34-7.12-2.72-8.52-5.72-12.18a2.28 2.28 0 0 0 -3.03-1.09z" fill="#fcd462"/><path d="m97.7 94.11h16.99v8.06h-16.99z" fill="#3a556a" transform="matrix(.905 -.425 .425 .905 -31.65 54.48)"/></svg>