<svg id="Layer_1" height="512" viewBox="0 0 150 150" width="512" xmlns="http://www.w3.org/2000/svg" data-name="Layer 1"><circle cx="75" cy="75" fill="#77b3d5" r="64"/><path d="m75.36 69.88-17.91-30.78h35.81zm-14.59-28.88 14.59 25.08 14.58-25.08z" fill="#d5d6db"/><path d="m59.93 28.46a12.14 12.14 0 1 0 12.14 12.14 12.14 12.14 0 0 0 -12.14-12.14z" fill="#3a556a"/><path d="m90.07 28.46a12.14 12.14 0 1 0 12.13 12.14 12.15 12.15 0 0 0 -12.13-12.14z" fill="#3a556a"/><path d="m75 53.57a12.14 12.14 0 1 0 12.13 12.13 12.13 12.13 0 0 0 -12.13-12.13z" fill="#3a556a"/><path d="m89.74 86.29a2.45 2.45 0 0 0 -2.45 2.44v-1a2.45 2.45 0 0 0 -4.89 0v-1a2.45 2.45 0 1 0 -4.89 0v-11.94a2.45 2.45 0 1 0 -4.9 0v24.87l-2.35-3 .26-2.69a6.6 6.6 0 0 0 -1.52-4.97.86.86 0 0 0 -1.49.41l-1.63 7.65a2.45 2.45 0 0 0 .45 2l6.33 8.37 3 7.3 13.7-.59 2.85-9.11v-16.3a2.45 2.45 0 0 0 -2.47-2.44z" fill="#fcd462"/><path d="m73.77 111.04h16.77v10.5h-16.77z" fill="#3a556a"/><g fill="#ebf0f3"><path d="m95.89 43.1a1.81 1.81 0 0 0 -1-1.46l-1.9-1a3.28 3.28 0 0 0 1.23-.8 1.55 1.55 0 0 0 .38-1.4.61.61 0 0 1 -.7.18.91.91 0 0 1 -.5-.55 2.17 2.17 0 0 1 -.13-.76c0-.41 0-.81 0-1.22a3.12 3.12 0 0 0 .11-.82 3.48 3.48 0 0 0 -7 0 3.6 3.6 0 0 0 .11.88 9 9 0 0 1 0 1.16 2.42 2.42 0 0 1 -.12.76.92.92 0 0 1 -.51.55.6.6 0 0 1 -.69-.18 1.55 1.55 0 0 0 .38 1.4 3.24 3.24 0 0 0 1.22.8l-1.89 1a1.82 1.82 0 0 0 -1 1.46l-.31 3.35h12.64z"/><path d="m65.48 42.45c-.56-1.07-2.34-1.54-3.24-1.71l-.33-.06h-.21-.22l-.24-1.23a3.43 3.43 0 0 0 1-1.77c.19 0 .4-.26.46-.65s0-.71-.21-.76c.14-1 .42-2.37 0-2.76a2.5 2.5 0 0 0 -1.31-.51c-.39-1.09-2.76-.38-3.47.25s-.45 1.94-.31 2.89c-.16.08-.24.39-.18.75s.22.62.39.65a3.54 3.54 0 0 0 1 1.83l-.23 1.23h-.21-.17-.2-.07c-.88.16-2.72.63-3.29 1.72a14.07 14.07 0 0 0 -.68 4.38h12.4a14.38 14.38 0 0 0 -.68-4.25z"/><path d="m78 59.48h-9.68v6.26h1.21v2.85l2.08-2.85h.79v-3.22h5.6z"/><path d="m72.71 62.82v6.26h6.4l2.08 2.85v-2.85h1.21v-6.26zm8.2 4.9h-6.77v-.28h6.77zm0-1.14h-6.77v-.27h6.77zm0-1.13h-6.77v-.28h6.77zm0-1.14h-6.77v-.31h6.77z"/></g></svg>