<svg id="Layer_1" height="512" viewBox="0 0 150 150" width="512" xmlns="http://www.w3.org/2000/svg" data-name="Layer 1"><circle cx="75" cy="75" fill="#fe7058" r="64"/><path d="m76.19 85.64v-9.22h-2.38v9.22h-28.92v14.71h2.38v-12.34h26.54v12.34h2.38v-12.34h26.86v12.34h2.38v-14.71z" fill="#3a556a"/><path d="m79.55 63-4.48 3.07-4.3-3.07v-8.9h8.78z" fill="#f7be56"/><path d="m85.4 61.5-4.11-1.36h-.09l-1.91.09-2.68 2.77-1.45 2.65-1.43-2.65-3.09-3.46-1.49.61-4.23 1.35a9.12 9.12 0 0 0 -6 7.56v10.49h32.5v-10.49a9.14 9.14 0 0 0 -6.02-7.56z" fill="#e1e6e9"/><path d="m79.57 57.84-2.96 5.13 2.79 3.55 1.8-6.4z" fill="#ebf0f3"/><path d="m70.77 57.84 2.96 5.13-2.78 3.55-1.8-6.4z" fill="#ebf0f3"/><path d="m81.66 47.84c-.41-.09-.93.72-1.15 1.79s-.08 2 .33 2.1.92-.73 1.16-1.79.07-2.02-.34-2.1z" fill="#f7be56"/><path d="m68.39 47.84c.41-.09.92.72 1.15 1.79s.07 2-.33 2.1-.93-.72-1.15-1.79-.06-2.02.33-2.1z" fill="#f7be56"/><path d="m79.76 41.28-1.34-1h-6.82l-1.33 1-1.85 2.27v1.54l.58 3.36s.34 4.77.48 5.51a5.24 5.24 0 0 0 2.39 3.36s.34 1 3.1 1 3.11-1 3.11-1a5.32 5.32 0 0 0 2.43-3.32c.13-.74.47-5.51.47-5.51l.62-3.36v-1.58z" fill="#fcd462"/><path d="m80.89 49.79h.27a34.07 34.07 0 0 1 1-3.66c.62-1.79.45-3.37-.45-4 0 0 .9-3.62-3.41-4.33a11.21 11.21 0 0 0 -9.42 2.26c-1.93 1.68-.73 3.07-.84 4.62a6.66 6.66 0 0 0 .51 3 18 18 0 0 1 .36 2.14h.39a13.92 13.92 0 0 0 .23-2.93c0-2-.84-1.7.36-3s1.12-1.42 2-1.58 4.73 1.5 8.15.32a7.42 7.42 0 0 0 .37 2.92 11.65 11.65 0 0 1 .48 4.24z" fill="#3a556a"/><rect fill="#27a2db" height="18.59" rx="1.69" width="18.59" x="94.96" y="93.82"/><rect fill="#27a2db" height="18.59" rx="1.69" width="18.59" x="65.71" y="93.82"/><rect fill="#27a2db" height="18.59" rx="1.69" width="18.59" x="36.45" y="93.82"/><g fill="#ebf0f3"><circle cx="41.53" cy="103.24" r="1.29"/><circle cx="45.59" cy="103.24" r="1.29"/><circle cx="49.65" cy="103.24" r="1.29"/><circle cx="71.29" cy="103.24" r="1.29"/><circle cx="75.35" cy="103.24" r="1.29"/><circle cx="79.42" cy="103.24" r="1.29"/><circle cx="100.58" cy="103.24" r="1.29"/><circle cx="104.64" cy="103.24" r="1.29"/><circle cx="108.71" cy="103.24" r="1.29"/></g></svg>