<svg id="Layer_1" height="512" viewBox="0 0 150 150" width="512" xmlns="http://www.w3.org/2000/svg" data-name="Layer 1"><circle cx="75" cy="75" fill="#2f4859" r="64"/><path d="m39.56 47.14h70.88v57h-70.88z" fill="#d5d6db" transform="matrix(.163 -.987 .987 .163 -11.84 137.31)"/><path d="m41.33 34.75h57v70.88h-57z" fill="#ebf0f3"/><path d="m44.1 37.81h51.46v23.51h-51.46z" fill="#d5d6db"/><path d="m48.62 54.85v-10.57h1.43l5.56 8.3v-8.3h1.34v10.57h-1.44l-5.55-8.31v8.31z" fill="#3a556a"/><path d="m59.33 54.85v-10.57h7.65v1.24h-6.25v3.24h5.85v1.25h-5.85v3.6h6.49v1.24z" fill="#3a556a"/><path d="m71 54.85-2.8-10.57h1.43l1.61 6.93c.18.73.33 1.45.45 2.17.27-1.14.43-1.79.48-2l2-7.14h1.69l1.51 5.35a28.83 28.83 0 0 1 .83 3.75c.13-.67.31-1.44.52-2.31l1.66-6.79h1.42l-2.9 10.61h-1.35l-2.23-8.06c-.19-.67-.3-1.08-.33-1.24-.11.49-.21.9-.31 1.24l-2.25 8.06z" fill="#3a556a"/><path d="m82.63 51.46 1.37-.12a2.86 2.86 0 0 0 .44 1.3 2.39 2.39 0 0 0 1.06.83 4.19 4.19 0 0 0 1.63.31 3.86 3.86 0 0 0 1.41-.24 2 2 0 0 0 .91-.65 1.53 1.53 0 0 0 .3-.91 1.34 1.34 0 0 0 -.29-.87 2.21 2.21 0 0 0 -1-.62c-.28-.11-.91-.28-1.88-.52a9.27 9.27 0 0 1 -2-.66 2.75 2.75 0 0 1 -1.13-1 2.39 2.39 0 0 1 -.45-1.31 2.74 2.74 0 0 1 .45-1.5 2.83 2.83 0 0 1 1.33-1 5 5 0 0 1 1.94-.36 5.35 5.35 0 0 1 2.07.37 3 3 0 0 1 1.38 1.12 3.11 3.11 0 0 1 .52 1.67l-1.34.1a2.15 2.15 0 0 0 -.73-1.52 2.86 2.86 0 0 0 -1.84-.51 3 3 0 0 0 -1.86.46 1.43 1.43 0 0 0 -.58 1.13 1.17 1.17 0 0 0 .42.93 5.42 5.42 0 0 0 2.11.76 15.06 15.06 0 0 1 2.34.67 3.3 3.3 0 0 1 1.36 1.08 2.6 2.6 0 0 1 .44 1.51 2.9 2.9 0 0 1 -.48 1.59 3.2 3.2 0 0 1 -1.39 1.16 4.77 4.77 0 0 1 -2 .41 6.1 6.1 0 0 1 -2.41-.41 3.42 3.42 0 0 1 -1.52-1.26 3.57 3.57 0 0 1 -.58-1.94z" fill="#3a556a"/><g fill="#d5d6db"><path d="m44.1 65.66h23.12v1.39h-23.12z"/><path d="m44.1 69.95h23.12v1.39h-23.12z"/><path d="m44.1 74.24h23.12v1.39h-23.12z"/><path d="m44.1 78.54h23.12v1.39h-23.12z"/><path d="m44.1 82.83h23.12v1.39h-23.12z"/><path d="m44.1 87.12h23.12v1.39h-23.12z"/><path d="m44.1 91.41h23.12v1.39h-23.12z"/><path d="m44.1 95.71h23.12v1.39h-23.12z"/><path d="m44.1 100h23.12v1.39h-23.12z"/><path d="m72.44 65.66h23.12v1.39h-23.12z"/><path d="m72.44 69.95h23.12v1.39h-23.12z"/><path d="m72.44 74.24h23.12v1.39h-23.12z"/><path d="m72.44 78.54h23.12v1.39h-23.12z"/></g><path d="m72.44 82.83h23.12v14.27h-23.12z" fill="#fe7058"/><path d="m72.44 100h23.12v1.39h-23.12z" fill="#d5d6db"/><path d="m72.26 65.66h23.12v1.39h-23.12z" fill="#d5d6db"/><path d="m72.26 69.95h23.12v1.39h-23.12z" fill="#d5d6db"/><path d="m72.26 74.24h23.12v1.39h-23.12z" fill="#d5d6db"/><path d="m72.26 78.54h23.12v1.39h-23.12z" fill="#d5d6db"/><path d="m72.26 100h23.12v1.39h-23.12z" fill="#d5d6db"/></svg>