<svg id="Layer_1" height="512" viewBox="0 0 150 150" width="512" xmlns="http://www.w3.org/2000/svg" data-name="Layer 1"><circle cx="75" cy="75" fill="#fe7058" r="64"/><path d="m107.85 112.87c-.47-8.67-1.46-19-3.62-23.08-3-5.61-12.32-8.1-17.07-9-.69-.14-1.27-.24-1.73-.31h-.21-.17-.13l-.6-.08-1.14-.08h-.57l-3.21-.32-4.4 2-4.4-2-3.21.22h-.59l-1.12.08-.64.09h-.16-.17-.17l-1.06.19-.35.07c-4.65.88-14.34 3.35-17.36 9.08-2.16 4.1-3.15 14.41-3.62 23.08z" fill="#d5d6db"/><path d="m68.71 71.32h12.59v10.59h-12.59z" fill="#f7be56"/><path d="m62.15 57c1-.16 2.08 1.38 2.42 3.45s-.21 3.87-1.21 4-2.08-1.4-2.42-3.45.21-3.89 1.21-4z" fill="#fcd462"/><path d="m75 40.52c-7.11 0-12.88 8-12.88 17.94s5.77 17.93 12.88 17.93 12.88-8 12.88-17.93-5.77-17.94-12.88-17.94z" fill="#fcd462"/><path d="m88.39 42.46c-1.16-1-5.25-2.64-6.84-2.33-2-5.76-14.51-2-18.28 1.3-4.39 3.89-1.53 13.84-1.27 18.44a.82.82 0 0 0 .82.78.81.81 0 0 0 .81-.74c.3-3.28.26-11.74 1.88-12.42 4.36 7.54 12.3 7.44 19.27 4.85 1.16 1.35 1.63 4.8 1.82 7.56a.82.82 0 0 0 .82.75.83.83 0 0 0 .82-.78c.27-4.6 3.09-14.95.15-17.41z" fill="#2f4859"/><path d="m71.84 112.87h6.33l-1.68-23.17 3.53-4.93-5.02-2.86-5.02 2.86 3.53 4.93z" fill="#1c75a1"/><path d="m81.3 76.86-6.3 5.05 6.2 6.83 3.12-8.45z" fill="#ebf0f3"/><path d="m68.71 76.86 6.29 5.05-7.55 6.23-1.77-7.85z" fill="#ebf0f3"/><g fill="#3a556a"><path d="m76.41 72.73c-.57 0-1.16 0-1.76-.06v-.49c4.54.34 8-.61 10.33-2.78a10 10 0 0 0 3.02-6.71h.49a10.3 10.3 0 0 1 -3.11 7.08c-2.14 1.97-5.14 2.96-8.97 2.96z"/><rect height="2.77" rx=".68" width="4.78" x="72.92" y="71.09"/><rect height="9.73" rx="1.23" width="2.94" x="86.73" y="55.02"/></g></svg>