<svg id="Layer_1" height="512" viewBox="0 0 150 150" width="512" xmlns="http://www.w3.org/2000/svg" data-name="Layer 1"><circle cx="75" cy="75" fill="#fe7058" r="64"/><path d="m48.89 49.99h52.21v65.03h-52.21z" fill="#ebf0f3"/><path d="m64.54 43.9h20.93v12.18h-20.93z" fill="#64798a"/><path d="m81.28 55.4h-3.39l-1.84-12.64a2.16 2.16 0 0 1 .52-1.76l1.86-2a1.32 1.32 0 0 0 -.23-2 5.71 5.71 0 0 0 -6.48 0 1.33 1.33 0 0 0 -.24 2l1.86 2a2.13 2.13 0 0 1 .53 1.74l-1.87 12.66h-3.36v-1h2.53l1.71-11.79a1.11 1.11 0 0 0 -.28-.92l-1.86-2.06a2.31 2.31 0 0 1 -.59-1.81 2.35 2.35 0 0 1 1-1.64 6.73 6.73 0 0 1 7.65 0 2.32 2.32 0 0 1 .4 3.46l-1.85 2a1.11 1.11 0 0 0 -.28.92l1.68 11.84h2.53z" fill="#2f4859"/><path d="m64.54 53.72h5.19v2.36h-5.19z" fill="#3a556a"/><path d="m80.27 53.72h5.19v2.36h-5.19z" fill="#3a556a"/><g fill="#d5d6db"><path d="m63.52 64.21h31.11v1.76h-31.11z"/><path d="m63.52 69.46h16.75v1.76h-16.75z"/><path d="m63.52 80.75h31.11v1.76h-31.11z"/><path d="m63.52 86h16.23v1.76h-16.23z"/><path d="m63.52 97.29h31.11v1.76h-31.11z"/><path d="m63.52 102.54h15.16v1.76h-15.16z"/></g><path d="m55.92 71.54-2.77-2.76 1.41-1.42 1.36 1.36 3.2-3.2 1.41 1.41z" fill="#3a556a"/><path d="m55.92 87.66-2.77-2.77 1.41-1.42 1.36 1.36 3.2-3.2 1.41 1.41z" fill="#3a556a"/><path d="m55.92 103.77-2.77-2.77 1.41-1.41 1.36 1.35 3.2-3.2 1.41 1.42z" fill="#3a556a"/></svg>