<svg id="Layer_1" height="512" viewBox="0 0 150 150" width="512" xmlns="http://www.w3.org/2000/svg" data-name="Layer 1"><circle cx="75" cy="75" fill="#fe7058" r="64"/><path d="m83.33 50.18-.16-.1h-.07a20.44 20.44 0 0 1 -3.16-1.32l-.22-.12a10.26 10.26 0 0 1 -1.72-1.21l-.12-.1s0 .13 0 .37l-.41-.35-2.47 1.05-2.6-1.06-.28.41c0-.22 0-.34 0-.34l-.18.15a10.84 10.84 0 0 1 -1.69 1.11l-.11.06a19.76 19.76 0 0 1 -3.14 1.33l-.18.11.09.6 1.22 8a15 15 0 0 1 .73 2.83 13.45 13.45 0 0 1 .08 4 8.59 8.59 0 0 0 -.12 1.78h12.64a9.61 9.61 0 0 1 -.22-1.78 13.32 13.32 0 0 1 .08-4.07 14.42 14.42 0 0 1 .74-2.84l1.21-8 .09-.6z" fill="#e1e6e9"/><path d="m68.81 67.21a42.62 42.62 0 0 0 -.81 10.36c.23 6.21.41 22.85.41 22.85h4.14s.66-16.41 2.5-22.7c1.84 6.29 2.5 22.7 2.5 22.7h4.15s.17-16.64.4-22.85a42.07 42.07 0 0 0 -.81-10.36z" fill="#2b3d47"/><path d="m72.77 44.57h4.52v4.01h-4.52z" fill="#f7be56"/><path d="m73.72 49.21.89 1.33-.89 10.82 1.33 2.24 1.05-1.91-.81-11.21.81-1.64-1.11-.57z" fill="#e56353"/><path d="m78 41.34s.76-.63.73.57-.53 2-1.24 2 .51-2.57.51-2.57z" fill="#f7be56"/><path d="m72 41.34s-.76-.63-.73.57.53 2 1.24 2-.51-2.57-.51-2.57z" fill="#f7be56"/><path d="m78.14 39-1-.68-2-.53v-.12l-.21.06-.21-.06v.12l-2 .53-1 .68.37 3a14.48 14.48 0 0 0 0 2.81 2.82 2.82 0 0 0 2.24 2 2 2 0 0 0 1.09 0 2.81 2.81 0 0 0 2.21-2 14.48 14.48 0 0 0 0-2.81z" fill="#fcd462"/><path d="m77.7 42.81h.24s.32-1.39.71-1.53c0 0 .94-3.16-1-3.3 0 0-.09-1.37-1.83-1.4s-3.67.28-4.17 2.19.26 2.71.26 2.71v1.33h.47s-.43-2.45.25-3 3.13-.6 4.22-1.09c0 0 .59-.3.8 1.12a11.79 11.79 0 0 1 .05 2.97z" fill="#3a556a"/><path d="m78.35 47.69-1-1.24s-.24 1.12-2.26 1.69c-2-.57-2.26-1.69-2.26-1.69l-1.08 1.31a13.55 13.55 0 0 0 1.42 2.78l1.92-2 1.92 2a14.61 14.61 0 0 0 1.34-2.85z" fill="#ebf0f3"/><path d="m81.67 101.91c-.28-1.48-1.09-2.56-2-2.56s-1.78 1.08-2.05 2.56a.73.73 0 0 0 .73.85h2.64a.73.73 0 0 0 .68-.85z" fill="#2f4859"/><path d="m72.5 101.91c-.28-1.48-1.09-2.56-2-2.56s-1.78 1.08-2 2.56a.73.73 0 0 0 .72.85h2.65a.73.73 0 0 0 .63-.85z" fill="#2f4859"/><path d="m95.59 31.66c-.11-.1-.19.07-.24-.07s0-.3 0-.42-.35-.12-.4-.22v-.18a.33.33 0 0 0 -.23-.29.36.36 0 0 0 -.36.08.67.67 0 0 0 -.16-.27l-.3-.05a.4.4 0 0 0 -.11.3 4.47 4.47 0 0 1 -.6 1.88 1.3 1.3 0 0 0 .06-.44.47.47 0 0 0 -.2-.38.29.29 0 0 0 -.39.06.5.5 0 0 0 0 .38 2.23 2.23 0 0 1 -.11 1c-.09.28-.25.53-.36.81a1.25 1.25 0 0 0 0 .87v.78.2a.39.39 0 0 0 .26.17l1.45.46h.16l.09-.09a17.08 17.08 0 0 0 1.09-1.79 6 6 0 0 0 .65-2c-.12-.22-.1-.64-.3-.79z" fill="#fcd462"/><path d="m94.47 36c-2.72 7.13-7.21 16.1-13.47 20.45-.65-.93-1.6-4.7-2.24-5.63a34.53 34.53 0 0 0 12.51-16z" fill="#e1e6e9"/><path d="m55.47 31.66c.12-.1.2.07.25-.07s0-.3 0-.42.35-.12.4-.22v-.18a.33.33 0 0 1 .23-.29.36.36 0 0 1 .36.08.67.67 0 0 1 .16-.27l.3-.05a.44.44 0 0 1 .11.3 4.47 4.47 0 0 0 .6 1.88 1.31 1.31 0 0 1 -.07-.44.5.5 0 0 1 .2-.38.3.3 0 0 1 .4.06.5.5 0 0 1 0 .38 2.22 2.22 0 0 0 .1 1c.1.28.26.53.37.81a1.25 1.25 0 0 1 .05.87v.78.2a.39.39 0 0 1 -.26.17l-1.45.46h-.16l-.09-.09a15.54 15.54 0 0 1 -.97-1.79 5.79 5.79 0 0 1 -.65-2c-.05-.22-.07-.64.12-.79z" fill="#fcd462"/><path d="m56.6 36c2.72 7.1 7.2 16.07 13.45 20.42.64-.93 1.59-4.7 2.24-5.63a34.62 34.62 0 0 1 -12.52-16z" fill="#e1e6e9"/><path d="m84.82 109.25h18.13v10.53h-18.13z" fill="#d5d6db"/><path d="m47.05 109.25h18.13v10.53h-18.13z" fill="#d5d6db"/><path d="m64.5 102.27h20.99v17.51h-20.99z" fill="#e1e6e9"/><path d="m75.89 114.5v-8.19h-1.02l-1.92 1.03.23.91 1.53-.83h.03v7.08h-1.83v1.1h4.87v-1.1z" fill="#2f4859"/></svg>