<svg id="Layer_1" height="512" viewBox="0 0 150 150" width="512" xmlns="http://www.w3.org/2000/svg" data-name="Layer 1"><circle cx="75" cy="75" fill="#d5d6db" r="64"/><path d="m88.77 60.88h-27.54v-10.94a4.34 4.34 0 0 1 4.33-4.34h18.88a4.34 4.34 0 0 1 4.33 4.34zm-24.21-3.33h20.88v-7.61a1 1 0 0 0 -1-1h-18.88a1 1 0 0 0 -1 1z" fill="#2f4859"/><rect fill="#3a556a" height="51.49" rx="3.74" width="67.2" x="41.4" y="52.9"/><rect fill="#2f4859" height="51.49" rx="3.74" width="67.2" x="41.4" y="52.9"/><path d="m104.87 52.9h-59.74a3.74 3.74 0 0 0 -3.73 3.74v18.68a3.33 3.33 0 0 0 3.33 3.33h60.54a3.33 3.33 0 0 0 3.33-3.33v-18.68a3.74 3.74 0 0 0 -3.73-3.74z" fill="#3a556a"/><path d="m96.08 90.91-2.72 3.53-2.72-3.53v-16.82h5.44z" fill="#3a556a"/><rect fill="#ebf0f3" height="6.07" rx=".31" width="7.13" x="89.8" y="81.97"/><path d="m90.63 82.87h5.45v4.28h-5.45z" fill="#64798a"/><path d="m93.43 84.11a.51.51 0 1 0 0 1 .51.51 0 0 0 0-1z" fill="#3a556a"/><path d="m93.43 82.13a.28.28 0 0 0 -.28.28v2.23a.27.27 0 0 0 .28.28.28.28 0 0 0 .28-.28v-2.23a.29.29 0 0 0 -.28-.28z" fill="#d5d6db"/><path d="m59.36 90.91-2.72 3.53-2.72-3.53v-16.82h5.44z" fill="#3a556a"/><rect fill="#ebf0f3" height="6.07" rx=".31" width="7.13" x="53.07" y="81.97"/><path d="m53.91 82.79h5.45v4.43h-5.45z" fill="#64798a"/><path d="m56.7 84.11a.51.51 0 1 0 .51.51.5.5 0 0 0 -.51-.51z" fill="#3a556a"/><path d="m56.7 82.13a.28.28 0 0 0 -.27.28v2.23a.28.28 0 1 0 .55 0v-2.23a.28.28 0 0 0 -.28-.28z" fill="#d5d6db"/></svg>