<svg id="Layer_1" height="512" viewBox="0 0 150 150" width="512" xmlns="http://www.w3.org/2000/svg" data-name="Layer 1"><circle cx="75" cy="75" fill="#ea8953" r="64"/><path d="m39.2 43.93h72v50.21h-72z" fill="#ebf0f3"/><path d="m110.92 42.31h-72.23a2.64 2.64 0 1 0 0 5.28h72.23a2.64 2.64 0 0 0 0-5.28z" fill="#3a556a"/><path d="m112.84 92.82h-75.29a1.12 1.12 0 0 0 0 2.23h75.29a1.12 1.12 0 1 0 0-2.23z" fill="#3a556a"/><path d="m73.92 93.21h2.55v6.53h-2.55z" fill="#3a556a"/><path d="m75.19 98.47a4.61 4.61 0 1 0 4.61 4.61 4.61 4.61 0 0 0 -4.61-4.61zm0 7.3a2.7 2.7 0 1 1 2.7-2.69 2.69 2.69 0 0 1 -2.7 2.69z" fill="#3a556a"/><path d="m92.17 81.13-.85 1.08 1.68 1.32h-30.61v-30.17l1.24 1.67 1.1-.82-2.94-3.96-3.11 3.94 1.08.85 1.25-1.58v31.45h31.9l-1.57 1.16.82 1.11 3.96-2.94z" fill="#2f4859"/><path d="m92.58 59.24-7.28.88 2.02 2.02-7.46 7.47-5.23-5.23-9.68 9.68 2.4 2.4 7.28-7.29 5.23 5.22 9.86-9.86 1.99 2z" fill="#e56353"/><g fill="#3a556a"><path d="m56.97 58.63h2.3v.9h-2.3z"/><path d="m56.97 62.11h2.3v.9h-2.3z"/><path d="m56.97 65.58h2.3v.9h-2.3z"/><path d="m56.97 69.06h2.3v.9h-2.3z"/><path d="m56.97 72.54h2.3v.9h-2.3z"/><path d="m56.97 76.02h2.3v.9h-2.3z"/><path d="m56.97 79.5h2.3v.9h-2.3z"/><path d="m56.97 82.98h2.3v.9h-2.3z"/><path d="m87.2 86.68h.9v2.3h-.9z"/><path d="m83.72 86.68h.9v2.3h-.9z"/><path d="m80.24 86.68h.9v2.3h-.9z"/><path d="m76.76 86.68h.9v2.3h-.9z"/><path d="m73.28 86.68h.9v2.3h-.9z"/><path d="m69.8 86.68h.9v2.3h-.9z"/><path d="m66.33 86.68h.9v2.3h-.9z"/><path d="m62.85 86.68h.9v2.3h-.9z"/></g></svg>