<svg id="Layer_1" height="512" viewBox="0 0 150 150" width="512" xmlns="http://www.w3.org/2000/svg" data-name="Layer 1"><circle cx="75" cy="75" fill="#d5d6db" r="64"/><path d="m105 93.25v3.49a.86.86 0 0 0 .86.86h8.71a.86.86 0 0 0 .86-.86v-3.49z" fill="#3a556a"/><path d="m34.57 93.25v3.49a.86.86 0 0 0 .86.86h8.71a.86.86 0 0 0 .86-.86v-3.49z" fill="#3a556a"/><rect fill="#2f4859" height="27.11" rx="5.19" width="91.16" x="29.42" y="67.9"/><circle cx="95.17" cy="68.69" fill="#3a556a" r="16.28"/><path d="m106.51 68.68a11.34 11.34 0 1 1 -11.34-11.34 9.71 9.71 0 0 1 1.21.07 11.33 11.33 0 0 1 10.13 11.27z" fill="#d5d6db"/><path d="m96.38 57.41a9.71 9.71 0 0 0 -1.21-.07 11.34 11.34 0 0 0 -11.33 11.34 11.22 11.22 0 0 0 1.3 5.26 9.55 9.55 0 0 0 1.2.07 11.34 11.34 0 0 0 11.34-11.34 11.22 11.22 0 0 0 -1.3-5.26z" fill="#e1e6e9"/><g fill="#64798a"><circle cx="37.18" cy="74.83" r="2.61"/><circle cx="45" cy="74.83" r="2.61"/><path d="m52.82 72.22a2.61 2.61 0 1 0 2.61 2.61 2.61 2.61 0 0 0 -2.61-2.61z"/><circle cx="60.64" cy="74.83" r="2.61"/></g></svg>