<svg id="Layer_1" height="512" viewBox="0 0 150 150" width="512" xmlns="http://www.w3.org/2000/svg" data-name="Layer 1"><circle cx="75" cy="75" fill="#fe7058" r="64"/><path d="m75.18 37.45a12.66 12.66 0 1 0 12.66 12.66 12.66 12.66 0 0 0 -12.66-12.66z" fill="#fcd462"/><path d="m75.18 41a9.14 9.14 0 1 0 9.14 9.14 9.14 9.14 0 0 0 -9.14-9.14z" fill="#f7be56"/><path d="m74.47 57v-1.37h-.09a4.17 4.17 0 0 1 -2.23-.81 3.93 3.93 0 0 1 -1.36-2.44l1.62-.26a2.63 2.63 0 0 0 .87 1.64 2.58 2.58 0 0 0 1.07.49h.12v-3.65h-.07a13.09 13.09 0 0 1 -1.79-.6 2.6 2.6 0 0 1 -1.53-2.4 2.75 2.75 0 0 1 .32-1.3 3 3 0 0 1 .87-1 3.8 3.8 0 0 1 1.14-.52 5.44 5.44 0 0 1 1-.18h.09v-1.35h1.41v1.35h.09a5.51 5.51 0 0 1 1.21.29 2.88 2.88 0 0 1 1.38 1 3.63 3.63 0 0 1 .6 1.54l-1.6.22a2 2 0 0 0 -.73-1.28 2.15 2.15 0 0 0 -.86-.37h-.12v3.27h.07a19.1 19.1 0 0 1 2 .66 2.76 2.76 0 0 1 1.16.93 2.64 2.64 0 0 1 .43 1.52 3.07 3.07 0 0 1 -.48 1.62 3.48 3.48 0 0 1 -1.51 1.22 5.55 5.55 0 0 1 -1.58.4h-.09v1.38zm1.41-2.65h.11a2.35 2.35 0 0 0 1.24-.49 1.63 1.63 0 0 0 .65-1.28 1.21 1.21 0 0 0 -.58-1.05 5.38 5.38 0 0 0 -1.3-.53h-.12zm-1.52-8.41a2.29 2.29 0 0 0 -1.12.39 1.33 1.33 0 0 0 -.58 1.05 1.1 1.1 0 0 0 .25.71 1.76 1.76 0 0 0 .74.51 6.15 6.15 0 0 0 .7.22h.12v-2.92z" fill="#fcd462"/><path d="m101.24 46a4.4 4.4 0 0 0 -1.57 4.65l2.85 10.51-5.12 14.53 3.6-12.12a1.27 1.27 0 0 0 -1.09-1.67 5.82 5.82 0 0 0 -6 3l-4.58 10.8s-7.23 4.3-7.64 8.22-2 13.29-2 13.29l13.39 1 1.79-5.48 12.82-16.41a5 5 0 0 0 1.06-3l.11-13.43a5.22 5.22 0 0 0 -.41-2l-4.84-11.2a1.53 1.53 0 0 0 -2.37-.69z" fill="#fcd462"/><path d="m97.4 75.69-3.2 4.28.45.55z" fill="#f7be56"/><path d="m78.79 95.45h17.37v17.1h-17.37z" fill="#029bc5"/><path d="m48.76 46a4.4 4.4 0 0 1 1.57 4.65l-2.85 10.48 5.12 14.56-3.6-12.12a1.27 1.27 0 0 1 1.09-1.67 5.82 5.82 0 0 1 6 3l4.58 10.8s7.23 4.3 7.64 8.22 2 13.29 2 13.29l-13.31.95-1.79-5.48-12.87-16.41a5 5 0 0 1 -1.06-3l-.11-13.47a5.22 5.22 0 0 1 .41-2l4.84-11.2a1.53 1.53 0 0 1 2.34-.6z" fill="#fcd462"/><path d="m52.6 75.69 3.2 4.28-.45.55z" fill="#f7be56"/><path d="m53.84 95.45h17.37v17.1h-17.37z" fill="#029bc5"/></svg>