<svg id="Layer_1" height="512" viewBox="0 0 150 150" width="512" xmlns="http://www.w3.org/2000/svg" data-name="Layer 1"><circle cx="75" cy="75" fill="#fe7058" r="64"/><path d="m117 45.53c-.11-.67-1-.89-1-.89s.67-1.27 0-1.78-1.14-.25-1.14-.25.43-1.31-.45-1.55a1.43 1.43 0 0 0 -1.46.6s1.12-4.4 1.13-5-.26-1.3-.91-1.12-1.23 2-1.32 2.44-1.14 5-1.14 5-1.12.14-1.14.49a13.43 13.43 0 0 1 -.46 1.67 3.11 3.11 0 0 0 -.09 1.6 11.42 11.42 0 0 0 1.14 3.41l-.46 1.85 4.81 1.08a23 23 0 0 0 1.55-3.58 14.26 14.26 0 0 0 .94-3.97z" fill="#fcd462"/><path d="m111.12 42.84.44-.1.44-.06h.4l.12-.26.13-.25c.09-.16.18-.33.28-.49-.05.18-.1.37-.16.55l-.09.26h.07l.23.05v.06.1.3a1.15 1.15 0 0 1 0 .32.9.9 0 0 1 -.09.32l-.07.14-.08.13a1.74 1.74 0 0 1 -.25.29l-.09.2a6 6 0 0 0 -.23.59c0 .1-.07.2-.1.3v.15.13a.56.56 0 0 0 .28.43 1.73 1.73 0 0 0 .54.23h.12c.11-.31.25-.6.39-.9s.3-.62.47-.93l.25-.45c.09-.15.16-.3.24-.46s.29-.62.43-.94a4.58 4.58 0 0 1 -.27 1 4.25 4.25 0 0 1 -.21.49c-.07.16-.16.31-.24.46-.16.31-.33.61-.51.91s-.35.57-.55.84v.09a.85.85 0 0 0 0 .38.48.48 0 0 0 .19.31 1.17 1.17 0 0 0 .35.19 2 2 0 0 0 .41.08h.1a4.11 4.11 0 0 1 .28-.6 3.37 3.37 0 0 1 .28-.38l.27-.35.27-.36.28-.36c.19-.23.38-.47.59-.69a7.74 7.74 0 0 1 -.44.8c-.08.13-.16.26-.25.38s-.17.25-.27.37a3.17 3.17 0 0 1 -.29.35 3.07 3.07 0 0 0 -.29.34 7.23 7.23 0 0 0 -.44.64.65.65 0 0 0 0 .41l.12.16.18.11h.22.22l.2-.1.2-.14a7.8 7.8 0 0 0 .71-.7q.34-.36.66-.75a9.3 9.3 0 0 1 -.59.81 6.87 6.87 0 0 1 -.68.75l-.21.17a.78.78 0 0 1 -.24.13h-.28a1.28 1.28 0 0 1 -.27 0l-.25-.14a.55.55 0 0 1 -.18-.24.79.79 0 0 1 0-.43 1.94 1.94 0 0 1 -.33-.07 1.26 1.26 0 0 1 -.43-.22.72.72 0 0 1 -.26-.45.81.81 0 0 1 0-.38l-.21-.07a2.28 2.28 0 0 1 -.3-.17.77.77 0 0 1 -.33-.12.58.58 0 0 1 -.1-.36v-.19-.16l.11-.3.15-.37-.35.18a2.61 2.61 0 0 0 -.28.17l-.23.2a3.39 3.39 0 0 0 -.29.57c-.08.2-.16.41-.23.61 0-.21.11-.42.17-.63s.07-.21.11-.31.09-.21.15-.31a1.13 1.13 0 0 1 .25-.24l.27-.19.58-.32.13-.06.21-.38a1.56 1.56 0 0 0 .15-.54 2.8 2.8 0 0 0 0-.29v-.28-.06h-.06l-.23.09h-.11l-.41.11-.44.07h-.44a3.62 3.62 0 0 1 -.46 0 3.66 3.66 0 0 1 .47-.17z" fill="#f7be56"/><path d="m108.38 50.59-3.61 20.61-14.52-1.38a19.59 19.59 0 0 1 -4.41-3.06s0 .37 0 1l-.84-.7-5.57 2.35-5.78-2.35-.54.79c0-.63 0-1 0-1s-3.21 3-9.47 3.57c-2.43.24-4.61 1.43-5.06 3.78 0 0-5.69 24.94-4.42 39.42h6.46s3.37-19.83 4.75-27.44c.07.38 1.35 13.54.19 21.5-.35 2.41-.68 4.65-1 6.82h29.3c-.29-2.17-.62-4.41-1-6.82-.76-5.35 1.64-16.68 3.5-23.46l12-.61a3.65 3.65 0 0 0 3.42-3.14l4-28.5z" fill="#2d93ba"/><path d="m74.48 60.89h10.08v8.93h-10.08z" fill="#f7be56"/><path d="m76.59 71.2 1.97 2.99-1.97 24.09 2.97 4.98 2.84-5.16-2.32-24.06 1.82-3.64-2.48-1.28z" fill="#e1e6e9"/><path d="m84.59 65.08s-.61 2.76-5.81 4l5 5.14s3.41-5 3.46-6.2z" fill="#27a2db"/><path d="m74.51 65.08s.62 2.76 5.82 4l-5.06 5.14s-3.35-5.07-3.4-6.32z" fill="#27a2db"/><path d="m86.2 53.68s1.71-1.4 1.65 1.27-1.19 4.39-2.77 4.52 1.12-5.79 1.12-5.79z" fill="#f7be56"/><path d="m72.68 53.68s-1.68-1.4-1.68 1.32 1.19 4.39 2.76 4.52-1.08-5.84-1.08-5.84z" fill="#f7be56"/><path d="m86.44 48.48-2.17-1.48-4.37-1.23v-.25l-.47.12-.43-.12v.25l-4.39 1.23-2.17 1.52.82 6.57a33.91 33.91 0 0 0 0 6.26c.32 1.92 2.13 3.68 5 4.48a4.42 4.42 0 0 0 2.42 0c2.85-.79 4.63-2.55 5-4.47a33.91 33.91 0 0 0 0-6.26z" fill="#fcd462"/><path d="m85.45 57h.55s.72-3.09 1.58-3.42c0 0 2.11-7-2.11-7.34 0 0-.2-3.06-4.08-3.13s-8.16.64-9.28 4.89.57 6 .57 6l.32 3h.71s-.94-7.42.57-8.54 4.31 2.16 9.39-.46c0 0 1.31-.68 1.77 2.48a26.85 26.85 0 0 1 .01 6.52z" fill="#3a556a"/><path d="m64.76 51.9c0-6-7.11-10.79-15.87-10.79s-15.89 4.83-15.89 10.79 7.1 10.78 15.86 10.78a22.29 22.29 0 0 0 6.84-1.06l6.3 4.38-2.46-6.08c3.2-2.02 5.22-4.86 5.22-8.02z" fill="#ebf0f3"/><path d="m48 55.48-.5-7v-2.96h2v2.94l-.47 7zm-.43 3.3v-1.86h1.87v1.86z" fill="#27a2db"/></svg>