<svg id="Layer_1" height="512" viewBox="0 0 150 150" width="512" xmlns="http://www.w3.org/2000/svg" data-name="Layer 1"><circle cx="75" cy="75" fill="#77b3d5" r="64"/><rect fill="#985b3f" height="71.28" rx="2.45" width="57.13" x="46.44" y="42"/><path d="m51.36 46.86h47.28v61.57h-47.28z" fill="#ebf0f3"/><path d="m95.06 96.56h-36.32v-38.52h1.21v37.31h35.11z" fill="#2f4859"/><path d="m69 67.52c-4.94 0-9 27.86-9 27.86h18s-4.08-27.86-9-27.86z" fill="#f7be56"/><path d="m78.93 71.9c-4.17 0-7.56 23.48-7.56 23.48h15.13s-3.4-23.48-7.57-23.48z" fill="#44c4a1"/><path d="m87.87 75.47c-3.54 0-6.42 19.91-6.42 19.91h12.84s-2.89-19.91-6.42-19.91z" fill="#e56353"/><g fill="#3a556a"><path d="m54.94 59.86h2.88v.52h-2.88z"/><path d="m54.94 62.71h2.88v.52h-2.88z"/><path d="m54.94 65.55h2.88v.52h-2.88z"/><path d="m54.94 68.39h2.88v.52h-2.88z"/><path d="m54.94 71.24h2.88v.52h-2.88z"/><path d="m54.94 74.08h2.88v.52h-2.88z"/><path d="m54.94 76.93h2.88v.52h-2.88z"/><path d="m54.94 79.77h2.88v.52h-2.88z"/><path d="m54.94 82.61h2.88v.52h-2.88z"/><path d="m54.94 85.46h2.88v.52h-2.88z"/><path d="m54.94 88.3h2.88v.52h-2.88z"/><path d="m54.94 91.14h2.88v.52h-2.88z"/><path d="m54.94 93.99h2.88v.52h-2.88z"/><path d="m84 40.19h-3.9a1.27 1.27 0 0 1 -1.27-1.27v-.92a1.27 1.27 0 0 0 -1.27-1.27h-5.12a1.27 1.27 0 0 0 -1.27 1.27v.93a1.27 1.27 0 0 1 -1.27 1.27h-3.9a1.27 1.27 0 0 0 -1.27 1.27v7a1.27 1.27 0 0 0 1.27 1.23h18a1.27 1.27 0 0 0 1.27-1.28v-7a1.27 1.27 0 0 0 -1.27-1.23z"/></g></svg>