<svg id="Layer_1" height="512" viewBox="0 0 150 150" width="512" xmlns="http://www.w3.org/2000/svg" data-name="Layer 1"><circle cx="75" cy="75" fill="#709584" r="64"/><path d="m104.89 95.52-35.28 4.68-25.5-4.68-6.85-35.68 21.64 20.39 16.22-28.22 15.28 28.22 21.34-20.39z" fill="#fcd462"/><path d="m44.11 95.51v7.7h60.81v-7.69z" fill="#f7be56"/><circle cx="111.98" cy="59.63" fill="#fcd462" r="7.27"/><path d="m117.16 54.53a7.37 7.37 0 0 1 .38 2.32 7.28 7.28 0 0 1 -7.26 7.27 7.2 7.2 0 0 1 -5.2-2.2 7.27 7.27 0 1 0 12.08-7.39z" fill="#f7be56"/><circle cx="38.02" cy="59.63" fill="#fcd462" r="7.27"/><path d="m43.2 54.53a7.37 7.37 0 0 1 .37 2.32 7.27 7.27 0 0 1 -7.26 7.27 7.19 7.19 0 0 1 -5.19-2.2 7.27 7.27 0 1 0 12.08-7.39z" fill="#f7be56"/><circle cx="74.5" cy="54.06" fill="#fcd462" r="7.27"/><path d="m79.68 49a7.36 7.36 0 0 1 .38 2.31 7.26 7.26 0 0 1 -12.46 5.04 7.27 7.27 0 1 0 12.08-7.35z" fill="#f7be56"/><ellipse cx="74.91" cy="84.27" fill="#f7be56" rx="6.29" ry="9.07"/><ellipse cx="74.91" cy="84.27" fill="#e56353" rx="4.62" ry="7.3"/><path d="m79.54 84.27c0 4-2.07 7.3-4.63 7.3-1.66 0-3.12-1.4-3.94-3.5a4 4 0 0 0 3.24 2.09c2.56 0 4.62-3.27 4.62-7.29a10.39 10.39 0 0 0 -.69-3.81 9.69 9.69 0 0 1 1.4 5.21z" fill="#d15241"/></svg>