<svg id="Layer_1" height="512" viewBox="0 0 150 150" width="512" xmlns="http://www.w3.org/2000/svg" data-name="Layer 1"><path d="m139 75a64 64 0 1 1 -64-64 64 64 0 0 1 64 64" fill="#21b3a9"/><path d="m51.44 70.18a2.85 2.85 0 0 1 -2-.85 2.88 2.88 0 0 1 0-4.08 2.87 2.87 0 0 1 4.08 0 2.88 2.88 0 0 1 0 4.08 2.85 2.85 0 0 1 -2 .85m0-7.34a5.65 5.65 0 1 1 4-1.65 5.67 5.67 0 0 1 -4 1.65m-1.19-16a18.24 18.24 0 1 0 12.9 5.34 18.19 18.19 0 0 0 -12.9-5.34" fill="#86d2ce"/><path d="m51.44 51.54a5.65 5.65 0 1 0 4 1.65 5.67 5.67 0 0 0 -4-1.65" fill="#9fdad7"/><path d="m51.44 64.4a2.85 2.85 0 0 0 -2 .85 2.88 2.88 0 0 0 0 4.08 2.87 2.87 0 0 0 4.08 0 2.88 2.88 0 0 0 0-4.08 2.85 2.85 0 0 0 -2-.85" fill="#9fdad7"/><path d="m71.45 83.64-2.6 2.6-4.96-4.96 2.6-2.6z" fill="#2f4859"/><path d="m34.69 49.47a22 22 0 1 0 31.12 0 22 22 0 0 0 -31.12 0zm27.78 27.78a17.27 17.27 0 1 1 0-24.43 17.28 17.28 0 0 1 0 24.43z" fill="#3a556a"/><path d="m69.17 79.55-4.41 4.45a1 1 0 0 1 -1.38 0l-2.2-2.2 5.82-5.8 2.2 2.21a1 1 0 0 1 -.03 1.34z" fill="#3a556a"/><path d="m91 102.53-3.3 3.3a1.76 1.76 0 0 1 -2.49 0l-18.84-18.83a1 1 0 0 1 0-1.38l4.41-4.4a1 1 0 0 1 1.38 0l18.84 18.78a1.77 1.77 0 0 1 0 2.49" fill="#3a556a"/><path d="m68.85 86.24-.84.85 8.22 8.22.84-.84z" fill="#667c8c"/><path d="m77.96 95.36-.84.84 1.07 1.07.84-.84z" fill="#667c8c"/><path d="m88.86 81.18-3.22-2.29-13.03 2.62 6.58 6.63z" fill="#f2c861"/><path d="m85.64 78.89-11.12 11.12 14.66 14.67 11.12-11.12 3.55-8.67-9.27-9.27z" fill="#f2c861"/><g fill="#fcd462"><path d="m82.14 90-6.91 6.91a2.7 2.7 0 1 1 -3.81-3.82l6.9-6.91a2.7 2.7 0 0 1 3.82 3.82z"/><path d="m86 93.83-6.9 6.91a2.7 2.7 0 1 1 -3.82-3.81l6.86-6.93a2.69 2.69 0 0 1 3.86 3.83z"/><path d="m89.77 97.65-6.91 6.91a2.7 2.7 0 1 1 -3.81-3.82l6.95-6.91a2.7 2.7 0 0 1 3.82 3.82z"/><path d="m93.2 100.63-5.64 5.64a2.39 2.39 0 1 1 -3.38-3.37l5.64-5.64a2.39 2.39 0 0 1 3.38 3.37z"/></g><path d="m91.48 65.21h27.55v19.14h-27.55z" fill="#fe7058" transform="matrix(.707 -.707 .707 .707 -22.05 96.33)"/></svg>