<svg id="Layer_1" height="512" viewBox="0 0 150 150" width="512" xmlns="http://www.w3.org/2000/svg" data-name="Layer 1"><circle cx="75" cy="75" fill="#fcd462" r="64"/><path d="m75 37.65s-11.09 6.2-34 4.88v25.66s1.27 38.35 34 44.16c32.73-5.81 34.05-44.16 34.05-44.16v-25.66c-22.96 1.32-34.05-4.88-34.05-4.88z" fill="#e56353"/><path d="m102.75 48.54c-14.3 0-23.43-2.76-27.75-4.49-4.32 1.73-13.45 4.49-27.75 4.49h-.47v19.53a48.46 48.46 0 0 0 1 7.16c2.08 10 8.37 27.27 27.22 31.18 19-3.93 25.24-21.16 27.27-31.18a48.94 48.94 0 0 0 1-7.16v-19.53z" fill="#d15241"/><path d="m75 58.29a15.09 15.09 0 1 0 15.08 15.09 15.09 15.09 0 0 0 -15.08-15.09z" fill="#ebf0f3"/><path d="m72.43 81.06-6.86-6.85 3.38-3.38 3.48 3.48 8.62-8.62 3.38 3.37z" fill="#2f4859"/></svg>