<?xml version="1.0"?>
<svg xmlns="http://www.w3.org/2000/svg" id="Layer_1" data-name="Layer 1" viewBox="0 0 150 150" width="512" height="512"><circle cx="75" cy="75" r="64" fill="#2f4859"/><path d="M87.69,69.59V62.45l-7.23-1.32a22.07,22.07,0,0,0-2.9-7l4.18-6-5-5.05-6,4.18a22.26,22.26,0,0,0-7-2.91l-1.32-7.22H55.19l-1.32,7.23a21.92,21.92,0,0,0-7,2.9L40.82,43l-5,5.05,4.18,6a22.09,22.09,0,0,0-2.91,7l-7.22,1.32v7.14l7.22,1.32a21.92,21.92,0,0,0,2.9,7l-4.17,6,5,5,6-4.18a22.2,22.2,0,0,0,7,2.9L55.19,95h7.14l1.32-7.23a22,22,0,0,0,7-2.9l6,4.18,5-5-4.18-6a22.32,22.32,0,0,0,2.91-7ZM58.76,76.9A10.89,10.89,0,1,1,69.65,66,10.87,10.87,0,0,1,58.76,76.9Z" fill="#d5d6db"/><path d="M58.76,83.59A17.57,17.57,0,1,1,76.33,66,17.59,17.59,0,0,1,58.76,83.59Zm0-32.14A14.57,14.57,0,1,0,73.33,66,14.58,14.58,0,0,0,58.76,51.45Z" fill="#e1e6e9"/><path d="M120.17,94.65V89.5l-5.2-1a15.85,15.85,0,0,0-2.09-5l3-4.36-3.64-3.64-4.35,3a16.24,16.24,0,0,0-5-2.09l-1-5.2H96.77l-1,5.2a15.87,15.87,0,0,0-5,2.1l-4.36-3-3.63,3.64,3,4.36a15.87,15.87,0,0,0-2.1,5l-5.2,1v5.15l5.2.95a16.24,16.24,0,0,0,2.09,5l-3,4.35,3.63,3.64,4.36-3a16.09,16.09,0,0,0,5,2.09l1,5.2h5.14l1-5.2a16.14,16.14,0,0,0,5-2.09l4.35,3,3.64-3.64-3-4.35a15.68,15.68,0,0,0,2.09-5ZM99.34,99.91a7.84,7.84,0,1,1,7.84-7.83A7.83,7.83,0,0,1,99.34,99.91Z" fill="#77b3d5"/><path d="M99.34,104.73A12.66,12.66,0,1,1,112,92.08,12.67,12.67,0,0,1,99.34,104.73Zm0-23.15a10.5,10.5,0,1,0,10.49,10.5A10.51,10.51,0,0,0,99.34,81.58Z" fill="#89c5cd"/></svg>
