<svg id="Layer_1" height="512" viewBox="0 0 150 150" width="512" xmlns="http://www.w3.org/2000/svg" data-name="Layer 1"><circle cx="75" cy="75" fill="#2f4859" r="64"/><path d="m49 45a3.93 3.93 0 0 0 -4 4v26h30v-30z" fill="#fe7058"/><path d="m45 75v26a3.93 3.93 0 0 0 4 4h26v-30z" fill="#029bc5"/><path d="m101 45h-26v30h30v-26a3.93 3.93 0 0 0 -4-4z" fill="#fcd462"/><path d="m91.6 75v-2.94c1.6-.52 2.72-1.63 2.72-2.92 0-1.79-2.12-3.24-4.73-3.24s-4.73 1.45-4.73 3.24c0 1.29 1.11 2.4 2.71 2.92v2.94h-12.57v13h-3.08c-.52-1.6-1.63-2.71-2.92-2.71-1.79 0-3.24 2.12-3.24 4.73s1.45 4.73 3.24 4.73c1.29 0 2.4-1.11 2.92-2.72h3.08v13h26a3.93 3.93 0 0 0 4-4.03v-26z" fill="#ebf0f3"/><path d="m63.81 68.54c0-1.78-2.11-3.23-4.73-3.23s-4.72 1.45-4.72 3.23c0 1.3 1.11 2.41 2.71 2.92v5.09h4v-5.09c1.63-.46 2.74-1.62 2.74-2.92z" fill="#029bc5"/><path d="m80.94 64.75c1.79 0 3.23-2.12 3.23-4.73s-1.44-4.73-3.23-4.73c-1.29 0-2.4 1.11-2.92 2.72h-5.08v4h5.06c.54 1.63 1.65 2.74 2.94 2.74z" fill="#fe7058"/></svg>