<svg id="Layer_1" height="512" viewBox="0 0 150 150" width="512" xmlns="http://www.w3.org/2000/svg" data-name="Layer 1"><circle cx="75" cy="75" fill="#21b3a9" r="64"/><path d="m70.89 44.07h8.24v8.35h-8.24z" fill="#f7be56"/><path d="m88.46 53.79a8.22 8.22 0 0 0 -3.83-2.79l-3.95-1.3-1.55-.52-.85-.28-3.28 3.49-3.28-3.48-.84.28-1.56.52-3.93 1.29a8.07 8.07 0 0 0 -3.54 2.41 8.29 8.29 0 0 0 -2 5.47v7.33h30.26v-7.34a8.26 8.26 0 0 0 -1.65-5.08z" fill="#d15241"/><path d="m77.07 54.19-1-1.77h-2.07l-1 1.77.26.46.74 1.25-.7 10.32a33.28 33.28 0 0 0 3.46 0l-.67-10.33.71-1.22z" fill="#e1e6e9"/><path d="m79.15 47.57-4.14 4.82 2.61 3.34 3.06-6.02z" fill="#e56353"/><path d="m70.86 47.57 4.15 4.82-2.62 3.34-3.06-6.02z" fill="#e56353"/><path d="m81.64 38.27c-.5-.08-1.07.83-1.27 2s0 2.26.54 2.35 1.07-.84 1.27-2.05-.04-2.21-.54-2.3z" fill="#f7be56"/><path d="m68.36 38.27c.5-.08 1.07.83 1.27 2s0 2.26-.54 2.35-1.07-.84-1.27-2.05.04-2.21.54-2.3z" fill="#f7be56"/><path d="m81.05 39.79c0 5-2.7 9.12-6 9.12s-6-4.08-6-9.12 1.75-9.65 6-9.65c4.46 0 6 4.61 6 9.65z" fill="#fcd462"/><path d="m81.53 33.69c-.28-4.56-6.53-4.78-6.53-4.78s-6.24.22-6.52 4.78a28.2 28.2 0 0 0 .52 7.84h.19a36.24 36.24 0 0 0 .42-5c0-2.16.62-2.27.62-2.27a9.3 9.3 0 0 0 4.74 1 9.33 9.33 0 0 0 4.75-1s.65.11.61 2.27a35.54 35.54 0 0 0 .43 5h.24a28.67 28.67 0 0 0 .53-7.84z" fill="#3a556a"/><path d="m94.88 121.08h-39.76l-3.92-55.17h47.6z" fill="#f7be56"/><g fill="#fcd462"><path d="m56.52 78.29 2.48 35.41a3.18 3.18 0 0 1 3.17 3h25.62a3.17 3.17 0 0 1 3.17-3l2.52-35.41a3.18 3.18 0 0 1 -3.18-3.4h-30.6a3.18 3.18 0 0 1 -3.18 3.4z"/><rect height="6.85" rx="1.46" width="57.01" x="46.5" y="62.48"/></g></svg>