<svg id="Layer_1" height="512" viewBox="0 0 150 150" width="512" xmlns="http://www.w3.org/2000/svg" data-name="Layer 1"><circle cx="75" cy="75" fill="#2f4859" r="64"/><path d="m59.92 52.13 18.26-14.56h13.35v.74a6.78 6.78 0 0 1 -6 7l-4.53.57-11.25 16.32 24.4 33.73s-15 4.31-28.59 4.31l-13.83 5.27-8.87-22.76z" fill="#fcd462"/><path d="m86.21 50.09h4.07v4.08h-4.07z" fill="#2d93ba"/><path d="m88.25 52.64a22.69 22.69 0 1 0 22.68 22.68 22.69 22.69 0 0 0 -22.68-22.68z" fill="#27a2db"/><path d="m88.25 57a18.33 18.33 0 1 0 18.32 18.32 18.33 18.33 0 0 0 -18.32-18.32z" fill="#ebf0f3"/><path d="m88.37 63.34a.13.13 0 0 0 -.25 0l-2.12 16.83h4.58z" fill="#2f4859"/><path d="m88.25 72.81a2.88 2.88 0 1 0 2.88 2.88 2.88 2.88 0 0 0 -2.88-2.88z" fill="#3a556a"/><path d="m88.25 73.72a2 2 0 1 0 2 2 2 2 0 0 0 -2-2z" fill="#64798a"/><rect fill="#27a2db" height="5.14" rx=".69" width="11.8" x="82.34" y="45.88"/><g fill="#2d93ba"><path d="m83.64 46.77a.37.37 0 0 0 -.37.37v2.61a.37.37 0 0 0 .74 0v-2.61a.37.37 0 0 0 -.37-.37z"/><path d="m85.18 46.77a.36.36 0 0 0 -.37.37v2.61a.37.37 0 1 0 .73 0v-2.61a.36.36 0 0 0 -.36-.37z"/><path d="m86.71 46.77a.37.37 0 0 0 -.37.37v2.61a.37.37 0 1 0 .74 0v-2.61a.37.37 0 0 0 -.37-.37z"/><path d="m88.25 46.77a.36.36 0 0 0 -.37.37v2.61a.37.37 0 0 0 .37.37.38.38 0 0 0 .37-.37v-2.61a.37.37 0 0 0 -.37-.37z"/><path d="m89.78 46.77a.37.37 0 0 0 -.37.37v2.61a.38.38 0 0 0 .37.37.37.37 0 0 0 .37-.37v-2.61a.36.36 0 0 0 -.37-.37z"/><path d="m91.32 46.77a.36.36 0 0 0 -.37.37v2.61a.37.37 0 0 0 .37.37.38.38 0 0 0 .37-.37v-2.61a.37.37 0 0 0 -.37-.37z"/><path d="m92.85 46.77a.37.37 0 0 0 -.37.37v2.61a.38.38 0 0 0 .37.37.37.37 0 0 0 .37-.37v-2.61a.36.36 0 0 0 -.37-.37z"/></g><path d="m87.88 57.92h.74v2.14h-.74z" fill="#3a556a"/><path d="m87.88 90.59h.74v2.14h-.74z" fill="#3a556a"/><path d="m103.51 74.96h2.14v.74h-2.14z" fill="#3a556a"/><path d="m70.84 74.96h2.14v.74h-2.14z" fill="#3a556a"/><path d="m106 53.56-4.91 3a3.83 3.83 0 0 0 4 6.56l4.92-3a3.84 3.84 0 0 0 -4-6.56z" fill="#fcd462"/><path d="m110.86 61.79-5.44 1.86a3.84 3.84 0 1 0 2.45 7.27l5.45-1.86a3.84 3.84 0 0 0 -2.46-7.27z" fill="#fcd462"/><path d="m113 70.8-5.72.69a3.84 3.84 0 0 0 .89 7.62l5.71-.69a3.84 3.84 0 0 0 -.88-7.62z" fill="#fcd462"/><path d="m111.57 79.92-5.14-.47a3.44 3.44 0 0 0 -.65 6.85l5.14.46a3.44 3.44 0 0 0 .65-6.84z" fill="#fcd462"/><path d="m45.78 73.05 16.71 32.32-13.33 7.06-16.38-33.05z" fill="#fe7058"/></svg>