<svg id="Layer_1" height="512" viewBox="0 0 150 150" width="512" xmlns="http://www.w3.org/2000/svg" data-name="Layer 1"><circle cx="75" cy="75" fill="#709584" r="64"/><path d="m93.14 114.57h-36.28c0-9.44 6.59-11.18 6.59-11.18a9.8 9.8 0 0 1 4.85-9v-29.2l-4.93-9.25a7.54 7.54 0 0 1 3.44-8.63q8.61-5.1 16.64-.1a7.52 7.52 0 0 1 3.25 8.51l-5 9.47v29.25a9.8 9.8 0 0 1 4.85 9s6.59 1.69 6.59 11.13z" fill="#fcd462"/><path d="m94.8 113.66h-39.59a2 2 0 1 0 0 4.06h39.59a2 2 0 1 0 0-4.06z" fill="#f7be56"/><path d="m75 32.28a3 3 0 0 0 -3 3v20.17h6v-20.14a3 3 0 0 0 -3-3.03z" fill="#fcd462"/><path d="m86.55 103.39h-23.1a9.8 9.8 0 0 1 4.85-9h13.4a9.8 9.8 0 0 1 4.85 9z" fill="#f7be56"/></svg>