<svg id="Layer_1" height="512" viewBox="0 0 150 150" width="512" xmlns="http://www.w3.org/2000/svg" data-name="Layer 1"><path d="m139 75a64 64 0 1 1 -64-64 64 64 0 0 1 64 64" fill="#fe7058"/><path d="m59.03 40.1h.88v16.38h-.88z" fill="#3a556a"/><path d="m106.27 79.23-1.34-2.63h-12.29l-2.03 3.97-7.25 14.16-8.12 15.88h47.08z" fill="#2f4859"/><path d="m91.49 110.6h-63.81l20.83-40.72a2.55 2.55 0 0 0 .66.12 12.47 12.47 0 0 0 3.83-.69 4.77 4.77 0 0 1 3.73.23c.58.37 1 .92 1.56 1.33a5.63 5.63 0 0 0 4.39.67 41.56 41.56 0 0 1 4.47-.89 15.58 15.58 0 0 1 1.81 0 14.25 14.25 0 0 0 2 0h.19l12.21 24.08z" fill="#3a556a"/><path d="m71.07 70.67c-1.31.13-2.62-.12-4 0a41.56 41.56 0 0 0 -4.47.89 5.63 5.63 0 0 1 -4.39-.67c-.55-.41-1-1-1.56-1.33a4.77 4.77 0 0 0 -3.65-.25 12.43 12.43 0 0 1 -3.84.69l-.36-.61 9.08-17.76a2 2 0 0 1 3.48 0z" fill="#ebf0f3"/><path d="m99.89 66.75a1.24 1.24 0 0 0 -2.21 0l-7.07 13.82a1.66 1.66 0 0 0 1.32.12 3.35 3.35 0 0 0 .8-.5 4.45 4.45 0 0 1 4-.57 2.72 2.72 0 0 0 .95.24c.59 0 1-.56 1.46-.91a2.86 2.86 0 0 1 2.83-.36c.94.4 1.74 1.31 2.73 1.17a6.16 6.16 0 0 0 1.07-.38l.47-.15z" fill="#ebf0f3"/><path d="m68.44 45.33c-3.13-4.6-6.27 4.61-9.41 0v-4.6c3.14 4.6 6.28-4.61 9.41 0z" fill="#fcd462"/><g fill="#344e61"><path d="m51.2 80-9.14 11.37-3.2 11.51s7.48-8.47 7.83-9.28 9-1.52 9-1.52l1.78-11.3z"/><path d="m70.3 72.38-1.7 4.22v5.04l11.62 18.14-3.97-10.5-.47-5.32z"/><path d="m63.79 86.68-5.43 10.85 4.21 9.85-.33-7.6 4.43-.7v-8.3z"/></g><path d="m60.21 53.71v3.85l3.12 6.5.41 4.27 1.2-4.27-1.92-4.73-.83-4.94-1.56-2.39z" fill="#d5d6db"/><path d="m57.66 59.38-.68-.47-3.01 4.27-.26 4.31 1.09-2.96 4.23-.83z" fill="#d5d6db"/><path d="m107.41 81.45 14.91 29.16z" fill="#92554f"/><path d="m107.41 81.45-.45 6.28-5.81-4v6.1l4.41 9.02 16.76 11.76z" fill="#2a4150"/><path d="m95.34 82.13-5.4 4.55 1.55 6.06-1.55 5.31 4.1 10.01 2.51-5.18-2.51-9.28z" fill="#2a4150"/></svg>