<svg id="Layer_1" height="512" viewBox="0 0 150 150" width="512" xmlns="http://www.w3.org/2000/svg" data-name="Layer 1"><circle cx="75" cy="75" fill="#d5d6db" r="64"/><rect fill="#3a556a" height="83.72" rx="3.98" width="51.83" x="49.09" y="33.14"/><path d="m51.89 45.33h46.22v57.31h-46.22z" fill="#27a2db"/><path d="m66.18 73.99h7.42v7.52h-7.42z" fill="#f7be56"/><path d="m83.65 95.07v-8.43a7.75 7.75 0 0 0 -5.09-6.39l-5.72-1.89-2.94 3.13-3-3.13-5.72 1.89a7.75 7.75 0 0 0 -5.09 6.39v8.43z" fill="#d5d6db"/><path d="m68.34 95.07h3.14l-.61-10.43.88-1.53-.92-1.59h-1.85l-.92 1.59.89 1.54z" fill="#e56353"/><path d="m73.63 77.15-3.73 4.34 2.35 3.01 2.76-5.42z" fill="#ebf0f3"/><path d="m66.16 77.15 3.74 4.34-2.36 3.01-2.76-5.42z" fill="#ebf0f3"/><path d="m75.9 69c-.42 0-.87.75-1 1.8s.11 1.93.53 2 .86-.75 1-1.8-.11-2-.53-2z" fill="#fcd462"/><path d="m63.89 69c.42 0 .87.75 1 1.8s-.11 1.93-.53 2-.86-.75-1-1.8.11-2 .53-2z" fill="#fcd462"/><path d="m74.91 64.16-1.91-1.23h-6.08l-1.92 1.23-.87 3.25.25 3a24 24 0 0 0 .41 3.59c.3 1 .67 1.23 1.67 2.42s1.54 2 3.5 1.93c2 .09 2.5-.74 3.5-1.93s1.37-1.42 1.66-2.42a24.37 24.37 0 0 0 .42-3.59l.25-3z" fill="#fcd462"/><path d="m75.27 71.15a11.78 11.78 0 0 0 .73-4.15c-.1-1.87-.29-4.94-2.86-4.9 0 0-.16-1.29-2.38-1.29a8.24 8.24 0 0 0 -5.89 2.53c-1.12 1.41-1 3.08-.85 4.64s.33 2.65.33 2.65h.43a7.49 7.49 0 0 1 .29-2.77c.43-1-.15-3 1-3.54 0 0 .14 1.59.91 1.56 0 0 2.27-1.72 3.82-1.76s1.78-.27 1.78-.27.26-.31 1.06 1.32a8.33 8.33 0 0 1 1.2 4 7.46 7.46 0 0 0 .2 2z" fill="#3a556a"/><rect fill="#2f4859" height="5.25" rx="1.58" width="8.44" x="70.79" y="107.68"/><path d="m68 37.98h14v2.34h-14z" fill="#2f4859"/><path d="m96.53 60.15h-17.48v12.05h2.02v4.11l2.19-4.11h13.27z" fill="#ebf0f3"/><g fill="#3a556a"><circle cx="83.69" cy="66.03" r="1.18"/><circle cx="87.79" cy="66.03" r="1.18"/><circle cx="91.89" cy="66.03" r="1.18"/></g></svg>