<svg id="Layer_1" height="512" viewBox="0 0 150 150" width="512" xmlns="http://www.w3.org/2000/svg" data-name="Layer 1"><circle cx="75" cy="75" fill="#d5d6db" r="64"/><g fill="#3a556a"><path d="m105 107.37h-14.08a2.35 2.35 0 0 1 0-4.7h11.75v-11.75a2.35 2.35 0 0 1 4.7 0v14.08a2.35 2.35 0 0 1 -2.37 2.37z"/><path d="m59.08 107.37h-14.08a2.35 2.35 0 0 1 -2.37-2.37v-14.08a2.35 2.35 0 1 1 4.7 0v11.75h11.75a2.35 2.35 0 1 1 0 4.7z"/><path d="m45 61.43a2.35 2.35 0 0 1 -2.35-2.35v-14.08a2.35 2.35 0 0 1 2.35-2.37h14.1a2.35 2.35 0 1 1 0 4.7h-11.77v11.75a2.35 2.35 0 0 1 -2.33 2.35z"/><path d="m105 61.43a2.35 2.35 0 0 1 -2.35-2.35v-11.75h-11.73a2.35 2.35 0 0 1 0-4.7h14.08a2.35 2.35 0 0 1 2.37 2.37v14.1a2.35 2.35 0 0 1 -2.37 2.33z"/><path d="m114 72.28h-13.29a2.72 2.72 0 1 0 0 5.44h13.29a2.72 2.72 0 0 0 0-5.44z"/><path d="m49.29 72.28h-13.29a2.72 2.72 0 1 0 0 5.44h13.29a2.72 2.72 0 1 0 0-5.44z"/><path d="m77.72 114v-13.29a2.72 2.72 0 1 0 -5.44 0v13.29a2.72 2.72 0 0 0 5.44 0z"/><path d="m77.72 49.29v-13.29a2.72 2.72 0 1 0 -5.44 0v13.29a2.72 2.72 0 1 0 5.44 0z"/></g><circle cx="75" cy="75" fill="#e56353" r="11.92"/><circle cx="75" cy="75" fill="#ebf0f3" r="7.08"/></svg>