<svg id="Layer_1" height="512" viewBox="0 0 150 150" width="512" xmlns="http://www.w3.org/2000/svg" data-name="Layer 1"><circle cx="75" cy="75" fill="#21b3a9" r="64"/><path d="m122.86 80.6c-.24-4.45-.75-9.74-1.86-11.85-1.52-2.88-6.32-4.16-8.76-4.63-.35-.07-.65-.12-.89-.15h-.11-.15l-.31-.05h-.59-.29l-1.65-.11-2.25 1-2.26-1-1.65.11h-.3-.58l-.33.05h-.08-.09-.08l-.55.09h-.18c-2.39.45-7.36 1.72-8.91 4.66-1.11 2.11-1.62 7.4-1.86 11.85z" fill="#2f4859"/><path d="m102.76 59.27h6.46v5.44h-6.46z" fill="#f7be56"/><g fill="#fcd462"><path d="m99.14 51.52c.62-.1 1.29.86 1.5 2.14s-.13 2.41-.75 2.51-1.29-.86-1.5-2.14.13-2.41.75-2.51z"/><path d="m112.74 51.52c-.62-.1-1.3.86-1.5 2.14s.12 2.41.75 2.51 1.29-.86 1.5-2.14-.13-2.41-.75-2.51z"/><path d="m106 43.46c-3.66 0-6.62 4.12-6.62 9.21s3 9.2 6.62 9.2 6.61-4.12 6.61-9.2-2.96-9.21-6.61-9.21z"/></g><path d="m112.36 44.29c-3.85-4.32-10.45-2.07-12.39-.36-2.25 2-.78 7.1-.65 9.46a.42.42 0 0 0 .42.4.41.41 0 0 0 .41-.38c.16-1.68.14-6 1-6.37 2.23 3.87 7-3.19 9.89 2.48.59.7.84 2.47.94 3.88a.41.41 0 0 0 .42.39.43.43 0 0 0 .42-.4c.11-2.39.85-7.63-.46-9.1z" fill="#3a556a"/><path d="m104.37 80.6h3.25l-.86-11.9 1.81-2.53-2.57-1.47-2.58 1.47 1.81 2.53z" fill="#e1e6e9"/><path d="m109.23 62.11-3.23 2.59 2.73 3.02 2.05-3.85z" fill="#3a556a"/><path d="m102.76 62.11 3.24 2.59-3.04 2.95-1.75-3.78z" fill="#3a556a"/><path d="m60.87 80.6c-.24-4.45-.75-9.74-1.86-11.85-1.52-2.88-6.32-4.16-8.76-4.63-.35-.12-.65-.12-.89-.12h-.11-.15l-.31-.05h-.59-.29l-1.65-.11-2.26 1-2.25-1-1.65.11h-.31-.57l-.33.05h-.08-.09-.08l-.55.09h-.18c-2.39.45-7.36 1.72-8.91 4.66-1.11 2.11-1.62 7.4-1.86 11.85z" fill="#e1e6e9"/><path d="m40.77 59.27h6.46v5.44h-6.46z" fill="#f7be56"/><path d="m37.15 51.52c.62-.1 1.29.86 1.5 2.14s-.13 2.41-.75 2.51-1.29-.86-1.5-2.14.13-2.41.75-2.51z" fill="#fcd462"/><path d="m50.75 51.52c-.62-.1-1.3.86-1.5 2.14s.12 2.41.75 2.51 1.29-.86 1.5-2.14-.13-2.41-.75-2.51z" fill="#fcd462"/><path d="m44 43.46c-3.65 0-6.61 4.12-6.61 9.21s3 9.2 6.61 9.2 6.62-4.12 6.62-9.2-2.96-9.21-6.62-9.21z" fill="#fcd462"/><path d="m50.88 44.45a6.71 6.71 0 0 0 -3.51-1.19c-1.06-3-7.45-1-9.39.67-2.25 2-.78 7.1-.65 9.46a.42.42 0 0 0 .42.4.41.41 0 0 0 .41-.38c.16-1.68.14-6 1-6.37 2.23 3.87 6.31 3.82 9.89 2.48.59.7.84 2.47.94 3.88a.41.41 0 0 0 .41.39.43.43 0 0 0 .43-.4c.11-2.39 1.56-7.67.05-8.94z" fill="#3a556a"/><path d="m42.38 80.6h3.25l-.86-11.9 1.81-2.53-2.57-1.47-2.58 1.47 1.81 2.53z" fill="#e56353"/><path d="m47.24 62.11-3.23 2.59 2.73 3.02 2.05-3.85z" fill="#ebf0f3"/><path d="m40.77 62.11 3.24 2.59-3.04 2.95-1.75-3.78z" fill="#ebf0f3"/><path d="m99.7 108.28c-.36-6.75-1.13-14.78-2.82-18-2.3-4.37-9.59-6.31-13.29-7l-1.35-.28h-.16-.08-.1l-.47-.06-.89-.06h-.44l-2.5-.18-3.43 1.53-3.43-1.53-2.5.18h-.46l-.87.06-.5.07h-.12-.14l-.15-.01-.83.14h-.27c-3.63.69-11.17 2.62-13.52 7.08-1.69 3.19-2.46 11.22-2.82 18z" fill="#fe7058"/><path d="m69.22 75.92h9.8v8.25h-9.8z" fill="#f7be56"/><path d="m71.66 108.28h4.93l-1.31-18.04 2.75-3.84-3.91-2.23-3.91 2.23 2.75 3.84z" fill="#e1e6e9"/><path d="m79.02 80.23-4.9 3.94 4.15 4.57 3.11-5.83z" fill="#ea6453"/><path d="m69.22 80.23 4.9 3.94-4.61 4.47-2.65-5.73z" fill="#ea6453"/><path d="m83.09 66.52s.71-1.49 1.52-1.34 1.06.09.78 1.81-.19 1.17-.4 2.63-.63 4.12-2.51 2.57.61-5.67.61-5.67z" fill="#fcd462"/><path d="m82.8 56.64c-1.36-2.54-8.37-2.33-8.37-2.33s-7-.21-8.37 2.33-.57 9-.57 9a22.11 22.11 0 0 0 .57 6.63 8.88 8.88 0 0 0 4.33 6.41 7.64 7.64 0 0 0 8.08 0 8.93 8.93 0 0 0 4.33-6.41 22.27 22.27 0 0 0 .56-6.63s.8-6.47-.56-9z" fill="#fcd462"/><path d="m65.76 66.52s-.7-1.49-1.52-1.34-1.06.09-.78 1.81.19 1.17.41 2.63.62 4.12 2.5 2.57-.61-5.67-.61-5.67z" fill="#fcd462"/><path d="m83.08 67.64h.64s2.69-9.36 2.74-11.11a1.83 1.83 0 0 0 -1.69-1.9s2.06-6.2-6.08-7-12.32 1.87-14.28 4.94-.68 10-.31 11.47 1.05 3.6 1.05 3.6h.75s-.8-6.46.63-9 2.37-3.45 5.23-2.54c6.61 2.12 10.79.48 10.79.48s.19 4.82.58 7.09a10.72 10.72 0 0 1 -.05 3.97z" fill="#2f4859"/></svg>