<svg id="Layer_1" height="512" viewBox="0 0 150 150" width="512" xmlns="http://www.w3.org/2000/svg" data-name="Layer 1"><circle cx="75" cy="75" fill="#029bc5" r="64"/><path d="m90.16 87.86a16.24 16.24 0 0 0 -7.62-5.52l-7.83-2.59-3.09-1-1.62-.58-6.49 6.9-6.52-6.9-1.67.56-3.09 1-7.83 2.59a16 16 0 0 0 -7 4.77 16.51 16.51 0 0 0 -3.96 10.91v14.56h60v-14.63a16.43 16.43 0 0 0 -3.28-10.07z" fill="#d5d6db"/><path d="m67.54 88.66-2-3.52h-4.09l-2 3.52.52.9 1.39 2.44-1.31 20.49c1.13.11 5.73.11 6.88 0l-1.33-20.49 1.4-2.4z" fill="#e56353"/><path d="m55.27 68.55h16.36v16.58h-16.36z" fill="#f7be56"/><path d="m90.16 87.86a16.24 16.24 0 0 0 -7.62-5.52l-7.83-2.59-1.44-.48a3.26 3.26 0 0 1 -.12 1.25c-1.66 5.58-2.8 11.54-4.8 17a3.82 3.82 0 0 1 -.31 6.08c-1.18.86-4.74 9-4.74 9s-2.78-7.87-3.87-8.58c-3.52-2.29-4-8.21-5-11.9-.79-2.95-1.88-5.92-2-9a7.68 7.68 0 0 1 .67-3.69l-.93.31-7.83 2.59a16 16 0 0 0 -7 4.77 16.51 16.51 0 0 0 -3.9 10.9v14.56h60v-14.63a16.43 16.43 0 0 0 -3.28-10.07z" fill="#2f4859"/><path d="m71.67 75.51-8.22 9.56 5.19 6.62 6.07-11.93z" fill="#ebf0f3"/><path d="m55.22 75.51 8.23 9.56-5.19 6.62-6.08-11.93z" fill="#ebf0f3"/><path d="m74 57.34s2.73-2.23 2.62 2-1.88 7-4.39 7.19 1.77-9.19 1.77-9.19z" fill="#f7be56"/><path d="m52.54 57.34s-2.73-2.23-2.62 2 1.88 7 4.4 7.19-1.78-9.19-1.78-9.19z" fill="#f7be56"/><path d="m74.43 49.07-3.43-2.41-7-1.9v-.4l-.75.2-.75-.2v.4l-6.94 1.9-3.46 2.41 1.31 10.45s-.57 6.5 0 10c.51 3 3.4 5.85 7.95 7.11a7.19 7.19 0 0 0 3.85 0c4.53-1.27 7.35-4.07 7.86-7.11.57-3.46 0-10 0-10z" fill="#fcd462"/><path d="m73.06 77.45-9.78 35.1-9.4-35.17-3.96 3.11.94 11.2 2.66 1.26v5.2l9.78 14.46 9.76-14.46v-5.2l2.66-1.26.95-11.3z" fill="#3a556a"/><path d="m72.86 45.46s-.32-4.87-6.49-5-13 1-14.76 7.78.9 9.57.9 9.57l.56 4.74h1.12s-.62-16.13.91-13.55c5.5 9.22 14.88 2.41 17.07.63a9.57 9.57 0 0 1 .69 2.59 42.71 42.71 0 0 1 0 10.36h.83s1.15-4.92 2.52-5.44c0-.01 3.35-11.2-3.35-11.68z" fill="#3a556a"/><path d="m116.56 52.25a7.18 7.18 0 0 0 -3.62-6.25 7.64 7.64 0 0 0 .14-1.44 7.18 7.18 0 0 0 -12.64-4.66 7 7 0 0 0 -3.24-.78 7.17 7.17 0 0 0 -7.2 7.19 7.08 7.08 0 0 0 .59 2.84 7.18 7.18 0 0 0 6.3 12.85 7.17 7.17 0 0 0 13.35-2.67 7.17 7.17 0 0 0 6.32-7.08z" fill="#ebf0f3"/><path d="m86.93 62.47a4.08 4.08 0 1 0 4.07 4.08 4.08 4.08 0 0 0 -4.07-4.08z" fill="#ebf0f3"/><path d="m81.57 71.18a2.17 2.17 0 1 0 2.17 2.16 2.17 2.17 0 0 0 -2.17-2.16z" fill="#ebf0f3"/><g fill="#d5d6db"><path d="m97.58 49.83a1.7 1.7 0 1 0 1.7 1.69 1.7 1.7 0 0 0 -1.7-1.69z"/><path d="m102.2 49.83a1.7 1.7 0 1 0 1.7 1.69 1.7 1.7 0 0 0 -1.7-1.69z"/><path d="m106.82 49.83a1.7 1.7 0 1 0 1.7 1.69 1.69 1.69 0 0 0 -1.7-1.69z"/></g></svg>