<svg id="Layer_1" height="512" viewBox="0 0 150 150" width="512" xmlns="http://www.w3.org/2000/svg" data-name="Layer 1"><circle cx="75" cy="75" fill="#2f4859" r="64"/><circle cx="75" cy="75" fill="#1bbc9b" r="44.36"/><circle cx="75" cy="75" fill="#ebf0f3" r="36.9"/><g fill="#3a556a"><path d="m73.94 39.86h2.13v5.07h-2.13z"/><path d="m69.51 40.94h.79v3.73h-.79z" transform="matrix(.988 -.156 .156 .988 -5.82 11.43)"/><path d="m64.54 42.13h.79v3.73h-.79z" transform="matrix(.951 -.309 .309 .951 -10.41 22.2)"/><path d="m59.82 44.1h.79v3.73h-.79z" transform="matrix(.891 -.454 .454 .891 -14.31 32.38)"/><path d="m55.47 46.77h.79v3.73h-.79z" transform="matrix(.809 -.588 .588 .809 -17.92 42.12)"/><path d="m51.58 50.09h.79v3.73h-.79z" transform="matrix(.707 -.707 .707 .707 -21.52 51.97)"/><path d="m48.27 53.98h.79v3.73h-.79z" transform="matrix(.588 -.809 .809 .588 -25.13 62.36)"/><path d="m45.6 58.34h.79v3.73h-.79z" transform="matrix(.454 -.891 .891 .454 -28.54 73.83)"/><path d="m43.65 63.07h.79v3.73h-.79z" transform="matrix(.309 -.951 .951 .309 -31.32 86.78)"/><path d="m42.46 68.04h.79v3.73h-.79z" transform="matrix(.156 -.988 .988 .156 -32.89 101.3)"/><path d="m39.93 73.94h5.07v2.13h-5.07z"/><path d="m41 79.7h3.73v.79h-3.73z" transform="matrix(.988 -.157 .157 .988 -12.01 7.7)"/><path d="m42.2 84.67h3.73v.79h-3.73z" transform="matrix(.951 -.309 .309 .951 -24.13 17.78)"/><path d="m44.16 89.39h3.73v.79h-3.73z" transform="matrix(.891 -.454 .454 .891 -35.72 30.65)"/><path d="m46.84 93.74h3.73v.79h-3.73z" transform="matrix(.809 -.588 .588 .809 -46.03 46.6)"/><path d="m50.16 97.63h3.73v.79h-3.73z" transform="matrix(.707 -.707 .707 .707 -54.09 65.55)"/><path d="m54.05 100.94h3.73v.79h-3.73z" transform="matrix(.588 -.809 .809 .588 -58.93 86.97)"/><path d="m58.41 103.61h3.73v.79h-3.73z" transform="matrix(.455 -.891 .891 .455 -59.76 110.41)"/><path d="m63.14 105.56h3.73v.79h-3.73z" transform="matrix(.31 -.95 .95 .31 -55.86 134.99)"/><path d="m68.11 106.75h3.73v.79h-3.73z" transform="matrix(.156 -.988 .988 .156 -46.8 159.49)"/><path d="m74 105h2.13v5.07h-2.13z"/><path d="m79.77 105.26h.79v3.73h-.79z" transform="matrix(.988 -.156 .156 .988 -15.78 13.87)"/><path d="m84.74 104.07h.79v3.73h-.79z" transform="matrix(.951 -.309 .309 .951 -28.6 31.54)"/><path d="m89.46 102.11h.79v3.73h-.79z" transform="matrix(.891 -.454 .454 .891 -37.39 52.07)"/><path d="m93.81 99.43h.79v3.73h-.79z" transform="matrix(.809 -.588 .588 .809 -41.55 74.72)"/><path d="m97.69 96.11h.79v3.73h-.79z" transform="matrix(.707 -.707 .707 .707 -40.55 98.12)"/><path d="m101.01 92.22h.79v3.73h-.79z" transform="matrix(.588 -.809 .809 .588 -34.31 120.84)"/><path d="m103.67 87.86h.79v3.73h-.79z" transform="matrix(.454 -.891 .891 .454 -23.13 141.7)"/><path d="m105.63 83.13h.79v3.73h-.79z" transform="matrix(.309 -.951 .951 .309 -7.55 159.61)"/><path d="m106.81 78.16h.79v3.73h-.79z" transform="matrix(.156 -.988 .988 .156 11.4 173.4)"/><path d="m105.07 73.87h5.07v2.13h-5.07z"/><path d="m105.33 69.44h3.73v.79h-3.73z" transform="matrix(.988 -.157 .157 .988 -9.61 17.65)"/><path d="m104.13 64.47h3.73v.79h-3.73z" transform="matrix(.951 -.309 .309 .951 -14.85 35.91)"/><path d="m102.17 59.75h3.73v.79h-3.73z" transform="matrix(.891 -.454 .454 .891 -15.97 53.77)"/><path d="m99.5 55.4h3.73v.79h-3.73z" transform="matrix(.809 -.588 .588 .809 -13.43 70.28)"/><path d="m96.18 51.51h3.73v.79h-3.73z" transform="matrix(.707 -.707 .707 .707 -7.98 84.58)"/><path d="m92.29 48.2h3.73v.79h-3.73z" transform="matrix(.588 -.809 .809 .588 -.51 96.2)"/><path d="m87.92 45.53h3.73v.79h-3.73z" transform="matrix(.454 -.891 .891 .454 8.1 105.07)"/><path d="m83.2 43.58h3.73v.79h-3.73z" transform="matrix(.309 -.951 .951 .309 16.93 111.27)"/><path d="m78.23 42.4h3.73v.79h-3.73z" transform="matrix(.157 -.988 .988 .157 25.29 115.2)"/><path d="m76.13 80.65h-2.26l.55-28.74h1.16z"/><path d="m69.91 76.45v-2.89l23.41.71v1.46z"/></g><path d="m50.33 84.97h28.66v.61h-28.66z" fill="#e56353" transform="matrix(.707 -.707 .707 .707 -41.37 70.76)"/><circle cx="75" cy="75" fill="#e56353" r="2.79"/><path d="m75 73.22a1.78 1.78 0 1 0 1.78 1.78 1.78 1.78 0 0 0 -1.78-1.78z" fill="#3a556a"/></svg>