<svg id="Layer_1" height="512" viewBox="0 0 150 150" width="512" xmlns="http://www.w3.org/2000/svg" data-name="Layer 1"><circle cx="75" cy="75" fill="#21b3a9" r="64"/><rect fill="#2f4859" height="13.28" rx=".84" width="4.93" x="99.55" y="45.69"/><rect fill="#2f4859" height="13.28" rx=".84" width="4.93" x="45.52" y="45.69"/><path d="m100.52 45a6 6 0 0 0 -5.08-5 142.77 142.77 0 0 0 -40.87 0 6 6 0 0 0 -5.08 5 152.62 152.62 0 0 0 0 42.69 6 6 0 0 0 5.08 5 142.77 142.77 0 0 0 40.87 0 6 6 0 0 0 5.08-5 152.62 152.62 0 0 0 0-42.69z" fill="#3a556a"/><path d="m53.53 65.02h42.94v23.03h-42.94z" fill="#64798a"/><g fill="#e1e6e9"><path d="m58.76 67.79a1.93 1.93 0 1 0 1.93 1.92 1.92 1.92 0 0 0 -1.93-1.92z"/><path d="m63.4 67.79a1.93 1.93 0 1 0 1.93 1.92 1.93 1.93 0 0 0 -1.93-1.92z"/><path d="m68 67.79a1.93 1.93 0 1 0 2 1.92 1.93 1.93 0 0 0 -2-1.92z"/><path d="m72.68 67.79a1.93 1.93 0 1 0 1.93 1.92 1.92 1.92 0 0 0 -1.93-1.92z"/><path d="m77.32 67.79a1.93 1.93 0 1 0 1.93 1.92 1.92 1.92 0 0 0 -1.93-1.92z"/><path d="m82 67.79a1.93 1.93 0 1 0 1.92 1.92 1.92 1.92 0 0 0 -1.92-1.92z"/><path d="m86.61 67.79a1.93 1.93 0 1 0 1.92 1.92 1.92 1.92 0 0 0 -1.92-1.92z"/><path d="m91.25 67.79a1.93 1.93 0 1 0 1.93 1.92 1.92 1.92 0 0 0 -1.93-1.92z"/><circle cx="58.76" cy="78.81" r="1.93"/><path d="m63.4 76.88a1.93 1.93 0 1 0 1.93 1.93 1.93 1.93 0 0 0 -1.93-1.93z"/><path d="m68 76.88a1.93 1.93 0 1 0 2 1.93 1.93 1.93 0 0 0 -2-1.93z"/><circle cx="72.68" cy="78.81" r="1.93"/><circle cx="77.32" cy="78.81" r="1.93"/><circle cx="81.97" cy="78.81" r="1.93"/><path d="m86.61 76.88a1.93 1.93 0 1 0 1.92 1.93 1.92 1.92 0 0 0 -1.92-1.93z"/><path d="m91.25 76.88a1.93 1.93 0 1 0 1.93 1.93 1.92 1.92 0 0 0 -1.93-1.93z"/><path d="m61.08 72.33a1.93 1.93 0 1 0 1.92 1.93 1.93 1.93 0 0 0 -1.92-1.93z"/><path d="m65.72 72.33a1.93 1.93 0 1 0 1.93 1.93 1.94 1.94 0 0 0 -1.93-1.93z"/><path d="m70.36 72.33a1.93 1.93 0 1 0 1.93 1.93 1.94 1.94 0 0 0 -1.93-1.93z"/><path d="m75 72.33a1.93 1.93 0 1 0 1.93 1.93 1.93 1.93 0 0 0 -1.93-1.93z"/><path d="m79.65 72.33a1.93 1.93 0 1 0 1.92 1.93 1.93 1.93 0 0 0 -1.92-1.93z"/><path d="m84.29 72.33a1.93 1.93 0 1 0 1.92 1.93 1.93 1.93 0 0 0 -1.92-1.93z"/><path d="m88.93 72.33a1.93 1.93 0 1 0 1.92 1.93 1.93 1.93 0 0 0 -1.92-1.93z"/><circle cx="61.08" cy="83.36" r="1.93"/><path d="m65.72 81.43a1.93 1.93 0 1 0 1.93 1.93 1.93 1.93 0 0 0 -1.93-1.93z"/><circle cx="70.36" cy="83.36" r="1.93"/><circle cx="75" cy="83.36" r="1.93"/><circle cx="79.65" cy="83.36" r="1.93"/><path d="m84.29 81.43a1.93 1.93 0 1 0 1.92 1.93 1.92 1.92 0 0 0 -1.92-1.93z"/><path d="m88.93 81.43a1.93 1.93 0 1 0 1.92 1.93 1.92 1.92 0 0 0 -1.92-1.93z"/><path d="m83.65 88.05h-17.29a1.45 1.45 0 1 0 0 2.9h17.29a1.45 1.45 0 0 0 0-2.9z"/></g><path d="m57.79 49.46h34.42v1.31h-34.42z" fill="#2f4859"/><path d="m60.88 31.17h28.24v18.94h-28.24z" fill="#ebf0f3"/><path d="m64.03 35.47h21.95v1.16h-21.95z" fill="#d5d6db"/><path d="m64.03 39.72h21.95v1.16h-21.95z" fill="#d5d6db"/><path d="m64.03 43.97h21.95v1.16h-21.95z" fill="#d5d6db"/><path d="m87.54 80.4v11.38h-.45v-9.15a1.64 1.64 0 0 0 -1.32-1.63 1.59 1.59 0 0 0 -1.85 1.56v15.4l-.75-1.2-.17-2.17a4.06 4.06 0 0 0 -4-3.74h-.46l.4 5.5a4.16 4.16 0 0 0 .45 1.58l3 5.57 3.29 7.2.75 4.89h11.24l.1-10.09a6 6 0 0 0 .17-1.4v-19.34a1.59 1.59 0 0 0 -1.86-1.57 1.73 1.73 0 0 0 -1.32 1.65v6.94h-.44v-9.15a1.64 1.64 0 0 0 -1.32-1.63 1.59 1.59 0 0 0 -1.85 1.56v9.24h-.44v-11.31a1.64 1.64 0 0 0 -1.33-1.66 1.58 1.58 0 0 0 -1.84 1.57z" fill="#fcd462"/><path d="m84.93 110.45h13.66v8.38h-13.66z" fill="#3a556a"/><path d="m62.08 80.4v11.38h.44v-9.15a1.64 1.64 0 0 1 1.32-1.63 1.58 1.58 0 0 1 1.85 1.56v15.4l.76-1.2.17-2.15a4.06 4.06 0 0 1 4-3.74h.46l-.4 5.5a4 4 0 0 1 -.45 1.58l-2.94 5.57-3.29 7.18-.75 4.89h-11.31l-.1-10.09a6.53 6.53 0 0 1 -.16-1.4v-19.34a1.59 1.59 0 0 1 1.85-1.57 1.73 1.73 0 0 1 1.32 1.65v6.94h.44v-9.15a1.64 1.64 0 0 1 1.33-1.63 1.58 1.58 0 0 1 1.84 1.56v9.24h.44v-11.31a1.65 1.65 0 0 1 1.33-1.66 1.59 1.59 0 0 1 1.85 1.57z" fill="#fcd462"/><path d="m51.03 110.45h13.66v8.38h-13.66z" fill="#3a556a"/></svg>