<svg id="Layer_1" height="512" viewBox="0 0 150 150" width="512" xmlns="http://www.w3.org/2000/svg" data-name="Layer 1"><circle cx="75" cy="75" fill="#77b3d5" r="64"/><path d="m75 41.38a1.4 1.4 0 0 0 -1.4 1.4v52.63h2.8v-52.63a1.4 1.4 0 0 0 -1.4-1.4z" fill="#e1e6e9"/><path d="m73.6 91.18v12.47a5.55 5.55 0 0 1 -11.09 0v-4.35a1.4 1.4 0 0 0 -2.8 0v4.35a8.35 8.35 0 0 0 16.69 0v-12.47z" fill="#3a556a"/><path d="m114.3 72.05a26.69 26.69 0 0 0 -8.7-1.37c-6.95 0-12.88 2.37-15.31 5.7-2.41-3.33-8.29-5.7-15.29-5.7s-12.88 2.37-15.29 5.7c-2.43-3.33-8.36-5.7-15.31-5.7a26.69 26.69 0 0 0 -8.7 1.37 41.33 41.33 0 0 1 78.6 0z" fill="#3a556a"/><path d="m75 43.52c-7 0-13 13.65-15.29 32.86 2.41-3.33 8.34-5.7 15.29-5.7s12.88 2.37 15.29 5.7c-2.29-19.23-8.29-32.86-15.29-32.86z" fill="#2f4859"/><path d="m74.75 38.01-3.24 5.63h6.48z" fill="#e1e6e9"/></svg>