<svg id="Layer_1" height="512" viewBox="0 0 150 150" width="512" xmlns="http://www.w3.org/2000/svg" data-name="Layer 1"><circle cx="75" cy="75" fill="#2f4859" r="64"/><path d="m82.05 81-21.91 21.86a14.5 14.5 0 0 1 -20.5-20.51l21.91-21.91a14.5 14.5 0 1 1 20.5 20.56zm-36.84 7a6.62 6.62 0 0 0 9.36 9.36l21.91-21.9a6.62 6.62 0 1 0 -9.36-9.46z" fill="#e1e6e9"/><path d="m110.36 67.65-21.91 21.91a14.5 14.5 0 1 1 -20.45-20.51l21.86-21.91a14.5 14.5 0 0 1 20.5 20.51zm-36.84 7a6.62 6.62 0 1 0 9.36 9.35l21.91-21.91a6.62 6.62 0 1 0 -9.36-9.36z" fill="#d5d6db"/><path d="m61.55 60.44-2 2 5.56 5.56 2-2a6.62 6.62 0 1 1 9.36 9.37l-2 2 5.58 5.63 2-2a14.5 14.5 0 1 0 -20.5-20.51z" fill="#e1e6e9"/></svg>