<svg id="Layer_1" height="512" viewBox="0 0 150 150" width="512" xmlns="http://www.w3.org/2000/svg" data-name="Layer 1"><circle cx="75" cy="75" fill="#fe7058" r="64"/><path d="m105.14 87.76a18.31 18.31 0 0 0 -8.6-6.22l-8.82-2.93-3.49-1.15-1.88-.63-7.35 7.78-7.36-7.78-1.88.63-3.48 1.15-8.83 2.93a18.07 18.07 0 0 0 -7.92 5.37 18.62 18.62 0 0 0 -4.39 12.25v16.42h67.66v-16.47a18.54 18.54 0 0 0 -3.66-11.35z" fill="#d5d6db"/><path d="m79.63 88.66-2.29-4h-4.58l-2.29 4 .59 1 1.6 2.8-1.48 23.11a77.25 77.25 0 0 0 7.76 0l-1.5-23.13 1.56-2.72z" fill="#44c4a1"/><path d="m65.79 65.99h18.45v18.7h-18.45z" fill="#f7be56"/><path d="m105.14 87.76a18.31 18.31 0 0 0 -8.6-6.22l-8.82-2.93-1.63-.54a3.53 3.53 0 0 1 -.09 1.41c-1.87 6.29-3.15 13-5.41 19.19a4.31 4.31 0 0 1 -.35 6.85c-1.33 1-5.34 10.15-5.34 10.15s-3.14-8.87-4.37-9.67c-4-2.59-4.5-9.26-5.61-13.42-.92-3.33-2.17-6.68-2.32-10.15a8.75 8.75 0 0 1 .76-4.17l-1 .35-8.83 2.93a18.07 18.07 0 0 0 -7.92 5.37 18.62 18.62 0 0 0 -4.39 12.25v16.42h67.66v-16.47a18.54 18.54 0 0 0 -3.74-11.35z" fill="#2f4859"/><path d="m84.29 73.83-9.27 10.79 5.85 7.46 6.85-13.46z" fill="#ebf0f3"/><path d="m65.74 73.83 9.28 10.79-5.86 7.46-6.85-13.46z" fill="#ebf0f3"/><path d="m87 53.34s3.07-2.51 3 2.28-2.13 7.88-5 8.11 2-10.39 2-10.39z" fill="#f7be56"/><path d="m62.71 53.34s-3.07-2.51-3 2.28 2.12 7.88 5 8.11-2-10.39-2-10.39z" fill="#f7be56"/><path d="m87.39 44-3.89-2.7-7.83-2.14v-.46l-.84.23-.83-.23v.46l-7.82 2.14-3.9 2.7 1.48 11.8s-.65 7.34 0 11.23c.57 3.44 3.82 6.59 8.95 8a8 8 0 0 0 4.34 0c5.11-1.43 8.3-4.59 8.87-8 .65-3.89 0-11.23 0-11.23z" fill="#fcd462"/><g fill="#3a556a"><path d="m85.86 76.02-11.04 39.58-10.59-39.66-4.46 3.51 1.05 12.63 3 1.42v5.87l11.02 16.3 11.02-16.3v-5.87l3-1.42 1.06-12.74z"/><path d="m85.62 40s-.35-5.5-7.31-5.62-14.64 1.14-16.65 8.78 1 10.79 1 10.79l.63 5.34h1.27s-1.69-13.31 1-15.32c1.21-.89 2.89-.21 5.19.39-1.54 1.75-2.14 2.47-2.14 2.47h5.26l-2.11 2c9.34.88 11.85-5.57 11.85-5.57.71.37 1.54 1.46 2 4.37a47.82 47.82 0 0 1 0 11.69h.95s1.3-5.55 2.83-6.14c.01-.08 3.79-12.69-3.77-13.18z"/><path d="m76.68 70.57c-.52 0-1.07 0-1.63-.09v-.45c4.19.38 7.42-.44 9.6-2.42a9.19 9.19 0 0 0 2.83-6.16h.52a9.49 9.49 0 0 1 -3 6.55c-2 1.75-4.78 2.62-8.32 2.57z"/><rect height="4.42" rx=".63" transform="matrix(.017 -1 1 .017 4.1 144.79)" width="2.57" x="74.38" y="68.1"/></g><path d="m84.42 57.5h6.74a1.14 1.14 0 0 1 1.14 1.14v.45a1.13 1.13 0 0 1 -1.13 1.13h-6.75a1.13 1.13 0 0 1 -1.13-1.13v-.46a1.13 1.13 0 0 1 1.13-1.13z" fill="#2f4859" transform="matrix(.015 -1 1 .015 27.62 145.76)"/></svg>