<svg id="Layer_1" height="512" viewBox="0 0 150 150" width="512" xmlns="http://www.w3.org/2000/svg" data-name="Layer 1"><circle cx="75" cy="75" fill="#d5d6db" r="64"/><rect fill="#3a556a" height="42.95" rx="1.56" width="64.06" x="43.16" y="41.81"/><path d="m46.89 45.29h56.59v35.48h-56.59z" fill="#27a2db"/><path d="m105.43 84.76h-60.49a2.74 2.74 0 0 0 -2.38 1.37l-8.62 19.77c-.55 1.25.05 2.29 1.34 2.29h79.81c1.3 0 1.9-1 1.35-2.29l-8.62-19.77a2.75 2.75 0 0 0 -2.39-1.37z" fill="#2f4859"/><g fill="#3a556a"><path d="m107.63 94.86h-64.89l2.84-7.29h59.22z"/><path d="m85.77 104.35h-21.17l.81-7.13h19.55z"/><rect height="42.95" rx="1.56" width="64.06" x="42.78" y="41.81"/></g><path d="m46.52 45.29h56.59v35.48h-56.59z" fill="#27a2db"/><path d="m105.06 84.76h-60.49a2.75 2.75 0 0 0 -2.39 1.37l-8.62 19.77c-.55 1.25 0 2.29 1.35 2.29h79.81c1.29 0 1.89-1 1.34-2.29l-8.62-19.77a2.74 2.74 0 0 0 -2.38-1.37z" fill="#2f4859"/><path d="m107.26 94.86h-64.89l2.83-7.29h59.22z" fill="#3a556a"/><path d="m85.4 104.35h-21.17l.81-7.13h19.55z" fill="#3a556a"/><path d="m87.27 69.6a7.28 7.28 0 0 0 -3.44-2.49l-3.53-1.17-1.4-.46-.75-.26-2.93 3.12-3-3.12-.75.26-1.39.46-3.54 1.17a7.2 7.2 0 0 0 -3.17 2.15 7.49 7.49 0 0 0 -1.76 4.91v6.57h27.14v-6.6a7.39 7.39 0 0 0 -1.48-4.54z" fill="#d5d6db"/><path d="m77.06 70-.92-1.59h-1.83l-.92 1.59.24.41.64 1.12-.59 9.25c.51.05 2.59.05 3.11 0l-.6-9.26.63-1.09z" fill="#e56353"/><path d="m71.52 60.88h7.39v7.49h-7.39z" fill="#f7be56"/><path d="m87.27 69.6a7.28 7.28 0 0 0 -3.44-2.49l-3.53-1.17-.65-.22a1.4 1.4 0 0 1 -.06.56c-.75 2.52-1.26 5.21-2.16 7.69a1.72 1.72 0 0 1 -.14 2.74c-.54.39-2.14 4.06-2.14 4.06s-1.26-3.55-1.75-3.87c-1.59-1-1.8-3.71-2.25-5.37a19.64 19.64 0 0 1 -.91-4.07 3.52 3.52 0 0 1 .31-1.66l-.42.14-3.54 1.17a7.2 7.2 0 0 0 -3.17 2.15 7.49 7.49 0 0 0 -1.76 4.91v6.57h27.09v-6.6a7.39 7.39 0 0 0 -1.48-4.54z" fill="#2f4859"/><path d="m78.93 64.02-3.72 4.32 2.35 2.99 2.74-5.39z" fill="#ebf0f3"/><path d="m71.5 64.02 3.71 4.32-2.34 2.99-2.74-5.39z" fill="#ebf0f3"/><path d="m80 55.82s1.23-1 1.18.91-.85 3.16-2 3.25.82-4.16.82-4.16z" fill="#f7be56"/><path d="m70.29 55.82s-1.23-1-1.19.91.86 3.16 2 3.25-.81-4.16-.81-4.16z" fill="#f7be56"/><path d="m80.17 52.08-1.56-1.08-3.13-.86v-.14l-.34.09-.33-.09v.18l-3.14.82-1.56 1.08.6 4.72a23.37 23.37 0 0 0 0 4.5c.22 1.37 1.53 2.64 3.58 3.21a3.21 3.21 0 0 0 1.74 0c2-.57 3.32-1.84 3.55-3.21a24.26 24.26 0 0 0 0-4.5z" fill="#fcd462"/><path d="m79.46 58.18h.38s.52-2.18 1.16-2.46c0 0 1.52-5-1.51-5.26 0 0-.14-2.21-2.93-2.25s-5.86.45-6.66 3.51.4 4.32.4 4.32l.26 2.14h.44s-.67-5.33.42-6.13 3.09 1.55 6.74-.33c0 0 .94-.49 1.27 1.78a19.28 19.28 0 0 1 .03 4.68z" fill="#3a556a"/><path d="m79.56 64.9-4.42 15.85-4.24-15.88-1.79 1.4.42 5.06 1.2.57v2.35l4.42 6.53 4.41-6.53v-2.35l1.19-.57.43-5.1z" fill="#3a556a"/></svg>