<svg id="Layer_1" height="512" viewBox="0 0 150 150" width="512" xmlns="http://www.w3.org/2000/svg" data-name="Layer 1"><circle cx="75" cy="75" fill="#21b3a9" r="64"/><path d="m123.38 83a16.16 16.16 0 0 1 -.47 2.49 13.17 13.17 0 0 1 -.4 1.33c-1.74 5-6.29 10.77-17.33 14.53-.87.28-1.76.57-2.73.83a9.78 9.78 0 0 1 -1.21.32c-.3.09-.61.18-.93.25l-.54.13-.77.12c-.66.16-1.35.3-2 .43a76.41 76.41 0 0 1 -14.72 1.33h-14.56a76.32 76.32 0 0 1 -14.72-1.32c-1.18-.23-2.31-.47-3.38-.75l-.5-.14-.46-.11-.72-.17c-.39-.1-.77-.22-1.15-.33l-.39-.13c-15.4-4.7-19.13-13.14-19.78-18.81a7.7 7.7 0 0 1 3.77-7.55c13.87-7.9 15.86-22.45 15.86-22.45h57.5a33 33 0 0 0 15.84 22.45 7.71 7.71 0 0 1 3.79 7.55z" fill="#e56353"/><path d="m114.21 70.88a30.32 30.32 0 0 1 -4.28-5.45 32 32 0 0 1 -3.07-6.14 31 31 0 0 1 -1.74-6.51 1.37 1.37 0 0 0 -1.33-1.19c-9.58-.29-19.17-.37-28.75-.4s-19.17.1-28.76.39a1.39 1.39 0 0 0 -1.33 1.2 30.72 30.72 0 0 1 -1.74 6.5 31.82 31.82 0 0 1 -3.07 6.15 30.68 30.68 0 0 1 -4.28 5.45 36.14 36.14 0 0 1 -5.38 4.53 30.54 30.54 0 0 0 6-3.81 29.15 29.15 0 0 0 5.05-5.18 33.71 33.71 0 0 0 3.78-6.23 30.9 30.9 0 0 0 2.06-5.82c9.22.26 18.44.34 27.67.38s18.44-.12 27.67-.38a30.45 30.45 0 0 0 2.06 5.82 33.18 33.18 0 0 0 3.78 6.23 30.15 30.15 0 0 0 5 5.18 30.83 30.83 0 0 0 6 3.81 36.14 36.14 0 0 1 -5.34-4.53z" fill="#e1e6e9"/><path d="m80.51 45.91a2.45 2.45 0 1 0 -.75 4l3.93 3.73 1.36-1.42-3.94-3.73a2.44 2.44 0 0 0 -.6-2.58z" fill="#e1e6e9"/><path d="m70.65 45.91a2.45 2.45 0 1 1 .75 4l-3.93 3.73-1.36-1.42 3.94-3.73a2.46 2.46 0 0 1 .6-2.58z" fill="#e1e6e9"/><g fill="#d15241"><path d="m96.89 57.23a5.46 5.46 0 0 0 .42 1.77 5.81 5.81 0 0 0 -1.77-.41.7.7 0 1 0 0 1.39 5.57 5.57 0 0 0 1.77-.42 5.58 5.58 0 0 0 -.42 1.76.7.7 0 1 0 1.39 0 5.58 5.58 0 0 0 -.42-1.76 5.58 5.58 0 0 0 1.76.42.7.7 0 1 0 0-1.39 5.82 5.82 0 0 0 -1.76.41 5.46 5.46 0 0 0 .42-1.76.7.7 0 1 0 -1.39 0z"/><path d="m96.89 71.16a5.57 5.57 0 0 0 .42 1.77 5.57 5.57 0 0 0 -1.77-.42.7.7 0 1 0 0 1.39 5.57 5.57 0 0 0 1.77-.42 5.57 5.57 0 0 0 -.42 1.77.7.7 0 0 0 1.39 0 5.57 5.57 0 0 0 -.42-1.77 5.58 5.58 0 0 0 1.76.42.7.7 0 1 0 0-1.39 5.58 5.58 0 0 0 -1.76.42 5.57 5.57 0 0 0 .42-1.77.7.7 0 0 0 -1.39 0z"/><path d="m107 71.16a5.81 5.81 0 0 0 .41 1.77 5.46 5.46 0 0 0 -1.76-.42.7.7 0 1 0 0 1.39 5.46 5.46 0 0 0 1.76-.42 5.81 5.81 0 0 0 -.41 1.77.7.7 0 0 0 1.39 0 5.57 5.57 0 0 0 -.42-1.77 5.58 5.58 0 0 0 1.76.42.7.7 0 1 0 0-1.39 5.58 5.58 0 0 0 -1.76.42 5.57 5.57 0 0 0 .42-1.77.7.7 0 0 0 -1.39 0z"/><path d="m109.75 85.31a5.86 5.86 0 0 0 .42 1.77 5.58 5.58 0 0 0 -1.76-.42.7.7 0 1 0 0 1.39 5.58 5.58 0 0 0 1.76-.42 5.86 5.86 0 0 0 -.42 1.77.7.7 0 0 0 1.4 0 5.86 5.86 0 0 0 -.42-1.77 5.58 5.58 0 0 0 1.76.42.7.7 0 1 0 0-1.39 5.58 5.58 0 0 0 -1.76.42 5.86 5.86 0 0 0 .42-1.77.7.7 0 0 0 -1.4 0z"/><path d="m104.28 92.42a5.57 5.57 0 0 0 .42 1.77 5.57 5.57 0 0 0 -1.77-.42.7.7 0 1 0 0 1.39 5.57 5.57 0 0 0 1.77-.42 5.57 5.57 0 0 0 -.42 1.77.7.7 0 0 0 1.39 0 5.57 5.57 0 0 0 -.42-1.77 5.57 5.57 0 0 0 1.77.42.7.7 0 0 0 0-1.39 5.57 5.57 0 0 0 -1.77.42 5.57 5.57 0 0 0 .42-1.77.7.7 0 0 0 -1.39 0z"/><path d="m93.44 92.42a5.57 5.57 0 0 0 .42 1.77 5.57 5.57 0 0 0 -1.77-.42.7.7 0 0 0 0 1.39 5.57 5.57 0 0 0 1.77-.42 5.57 5.57 0 0 0 -.42 1.77.7.7 0 0 0 1.39 0 5.57 5.57 0 0 0 -.42-1.77 5.57 5.57 0 0 0 1.77.42.7.7 0 0 0 0-1.39 5.57 5.57 0 0 0 -1.77.42 5.57 5.57 0 0 0 .42-1.77.7.7 0 0 0 -1.39 0z"/><path d="m88.68 98.57a5.57 5.57 0 0 0 .42 1.77 5.57 5.57 0 0 0 -1.77-.42.7.7 0 0 0 0 1.39 5.57 5.57 0 0 0 1.77-.42 5.57 5.57 0 0 0 -.42 1.77.7.7 0 0 0 1.39 0 5.57 5.57 0 0 0 -.42-1.77 5.57 5.57 0 0 0 1.77.42.7.7 0 1 0 0-1.39 5.57 5.57 0 0 0 -1.77.42 5.57 5.57 0 0 0 .42-1.77.7.7 0 0 0 -1.39 0z"/><path d="m101.65 99.92a5.58 5.58 0 0 0 -1.76.42 5.57 5.57 0 0 0 .42-1.77.7.7 0 0 0 -1.39 0 5.57 5.57 0 0 0 .42 1.77 5.57 5.57 0 0 0 -1.77-.42.7.7 0 0 0 0 1.39 5.57 5.57 0 0 0 1.77-.42 5.57 5.57 0 0 0 -.42 1.77.7.7 0 0 0 .08.34l.76-.17.54-.13a5.57 5.57 0 0 0 -.42-1.77 5.58 5.58 0 0 0 1.76.42.7.7 0 1 0 0-1.39z"/><path d="m114.42 91.26a5.57 5.57 0 0 0 .42 1.77 5.57 5.57 0 0 0 -1.77-.42.7.7 0 0 0 0 1.39 5.57 5.57 0 0 0 1.77-.42 5.57 5.57 0 0 0 -.42 1.77.7.7 0 0 0 1.39 0 5.57 5.57 0 0 0 -.42-1.77 5.57 5.57 0 0 0 1.77.42.7.7 0 0 0 0-1.39 5.57 5.57 0 0 0 -1.77.42 5.57 5.57 0 0 0 .42-1.77.7.7 0 0 0 -1.39 0z"/><path d="m122.51 86.78a6 6 0 0 1 -1.64-.41 5.8 5.8 0 0 1 .42 1.77.7.7 0 0 1 -1.4 0 5.8 5.8 0 0 1 .42-1.77 5.81 5.81 0 0 1 -1.76.42.7.7 0 1 1 0-1.4 5.81 5.81 0 0 1 1.76.42 5.8 5.8 0 0 1 -.42-1.77.7.7 0 0 1 1.4 0 5.8 5.8 0 0 1 -.42 1.77 5.8 5.8 0 0 1 1.77-.42.6.6 0 0 1 .27.06 13.17 13.17 0 0 1 -.4 1.33z"/><path d="m78.44 98.57a5.81 5.81 0 0 0 .41 1.77 5.46 5.46 0 0 0 -1.76-.42.7.7 0 1 0 0 1.39 5.46 5.46 0 0 0 1.76-.42 5.81 5.81 0 0 0 -.41 1.77.7.7 0 0 0 1.39 0 5.57 5.57 0 0 0 -.42-1.77 5.58 5.58 0 0 0 1.76.42.7.7 0 1 0 0-1.39 5.58 5.58 0 0 0 -1.76.42 5.57 5.57 0 0 0 .42-1.77.7.7 0 0 0 -1.39 0z"/><path d="m68.19 98.57a5.57 5.57 0 0 0 .42 1.77 5.58 5.58 0 0 0 -1.76-.42.7.7 0 1 0 0 1.39 5.58 5.58 0 0 0 1.76-.42 5.57 5.57 0 0 0 -.42 1.77.7.7 0 0 0 1.39 0 5.57 5.57 0 0 0 -.42-1.77 5.57 5.57 0 0 0 1.77.42.7.7 0 1 0 0-1.39 5.57 5.57 0 0 0 -1.77.42 5.57 5.57 0 0 0 .42-1.77.7.7 0 0 0 -1.39 0z"/><path d="m58 98.57a5.57 5.57 0 0 0 .42 1.77 5.57 5.57 0 0 0 -1.77-.42.7.7 0 1 0 0 1.39 5.57 5.57 0 0 0 1.77-.42 5.57 5.57 0 0 0 -.42 1.77.7.7 0 0 0 1.39 0 5.57 5.57 0 0 0 -.42-1.77 5.58 5.58 0 0 0 1.76.42.7.7 0 1 0 0-1.39 5.58 5.58 0 0 0 -1.76.42 5.57 5.57 0 0 0 .42-1.77.7.7 0 0 0 -1.39 0z"/><path d="m83.2 92.42a5.86 5.86 0 0 0 .42 1.77 5.58 5.58 0 0 0 -1.76-.42.7.7 0 1 0 0 1.39 5.58 5.58 0 0 0 1.76-.42 5.86 5.86 0 0 0 -.42 1.77.7.7 0 0 0 1.4 0 5.86 5.86 0 0 0 -.42-1.77 5.58 5.58 0 0 0 1.76.42.7.7 0 1 0 0-1.39 5.58 5.58 0 0 0 -1.76.42 5.86 5.86 0 0 0 .42-1.77.7.7 0 0 0 -1.4 0z"/><path d="m73 92.42a5.46 5.46 0 0 0 .42 1.76 5.86 5.86 0 0 0 -1.77-.42.7.7 0 0 0 0 1.4 5.86 5.86 0 0 0 1.77-.42 5.58 5.58 0 0 0 -.42 1.76.7.7 0 1 0 1.39 0 5.58 5.58 0 0 0 -.42-1.76 5.86 5.86 0 0 0 1.77.42.7.7 0 0 0 0-1.4 5.86 5.86 0 0 0 -1.77.42 5.46 5.46 0 0 0 .42-1.76.7.7 0 1 0 -1.39 0z"/><path d="m63.66 92.42a5.86 5.86 0 0 0 .42 1.77 5.58 5.58 0 0 0 -1.76-.42.7.7 0 1 0 0 1.39 5.58 5.58 0 0 0 1.76-.42 5.86 5.86 0 0 0 -.42 1.77.7.7 0 0 0 1.4 0 5.86 5.86 0 0 0 -.42-1.77 5.58 5.58 0 0 0 1.76.42.7.7 0 1 0 0-1.39 5.58 5.58 0 0 0 -1.76.42 5.86 5.86 0 0 0 .42-1.77.7.7 0 0 0 -1.4 0z"/><path d="m54.86 93.1a5.58 5.58 0 0 0 .42 1.76 5.86 5.86 0 0 0 -1.77-.42.7.7 0 0 0 0 1.4 5.86 5.86 0 0 0 1.77-.42 5.52 5.52 0 0 0 -.42 1.76.7.7 0 1 0 1.39 0 5.52 5.52 0 0 0 -.42-1.76 5.86 5.86 0 0 0 1.77.42.7.7 0 0 0 0-1.4 5.86 5.86 0 0 0 -1.77.42 5.58 5.58 0 0 0 .42-1.76.7.7 0 1 0 -1.39 0z"/><path d="m51.16 101a5.58 5.58 0 0 0 -1.76.42 5.58 5.58 0 0 0 .42-1.76.7.7 0 0 0 -.7-.7.69.69 0 0 0 -.69.7 5.82 5.82 0 0 0 .41 1.76 5.46 5.46 0 0 0 -1.76-.42.7.7 0 0 0 -.7.7v.11l.39.13c.38.11.76.23 1.15.33a5.13 5.13 0 0 0 .89-.3 2.32 2.32 0 0 0 -.17.47l.46.11.5.14a3.38 3.38 0 0 0 -.23-.72 5.58 5.58 0 0 0 1.76.42.7.7 0 1 0 0-1.39z"/><path d="m46.77 93.1a5.88 5.88 0 0 0 .42 1.76 5.88 5.88 0 0 0 -1.76-.42.7.7 0 0 0 0 1.4 5.88 5.88 0 0 0 1.76-.42 5.81 5.81 0 0 0 -.42 1.76.7.7 0 1 0 1.4 0 5.81 5.81 0 0 0 -.42-1.76 5.88 5.88 0 0 0 1.76.42.7.7 0 0 0 0-1.4 5.88 5.88 0 0 0 -1.76.42 5.88 5.88 0 0 0 .42-1.76.7.7 0 1 0 -1.4 0z"/><path d="m39.25 92.42a5.57 5.57 0 0 0 .42 1.77 5.57 5.57 0 0 0 -1.77-.42.7.7 0 0 0 0 1.39 5.57 5.57 0 0 0 1.77-.42 5.57 5.57 0 0 0 -.42 1.77.7.7 0 0 0 1.39 0 5.57 5.57 0 0 0 -.42-1.77 5.57 5.57 0 0 0 1.77.42.7.7 0 0 0 0-1.39 5.57 5.57 0 0 0 -1.77.42 5.57 5.57 0 0 0 .42-1.77.7.7 0 0 0 -1.39 0z"/><path d="m98.23 85.31a5.57 5.57 0 0 0 .42 1.77 5.57 5.57 0 0 0 -1.77-.42.7.7 0 0 0 0 1.39 5.57 5.57 0 0 0 1.77-.42 5.57 5.57 0 0 0 -.42 1.77.7.7 0 0 0 1.39 0 5.57 5.57 0 0 0 -.42-1.77 5.57 5.57 0 0 0 1.77.42.7.7 0 0 0 0-1.39 5.57 5.57 0 0 0 -1.77.42 5.57 5.57 0 0 0 .42-1.77.7.7 0 0 0 -1.39 0z"/><path d="m88.34 85.31a5.57 5.57 0 0 0 .42 1.77 5.57 5.57 0 0 0 -1.76-.42.7.7 0 0 0 0 1.39 5.57 5.57 0 0 0 1.77-.42 5.57 5.57 0 0 0 -.42 1.77.7.7 0 0 0 1.39 0 5.57 5.57 0 0 0 -.42-1.77 5.57 5.57 0 0 0 1.77.42.7.7 0 0 0 0-1.39 5.57 5.57 0 0 0 -1.77.42 5.57 5.57 0 0 0 .42-1.77.7.7 0 0 0 -1.39 0z"/><path d="m77.39 85.31a5.57 5.57 0 0 0 .42 1.77 5.57 5.57 0 0 0 -1.81-.42.7.7 0 1 0 0 1.39 5.57 5.57 0 0 0 1.77-.42 5.57 5.57 0 0 0 -.42 1.77.7.7 0 0 0 1.39 0 5.57 5.57 0 0 0 -.42-1.77 5.58 5.58 0 0 0 1.76.42.7.7 0 1 0 0-1.39 5.58 5.58 0 0 0 -1.76.42 5.57 5.57 0 0 0 .42-1.77.7.7 0 0 0 -1.39 0z"/><path d="m68.91 85.31a5.57 5.57 0 0 0 .42 1.77 5.57 5.57 0 0 0 -1.77-.42.7.7 0 0 0 0 1.39 5.57 5.57 0 0 0 1.77-.42 5.57 5.57 0 0 0 -.42 1.77.7.7 0 0 0 1.39 0 5.57 5.57 0 0 0 -.42-1.77 5.57 5.57 0 0 0 1.77.42.7.7 0 0 0 0-1.39 5.57 5.57 0 0 0 -1.77.42 5.57 5.57 0 0 0 .42-1.77.7.7 0 0 0 -1.39 0z"/><path d="m60.09 85.31a5.57 5.57 0 0 0 .42 1.77 5.57 5.57 0 0 0 -1.77-.42.7.7 0 0 0 0 1.39 5.57 5.57 0 0 0 1.77-.42 5.57 5.57 0 0 0 -.42 1.77.7.7 0 0 0 1.39 0 5.57 5.57 0 0 0 -.42-1.77 5.57 5.57 0 0 0 1.77.42.7.7 0 0 0 0-1.39 5.57 5.57 0 0 0 -1.77.42 5.57 5.57 0 0 0 .42-1.77.7.7 0 0 0 -1.39 0z"/><path d="m51.16 85.31a5.57 5.57 0 0 0 .42 1.77 5.57 5.57 0 0 0 -1.77-.42.7.7 0 0 0 0 1.39 5.57 5.57 0 0 0 1.77-.42 5.57 5.57 0 0 0 -.42 1.77.7.7 0 0 0 1.39 0 5.57 5.57 0 0 0 -.42-1.77 5.57 5.57 0 0 0 1.77.42.7.7 0 0 0 0-1.39 5.57 5.57 0 0 0 -1.77.42 5.57 5.57 0 0 0 .42-1.77.7.7 0 0 0 -1.39 0z"/><path d="m41.93 85.31a5.86 5.86 0 0 0 .42 1.77 5.58 5.58 0 0 0 -1.76-.42.7.7 0 1 0 0 1.39 5.58 5.58 0 0 0 1.76-.42 5.86 5.86 0 0 0 -.42 1.77.7.7 0 0 0 1.4 0 5.86 5.86 0 0 0 -.42-1.77 5.46 5.46 0 0 0 1.76.42.7.7 0 1 0 0-1.39 5.46 5.46 0 0 0 -1.76.42 5.86 5.86 0 0 0 .42-1.77.7.7 0 0 0 -1.4 0z"/><path d="m34.33 85.31a5.57 5.57 0 0 0 .42 1.77 5.57 5.57 0 0 0 -1.75-.42.7.7 0 0 0 0 1.39 5.57 5.57 0 0 0 1.77-.42 5.57 5.57 0 0 0 -.42 1.77.7.7 0 0 0 1.39 0 5.57 5.57 0 0 0 -.42-1.77 5.57 5.57 0 0 0 1.77.42.7.7 0 0 0 0-1.39 5.57 5.57 0 0 0 -1.77.42 5.57 5.57 0 0 0 .42-1.77.7.7 0 0 0 -1.39 0z"/><path d="m88 71.16a5.57 5.57 0 0 0 .42 1.77 5.58 5.58 0 0 0 -1.76-.42.7.7 0 1 0 0 1.39 5.58 5.58 0 0 0 1.76-.42 5.57 5.57 0 0 0 -.42 1.77.7.7 0 0 0 1.39 0 5.81 5.81 0 0 0 -.41-1.77 5.46 5.46 0 0 0 1.76.42.7.7 0 1 0 0-1.39 5.46 5.46 0 0 0 -1.76.42 5.81 5.81 0 0 0 .41-1.77.7.7 0 0 0 -1.39 0z"/><path d="m78.44 71.16a5.81 5.81 0 0 0 .41 1.77 5.46 5.46 0 0 0 -1.76-.42.7.7 0 1 0 0 1.39 5.46 5.46 0 0 0 1.76-.42 5.81 5.81 0 0 0 -.41 1.77.7.7 0 0 0 1.39 0 5.57 5.57 0 0 0 -.42-1.77 5.58 5.58 0 0 0 1.76.42.7.7 0 1 0 0-1.39 5.58 5.58 0 0 0 -1.76.42 5.57 5.57 0 0 0 .42-1.77.7.7 0 0 0 -1.39 0z"/><path d="m60.67 71.16a5.57 5.57 0 0 0 .42 1.77 5.58 5.58 0 0 0 -1.76-.42.7.7 0 1 0 0 1.39 5.58 5.58 0 0 0 1.76-.42 5.57 5.57 0 0 0 -.42 1.77.7.7 0 0 0 1.39 0 5.57 5.57 0 0 0 -.42-1.77 5.57 5.57 0 0 0 1.77.42.7.7 0 1 0 0-1.39 5.57 5.57 0 0 0 -1.77.42 5.57 5.57 0 0 0 .42-1.77.7.7 0 0 0 -1.39 0z"/><path d="m41.7 71.16a5.57 5.57 0 0 0 .42 1.77 5.57 5.57 0 0 0 -1.77-.42.7.7 0 1 0 0 1.39 5.57 5.57 0 0 0 1.77-.42 5.57 5.57 0 0 0 -.42 1.77.7.7 0 0 0 1.39 0 5.57 5.57 0 0 0 -.42-1.77 5.58 5.58 0 0 0 1.76.42.7.7 0 1 0 0-1.39 5.58 5.58 0 0 0 -1.76.42 5.57 5.57 0 0 0 .42-1.77.7.7 0 0 0 -1.39 0z"/><path d="m68.91 71.16a5.57 5.57 0 0 0 .42 1.77 5.57 5.57 0 0 0 -1.77-.42.7.7 0 0 0 0 1.39 5.57 5.57 0 0 0 1.77-.42 5.57 5.57 0 0 0 -.42 1.77.7.7 0 0 0 1.39 0 5.57 5.57 0 0 0 -.42-1.77 5.57 5.57 0 0 0 1.77.42.7.7 0 0 0 0-1.39 5.57 5.57 0 0 0 -1.77.42 5.57 5.57 0 0 0 .42-1.77.7.7 0 0 0 -1.39 0z"/><path d="m51.55 71.16a5.57 5.57 0 0 0 .45 1.77 5.57 5.57 0 0 0 -1.77-.42.7.7 0 0 0 0 1.39 5.57 5.57 0 0 0 1.77-.42 5.57 5.57 0 0 0 -.42 1.77.7.7 0 0 0 1.39 0 5.57 5.57 0 0 0 -.42-1.77 5.57 5.57 0 0 0 1.77.42.7.7 0 0 0 0-1.39 5.57 5.57 0 0 0 -1.77.42 5.57 5.57 0 0 0 .42-1.77.7.7 0 0 0 -1.39 0z"/><path d="m88 57.23a5.46 5.46 0 0 0 .38 1.77 5.82 5.82 0 0 0 -1.76-.41.7.7 0 1 0 0 1.39 5.58 5.58 0 0 0 1.76-.42 5.58 5.58 0 0 0 -.38 1.75.7.7 0 1 0 1.39 0 5.82 5.82 0 0 0 -.41-1.76 5.46 5.46 0 0 0 1.72.45.7.7 0 1 0 0-1.39 5.69 5.69 0 0 0 -1.76.41 5.69 5.69 0 0 0 .41-1.76.7.7 0 1 0 -1.39 0z"/><path d="m79 57.23a5.46 5.46 0 0 0 .46 1.77 5.81 5.81 0 0 0 -1.77-.41.7.7 0 0 0 0 1.39 5.57 5.57 0 0 0 1.77-.42 5.58 5.58 0 0 0 -.46 1.75.7.7 0 1 0 1.39 0 5.58 5.58 0 0 0 -.39-1.76 5.57 5.57 0 0 0 1.77.42.7.7 0 0 0 0-1.39 5.81 5.81 0 0 0 -1.77.42 5.46 5.46 0 0 0 .42-1.76.7.7 0 1 0 -1.39 0z"/><path d="m70.11 57.23a5.74 5.74 0 0 0 .42 1.77 5.75 5.75 0 0 0 -1.76-.41.7.7 0 1 0 0 1.39 5.52 5.52 0 0 0 1.76-.42 5.88 5.88 0 0 0 -.42 1.76.7.7 0 1 0 1.4 0 5.88 5.88 0 0 0 -.42-1.76 5.58 5.58 0 0 0 1.76.42.7.7 0 1 0 0-1.39 5.82 5.82 0 0 0 -1.76.41 5.74 5.74 0 0 0 .42-1.76.7.7 0 1 0 -1.4 0z"/><path d="m61.19 57.23a5.46 5.46 0 0 0 .42 1.77 5.81 5.81 0 0 0 -1.77-.41.7.7 0 0 0 0 1.39 5.57 5.57 0 0 0 1.77-.42 5.58 5.58 0 0 0 -.42 1.76.7.7 0 1 0 1.39 0 5.58 5.58 0 0 0 -.42-1.76 5.57 5.57 0 0 0 1.77.42.7.7 0 1 0 0-1.39 5.81 5.81 0 0 0 -1.77.41 5.46 5.46 0 0 0 .42-1.76.7.7 0 1 0 -1.39 0z"/><path d="m57 64a5.86 5.86 0 0 0 .42 1.77 5.46 5.46 0 0 0 -1.76-.42.7.7 0 1 0 0 1.39 5.46 5.46 0 0 0 1.76-.42 5.86 5.86 0 0 0 -.42 1.76.7.7 0 0 0 1.4 0 5.86 5.86 0 0 0 -.4-1.77 5.58 5.58 0 0 0 1.76.42.7.7 0 1 0 0-1.39 5.58 5.58 0 0 0 -1.76.42 5.86 5.86 0 0 0 .42-1.76.7.7 0 0 0 -1.42 0z"/><path d="m47.44 64a5.86 5.86 0 0 0 .42 1.77 5.58 5.58 0 0 0 -1.76-.42.7.7 0 1 0 0 1.39 5.58 5.58 0 0 0 1.76-.42 5.86 5.86 0 0 0 -.42 1.77.7.7 0 0 0 1.4 0 5.86 5.86 0 0 0 -.42-1.77 5.58 5.58 0 0 0 1.76.42.7.7 0 1 0 0-1.39 5.58 5.58 0 0 0 -1.76.42 5.86 5.86 0 0 0 .42-1.77.7.7 0 0 0 -1.4 0z"/><path d="m65.41 64a5.57 5.57 0 0 0 .42 1.77 5.58 5.58 0 0 0 -1.76-.42.7.7 0 1 0 0 1.39 5.58 5.58 0 0 0 1.76-.42 5.57 5.57 0 0 0 -.42 1.77.7.7 0 0 0 1.4 0 5.86 5.86 0 0 0 -.42-1.77 5.46 5.46 0 0 0 1.76.42.7.7 0 1 0 0-1.39 5.46 5.46 0 0 0 -1.76.42 5.86 5.86 0 0 0 .42-1.77.7.7 0 0 0 -1.4 0z"/><path d="m74.3 64a5.86 5.86 0 0 0 .42 1.77 5.58 5.58 0 0 0 -1.72-.43.7.7 0 1 0 0 1.39 5.58 5.58 0 0 0 1.76-.42 5.86 5.86 0 0 0 -.42 1.77.7.7 0 0 0 1.4 0 5.86 5.86 0 0 0 -.42-1.77 5.52 5.52 0 0 0 1.76.42.7.7 0 1 0 0-1.39 5.52 5.52 0 0 0 -1.76.42 5.86 5.86 0 0 0 .38-1.76.7.7 0 0 0 -1.4 0z"/><path d="m82.86 64a5.86 5.86 0 0 0 .42 1.77 5.58 5.58 0 0 0 -1.76-.42.7.7 0 1 0 0 1.39 5.58 5.58 0 0 0 1.76-.42 5.86 5.86 0 0 0 -.42 1.77.7.7 0 0 0 1.4 0 5.86 5.86 0 0 0 -.42-1.77 5.46 5.46 0 0 0 1.76.42.7.7 0 1 0 0-1.39 5.46 5.46 0 0 0 -1.76.42 5.86 5.86 0 0 0 .42-1.77.7.7 0 0 0 -1.4 0z"/><path d="m91.92 64a5.86 5.86 0 0 0 .42 1.77 5.46 5.46 0 0 0 -1.76-.42.7.7 0 1 0 0 1.39 5.46 5.46 0 0 0 1.76-.42 5.86 5.86 0 0 0 -.42 1.77.7.7 0 0 0 1.4 0 5.57 5.57 0 0 0 -.42-1.77 5.58 5.58 0 0 0 1.76.42.7.7 0 1 0 0-1.39 5.58 5.58 0 0 0 -1.76.42 5.57 5.57 0 0 0 .42-1.77.7.7 0 0 0 -1.4 0z"/><path d="m100.34 64a5.86 5.86 0 0 0 .42 1.77 5.58 5.58 0 0 0 -1.76-.43.7.7 0 1 0 0 1.39 5.58 5.58 0 0 0 1.76-.42 5.86 5.86 0 0 0 -.42 1.77.7.7 0 0 0 1.4 0 5.86 5.86 0 0 0 -.42-1.77 5.46 5.46 0 0 0 1.76.42.7.7 0 1 0 0-1.39 5.46 5.46 0 0 0 -1.76.42 5.86 5.86 0 0 0 .42-1.77.7.7 0 0 0 -1.4 0z"/><path d="m114 78.21a5.58 5.58 0 0 0 .42 1.76 5.86 5.86 0 0 0 -1.77-.42.7.7 0 0 0 0 1.4 5.86 5.86 0 0 0 1.77-.42 5.58 5.58 0 0 0 -.42 1.76.7.7 0 1 0 1.39 0 5.58 5.58 0 0 0 -.42-1.76 5.86 5.86 0 0 0 1.77.42.7.7 0 0 0 0-1.4 5.86 5.86 0 0 0 -1.77.42 5.58 5.58 0 0 0 .42-1.76.7.7 0 1 0 -1.39 0z"/><path d="m103.57 78.21a5.58 5.58 0 0 0 .43 1.79 5.88 5.88 0 0 0 -1.76-.42.7.7 0 1 0 0 1.4 5.88 5.88 0 0 0 1.76-.42 5.58 5.58 0 0 0 -.42 1.76.7.7 0 1 0 1.39 0 5.58 5.58 0 0 0 -.42-1.76 5.86 5.86 0 0 0 1.77.42.7.7 0 0 0 0-1.4 5.86 5.86 0 0 0 -1.77.42 5.58 5.58 0 0 0 .42-1.76.7.7 0 1 0 -1.39 0z"/><path d="m92.75 78.21a5.58 5.58 0 0 0 .42 1.79 5.88 5.88 0 0 0 -1.76-.42.7.7 0 0 0 0 1.4 5.88 5.88 0 0 0 1.76-.42 5.58 5.58 0 0 0 -.42 1.76.7.7 0 1 0 1.39 0 5.58 5.58 0 0 0 -.42-1.76 5.86 5.86 0 0 0 1.77.42.7.7 0 1 0 0-1.4 5.86 5.86 0 0 0 -1.77.42 5.58 5.58 0 0 0 .42-1.76.7.7 0 1 0 -1.39 0z"/><path d="m82.86 78.21a5.88 5.88 0 0 0 .42 1.79 5.88 5.88 0 0 0 -1.76-.42.7.7 0 1 0 0 1.4 5.88 5.88 0 0 0 1.76-.42 5.88 5.88 0 0 0 -.42 1.76.7.7 0 0 0 1.4 0 5.88 5.88 0 0 0 -.42-1.76 5.74 5.74 0 0 0 1.76.44.7.7 0 0 0 0-1.4 5.74 5.74 0 0 0 -1.76.42 5.88 5.88 0 0 0 .42-1.76.7.7 0 1 0 -1.4 0z"/><path d="m73.56 78.21a5.58 5.58 0 0 0 .44 1.79 5.88 5.88 0 0 0 -1.76-.42.7.7 0 0 0 0 1.4 5.88 5.88 0 0 0 1.76-.45 5.58 5.58 0 0 0 -.42 1.76.7.7 0 1 0 1.39 0 5.58 5.58 0 0 0 -.42-1.76 5.86 5.86 0 0 0 1.75.47.7.7 0 1 0 0-1.4 5.86 5.86 0 0 0 -1.77.42 5.58 5.58 0 0 0 .47-1.81.7.7 0 1 0 -1.39 0z"/><path d="m65 78.21a5.58 5.58 0 0 0 .38 1.79 5.86 5.86 0 0 0 -1.77-.42.7.7 0 0 0 0 1.4 5.86 5.86 0 0 0 1.77-.42 5.58 5.58 0 0 0 -.38 1.73.7.7 0 1 0 1.39 0 5.58 5.58 0 0 0 -.42-1.76 5.86 5.86 0 0 0 1.73.47.7.7 0 0 0 0-1.4 5.86 5.86 0 0 0 -1.77.42 5.58 5.58 0 0 0 .42-1.76.7.7 0 1 0 -1.39 0z"/><path d="m55.77 78.21a5.88 5.88 0 0 0 .42 1.79 5.74 5.74 0 0 0 -1.76-.42.7.7 0 0 0 0 1.4 5.74 5.74 0 0 0 1.76-.42 5.88 5.88 0 0 0 -.42 1.76.7.7 0 1 0 1.4 0 5.58 5.58 0 0 0 -.42-1.76 5.88 5.88 0 0 0 1.76.42.7.7 0 0 0 0-1.4 5.88 5.88 0 0 0 -1.76.42 5.58 5.58 0 0 0 .42-1.76.7.7 0 1 0 -1.4 0z"/><path d="m47.17 78.21a5.88 5.88 0 0 0 .42 1.79 5.88 5.88 0 0 0 -1.76-.42.7.7 0 0 0 0 1.4 5.88 5.88 0 0 0 1.76-.42 5.88 5.88 0 0 0 -.42 1.76.7.7 0 1 0 1.4 0 5.88 5.88 0 0 0 -.42-1.76 5.74 5.74 0 0 0 1.76.42.7.7 0 0 0 0-1.4 5.74 5.74 0 0 0 -1.76.42 5.88 5.88 0 0 0 .42-1.76.7.7 0 0 0 -1.4 0z"/><path d="m38 78.21a5.88 5.88 0 0 0 .37 1.79 5.74 5.74 0 0 0 -1.76-.42.7.7 0 1 0 0 1.4 5.74 5.74 0 0 0 1.76-.42 5.88 5.88 0 0 0 -.37 1.73.7.7 0 0 0 1.4 0 5.58 5.58 0 0 0 -.42-1.76 5.88 5.88 0 0 0 1.76.42.7.7 0 0 0 0-1.4 5.88 5.88 0 0 0 -1.76.42 5.58 5.58 0 0 0 .42-1.76.7.7 0 0 0 -1.4 0z"/><path d="m30.11 78.21a5.88 5.88 0 0 0 .42 1.79 5.88 5.88 0 0 0 -1.76-.42.7.7 0 1 0 0 1.4 5.88 5.88 0 0 0 1.76-.42 5.88 5.88 0 0 0 -.42 1.76.7.7 0 1 0 1.4 0 5.88 5.88 0 0 0 -.42-1.76 5.88 5.88 0 0 0 1.76.42.7.7 0 1 0 0-1.4 5.88 5.88 0 0 0 -1.76.42 5.88 5.88 0 0 0 .42-1.76.7.7 0 0 0 -1.4 0z"/><path d="m52.27 57.23a5.46 5.46 0 0 0 .42 1.77 5.81 5.81 0 0 0 -1.77-.41.7.7 0 1 0 0 1.39 5.57 5.57 0 0 0 1.77-.42 5.58 5.58 0 0 0 -.42 1.76.7.7 0 1 0 1.39 0 5.58 5.58 0 0 0 -.42-1.76 5.58 5.58 0 0 0 1.76.44.7.7 0 1 0 0-1.39 5.82 5.82 0 0 0 -1.76.41 5.46 5.46 0 0 0 .42-1.76.7.7 0 1 0 -1.39 0z"/></g></svg>