<svg id="Layer_1" height="512" viewBox="0 0 150 150" width="512" xmlns="http://www.w3.org/2000/svg" data-name="Layer 1"><circle cx="75" cy="75" fill="#21b3a9" r="64"/><path d="m85.75 61.14h-.13v-2.11c10.9.1 13.71-14 14.4-20a1 1 0 0 0 -.27-.84 1.06 1.06 0 0 0 -.81-.36h-6.85v-2.12h6.91a3.2 3.2 0 0 1 3.18 3.56c-.8 6.59-3.91 21.87-16.43 21.87z" fill="#f7be56"/><path d="m64.25 61.14h.13v-2.11c-10.9.1-13.71-14-14.4-20a1 1 0 0 1 .27-.84 1.06 1.06 0 0 1 .81-.36h6.87v-2.12h-6.93a3.2 3.2 0 0 0 -3.18 3.56c.8 6.59 3.91 21.87 16.43 21.87z" fill="#f7be56"/><path d="m93.14 32.87h-36.28s-4.86 26.04 14.77 34.06v9.28s-.36 8.71-6.12 13h19c-5.76-4.33-6.12-13-6.12-13v-9.28c19.61-8.02 14.75-34.06 14.75-34.06z" fill="#fcd462"/><path d="m86.77 89.25h-23.88a1.06 1.06 0 0 0 -1.07 1.07v7.31h26v-7.31a1.06 1.06 0 0 0 -1.05-1.07z" fill="#f7be56"/><path d="m57.41 92.49h35.18a1.61 1.61 0 0 1 1.61 1.61v21.43a1.61 1.61 0 0 1 -1.61 1.61h-35.18a1.61 1.61 0 0 1 -1.61-1.61v-21.44a1.6 1.6 0 0 1 1.61-1.6z" fill="#3a556a"/><path d="m85.62 45.19-6.9-1-3.09-6.26-3.09 6.26-6.9 1 5 4.87-1.19 6.88 6.18-3.25 6.18 3.25-1.18-6.88z" fill="#f7be56"/></svg>