<svg id="Layer_1" height="512" viewBox="0 0 150 150" width="512" xmlns="http://www.w3.org/2000/svg" data-name="Layer 1"><circle cx="75" cy="75" fill="#3a556a" r="64"/><path d="m102.64 100.28-52.58-25 52.58-25zm-45-25 41.76 19.88v-39.73z" fill="#e1e6e9"/><path d="m101 37.53a14.75 14.75 0 1 0 14.75 14.75 14.74 14.74 0 0 0 -14.75-14.75z" fill="#fcd462"/><path d="m101 41a11.26 11.26 0 1 0 11.3 11.28 11.26 11.26 0 0 0 -11.3-11.28z" fill="#f7be56"/><path d="m100.18 60.44v-1.6h-.1a5.09 5.09 0 0 1 -2.65-.95 4.74 4.74 0 0 1 -1.62-2.89l1.93-.31a3.11 3.11 0 0 0 1 2 3 3 0 0 0 1.27.59h.13v-4.42h-.08a14.05 14.05 0 0 1 -2.06-.75 3 3 0 0 1 -1.36-1.18 3.28 3.28 0 0 1 -.08-3.21 3.37 3.37 0 0 1 1-1.18 4.37 4.37 0 0 1 1.35-.62 6.26 6.26 0 0 1 1.15-.21h.1v-1.59h1.68v1.61h.1a6.77 6.77 0 0 1 1.44.34 3.57 3.57 0 0 1 1.62 1.17 4.2 4.2 0 0 1 .71 1.83l-1.91.26a2.35 2.35 0 0 0 -.86-1.51 2.55 2.55 0 0 0 -1-.46h-.14v3.89h.09a21.47 21.47 0 0 1 2.42.79 3.15 3.15 0 0 1 1.38 1.1 3.06 3.06 0 0 1 .51 1.8 3.6 3.6 0 0 1 -.62 2 4.07 4.07 0 0 1 -1.79 1.45 6.48 6.48 0 0 1 -1.88.47h-.11v1.58zm1.68-3.16h.14a3 3 0 0 0 1.48-.58 2 2 0 0 0 .77-1.53 1.42 1.42 0 0 0 -.69-1.25 6.48 6.48 0 0 0 -1.54-.57h-.15zm-1.8-10a2.76 2.76 0 0 0 -1.33.46 1.57 1.57 0 0 0 -.73 1.26 1.35 1.35 0 0 0 .29.83 2.07 2.07 0 0 0 .88.62c.13 0 .4.13.83.25h.14v-3.42z" fill="#fcd462"/><path d="m101 83a14.75 14.75 0 1 0 14.75 14.75 14.75 14.75 0 0 0 -14.75-14.75z" fill="#fcd462"/><path d="m101 86.46a11.26 11.26 0 1 0 11.3 11.26 11.26 11.26 0 0 0 -11.3-11.26z" fill="#f7be56"/><path d="m100.18 105.88v-1.59h-.1a5.09 5.09 0 0 1 -2.65-1 4.74 4.74 0 0 1 -1.62-2.91l1.93-.31a3.11 3.11 0 0 0 1 2 3 3 0 0 0 1.27.59h.13v-4.36h-.08a14.05 14.05 0 0 1 -2.06-.75 3 3 0 0 1 -1.36-1.18 3.28 3.28 0 0 1 -.08-3.21 3.37 3.37 0 0 1 1-1.18 4.37 4.37 0 0 1 1.35-.62 7.23 7.23 0 0 1 1.15-.21h.1v-1.59h1.68v1.61h.1a6.2 6.2 0 0 1 1.44.35 3.49 3.49 0 0 1 1.62 1.16 4.25 4.25 0 0 1 .71 1.83l-1.91.26a2.38 2.38 0 0 0 -.86-1.51 2.55 2.55 0 0 0 -1-.46h-.14v3.89h.09a21.47 21.47 0 0 1 2.42.79 3.15 3.15 0 0 1 1.38 1.1 3.07 3.07 0 0 1 .51 1.81 3.56 3.56 0 0 1 -.62 2 4 4 0 0 1 -1.79 1.45 5.9 5.9 0 0 1 -1.88.47h-.11v1.58zm1.68-3.16h.14a3 3 0 0 0 1.48-.58 2 2 0 0 0 .77-1.52 1.42 1.42 0 0 0 -.69-1.26 6.16 6.16 0 0 0 -1.54-.56h-.15zm-1.8-10a2.65 2.65 0 0 0 -1.33.47 1.54 1.54 0 0 0 -.73 1.26 1.31 1.31 0 0 0 .29.83 2.07 2.07 0 0 0 .88.62c.13 0 .4.13.83.25h.14v-3.43z" fill="#fcd462"/><path d="m57.71 51.8a23.5 23.5 0 1 0 23.5 23.49 23.49 23.49 0 0 0 -23.5-23.49z" fill="#27a2db"/><path d="m78.45 75.29a20.73 20.73 0 0 1 -18.91 20.65c-.6.06-1.21.09-1.82.09a17.58 17.58 0 0 1 -1.79-.09 20.73 20.73 0 1 1 22.52-20.65z" fill="#ebf0f3"/><path d="m57.71 58c-3.83 0-6.93 3.73-6.93 8.34s3.1 8.34 6.93 8.34 6.93-3.74 6.93-8.34-3.1-8.34-6.93-8.34z" fill="#3a556a"/><path d="m60.94 74.39v-2.92l-3.22-1.12h-.01l-3.22 1.12v2.92l-1.5.76v3.2h9.66v-3.1z" fill="#f7be56"/><path d="m60.94 74.39a3.47 3.47 0 0 1 -6.45 0l-.89.45v12.5h8.34v-12.44z" fill="#ebf0f3"/><path d="m54.48 74.39a32.4 32.4 0 0 0 2.77 13h-12l.64-6.68a3.63 3.63 0 0 1 2-2.9l5.36-2.81z" fill="#2d93ba"/><path d="m70.22 87.34h-12a32.33 32.33 0 0 0 2.76-13l1.23.62 5.42 2.74a3.64 3.64 0 0 1 2 2.9z" fill="#2d93ba"/><ellipse cx="57.71" cy="66.84" fill="#fcd462" rx="5.24" ry="6.95"/><path d="m62.83 78.08-1.28 1.1.57 1.09c-1.57 5.82-3.94 7.07-3.94 7.07a32.33 32.33 0 0 0 2.76-13v-.24l1.23.91z" fill="#27a2db"/><path d="m57.25 87.34s-2.48-1.17-4-7l.67-1.16-1.19-.83.52-3.35 1.23-.91s0 .1 0 .29a32.4 32.4 0 0 0 2.77 12.96z" fill="#27a2db"/><path d="m63.17 64.53a19 19 0 0 1 -2.53 0c-.95-.53-2.38-1.53-2.64-2.53a3.55 3.55 0 0 0 .76 2.16c-3.83-.88-4.89-3.11-4.89-3.11l2.95-2.19h2.6l2.74 2.19z" fill="#3a556a"/></svg>