<svg id="Layer_1" height="512" viewBox="0 0 150 150" width="512" xmlns="http://www.w3.org/2000/svg" data-name="Layer 1"><circle cx="75" cy="75" fill="#d5d6db" r="64"/><path d="m93 54.34a2.17 2.17 0 0 1 -2.54.68 3.45 3.45 0 0 1 -1.86-2 8.72 8.72 0 0 1 -.45-2.79 38.29 38.29 0 0 1 .23-6 1.3 1.3 0 0 0 -1.9-1.31l-3.69 2a11.21 11.21 0 0 0 -6.09 3.91 7.82 7.82 0 0 0 -.8 1.3 7.82 7.82 0 0 0 -.8-1.3 11.2 11.2 0 0 0 -6.1-3.93l-3.75-2a1.26 1.26 0 0 0 -1.84 1.28 38 38 0 0 1 .24 6 8.73 8.73 0 0 1 -.5 2.82 3.45 3.45 0 0 1 -1.86 2 2.17 2.17 0 0 1 -2.54-.68 5.67 5.67 0 0 0 1.39 5.13 12.08 12.08 0 0 0 4.61 3 8.36 8.36 0 0 0 4.25.85 8.42 8.42 0 0 0 4.79-3.06 14.39 14.39 0 0 0 2-2.77 14.77 14.77 0 0 0 2 2.77 8.46 8.46 0 0 0 4.79 3.06 8.41 8.41 0 0 0 4.3-.83 12 12 0 0 0 4.6-3 5.62 5.62 0 0 0 1.52-5.13z" fill="#2f4859"/><path d="m75.85 30a12.74 12.74 0 1 0 12.74 12.74 12.74 12.74 0 0 0 -12.74-12.74z" fill="#2f4859"/><path d="m81.79 60.06v-5.36l-5.93-2.06v-.01.01l-.01-.01v.01l-5.92 2.06v5.36l-2.75 1.39v5.88h17.74v-5.68z" fill="#f7be56"/><ellipse cx="75.86" cy="46.18" fill="#fcd462" rx="9.63" ry="12.77"/><path d="m68.74 35.62s3.35 7 17.15 6.32l-1.89-6.32-5-4h-4.8z" fill="#2f4859"/><path d="m93 105.3s8.95 1.39 10.35 6.67-.5 8.56-4.58 8-3.88-5.58-8.26-6.37 2.49-8.3 2.49-8.3z" fill="#2f4859"/><path d="m57 104.85s-9 1.39-10.35 6.67.5 8.55 4.58 8 3.88-5.58 8.26-6.37-2.49-8.3-2.49-8.3z" fill="#2a4351"/><path d="m100 84.83-2.32-13.25a6.71 6.71 0 0 0 -3.68-5.34l-12.21-6.72s0 .19 0 .54c-1.75 5.11-9.54 5.65-11.86 0 0-.35 0-.54 0-.54l-12.25 6.72a6.69 6.69 0 0 0 -3.68 5.34l-2.1 13.25a4.11 4.11 0 0 0 1.56 4.66l1.77 1.23.07 4.51h6.47l.33.23.16-.23 27.39.08.12.15.22-.15h6.63v-4.58l1.79-1.24a4.1 4.1 0 0 0 1.59-4.66z" fill="#fe7058"/><path d="m57.3 115.77-2.57-11.13 38.72-13.64a7.86 7.86 0 0 1 10.11 5.7 7.87 7.87 0 0 1 -5.89 9.44z" fill="#2f4859"/><path d="m92.81 116.15 2.57-11.15-37.09-14a7.86 7.86 0 0 0 -10.11 5.7 7.86 7.86 0 0 0 5.89 9.44z" fill="#3a556a"/><path d="m91.9 78.76h-31.9a1.83 1.83 0 0 0 -1.81 2.06l2.07 15.59a1.83 1.83 0 0 0 1.84 1.59h27.73a1.82 1.82 0 0 0 1.81-1.59l2.07-15.59a1.82 1.82 0 0 0 -1.81-2.06z" fill="#ebf0f3"/></svg>