<svg id="Layer_1" height="512" viewBox="0 0 150 150" width="512" xmlns="http://www.w3.org/2000/svg" data-name="Layer 1"><circle cx="75" cy="75" fill="#709584" r="64"/><g fill="#2f4859"><path d="m76.51 90.35-26.71-47.38 1.74-.98 24.93 44.23 23.27-43.07 1.76.95z"/><path d="m80 66.22s10.66 3.78 9.38 19.54v21.51h-14.91v-17.8z"/><path d="m70.32 66.22s-10.64 3.78-9.32 19.54v21.51h14.87v-17.8z"/><path d="m75 64.6c-7.2 0-13 7-13 15.69s5.79 15.71 13 15.71 13-7 13-15.69-5.81-15.71-13-15.71z"/></g><path d="m81.07 95.37v-5.49l-6.06-2.11v-.01l-.01.01-.01-.01v.01l-6.06 2.11v5.49l-2.82 1.42v6.01h18.17v-5.82z" fill="#f7be56"/><path d="m81.07 95.37c-1.79 5.22-9.77 5.77-12.14 0l-1.67.84v23.51h15.74v-23.4z" fill="#ebf0f3"/><path d="m68.92 95.37c0 2.66.33 14.3 5.21 24.35h-22.66l1.2-12.57a6.82 6.82 0 0 1 3.72-5.46l10.21-5.14z" fill="#fe7058"/><path d="m98.53 119.72h-22.66c4.88-10 5.2-21.69 5.21-24.35l2.3 1.16 10.21 5.14a6.85 6.85 0 0 1 3.72 5.46z" fill="#fe7058"/><path d="m75 68.09c-5.44 0-9.86 5.85-9.86 13.07s4.42 13.07 9.86 13.07 9.86-5.85 9.86-13.07-4.42-13.07-9.86-13.07z" fill="#fcd462"/><path d="m84.63 102.31-2.41 2.06 1.07 2c-2.94 11-7.42 13.31-7.42 13.31 4.88-10 5.2-21.69 5.21-24.35 0-.36 0-.56 0-.56l2.31 1.72z" fill="#ea6453"/><path d="m74.13 119.72s-4.67-2.21-7.62-13.17l1.27-2.18-2.25-1.57 1.07-6.25 2.31-1.72s0 .2 0 .56c.02 2.61.34 14.28 5.22 24.33z" fill="#ea6453"/><path d="m85.27 76.82a33.58 33.58 0 0 1 -4.76-.07c-1.8-1-4.47-2.79-5-4.62 0 0-1.19 3 .39 5.32-7.2-1.66-8.16-7.1-8.16-7.1l5.55-4.13h4.9l5.15 4.13z" fill="#2f4859"/><circle cx="99.33" cy="43.63" fill="#fcd462" r="13.35"/><circle cx="50.67" cy="43.63" fill="#fcd462" r="13.35"/><path d="m105.52 46a3.21 3.21 0 0 0 -.59-1.27 3.49 3.49 0 0 0 -.41-.44 3.33 3.33 0 0 0 -1.19-.72l-.41-.13-.82-.27-.75-.62-.3-.41v-.6a1.43 1.43 0 0 0 .32-.67 6.34 6.34 0 0 0 0-.67 1.53 1.53 0 0 0 .69-1.45.66.66 0 0 0 -.1-.47s.71-2.34-.7-2.44c0 0-.06-1-1.36-1s-2.72.21-3.09 1.63a2.5 2.5 0 0 0 .07 1.83c-.17-.08-.44-.12-.42.5a1.49 1.49 0 0 0 .69 1.45 4.47 4.47 0 0 0 0 .67 1.43 1.43 0 0 0 .38.74v.53l-.28.39-.83.66-1.17.38a3.67 3.67 0 0 0 -.38.16l-.21.11-.19.12-.1.08a2.5 2.5 0 0 0 -.34.27l-.25.26a3.29 3.29 0 0 0 -.62 1.07 3.74 3.74 0 0 0 -.2 1.21v3h5.58.68.76 5.56v-3.02a3.94 3.94 0 0 0 -.02-.88z" fill="#fff"/><path d="m56 46a3.21 3.21 0 0 0 -.59-1.27 4.38 4.38 0 0 0 -.4-.44 3.32 3.32 0 0 0 -1.2-.72l-.4-.13-.83-.27-.75-.62-.29-.41v-.6a1.52 1.52 0 0 0 .31-.67 4.47 4.47 0 0 0 .05-.67 1.53 1.53 0 0 0 .69-1.45.73.73 0 0 0 -.09-.47s.7-2.34-.7-2.44a1.22 1.22 0 0 0 -1.36-1c-1.3 0-2.73.21-3.1 1.63a2.56 2.56 0 0 0 .07 1.83c-.17-.08-.44-.12-.42.5a1.53 1.53 0 0 0 .69 1.45 4.47 4.47 0 0 0 .05.67 1.51 1.51 0 0 0 .38.74v.53l-.28.39-.83.66-1.17.38a3.67 3.67 0 0 0 -.38.16l-.21.11-.24.11-.1.08a2 2 0 0 0 -.33.27 3.19 3.19 0 0 0 -.26.26 3.26 3.26 0 0 0 -.61 1.07 3.5 3.5 0 0 0 -.21 1.21v3h5.58.68.76 5.56v-3.01a3.39 3.39 0 0 0 -.07-.88z" fill="#fff"/></svg>