<svg id="Layer_1" height="512" viewBox="0 0 150 150" width="512" xmlns="http://www.w3.org/2000/svg" data-name="Layer 1"><circle cx="75" cy="75" fill="#fe7058" r="64"/><path d="m75 29.64c-5 0-9.1 4.91-9.1 11s4.1 10.91 9.1 10.91 9.11-4.9 9.11-10.95-4.11-10.96-9.11-10.96z" fill="#3a556a"/><path d="m79.23 51.13v-3.84l-4.23-1.47h-.01l-4.23 1.47v3.84l-1.96.99v4.2h12.68v-4.06z" fill="#f7be56"/><path d="m79.24 51.13a4.56 4.56 0 0 1 -8.48 0l-1.17.59v16.42h11v-16.35z" fill="#ebf0f3"/><path d="m70.76 51.13c0 1.86.22 10 3.63 17h-15.82l.83-8.78a4.79 4.79 0 0 1 2.6-3.81l7.14-3.54z" fill="#2f4859"/><path d="m91.43 68.14h-15.82c3.41-7 3.63-15.15 3.63-17l1.61.81 7.15 3.59a4.81 4.81 0 0 1 2.61 3.82z" fill="#2f4859"/><path d="m75 32.08c-3.8 0-6.88 4.09-6.88 9.13s3.08 9.12 6.88 9.12 6.88-4.08 6.88-9.12-3.08-9.13-6.88-9.13z" fill="#fcd462"/><g fill="#3a556a"><path d="m81.73 56-1.73 1.41.75 1.43c-2.06 7.65-5.18 9.3-5.18 9.3 3.41-7 3.63-15.15 3.63-17v-.39l1.61 1.2z"/><path d="m74.39 68.14s-3.26-1.55-5.32-9.21l.93-1.52-1.57-1.09.71-4.32 1.61-1.2v.39c.01 1.81.25 9.93 3.64 16.95z"/><path d="m82.17 38.18a23.92 23.92 0 0 1 -3.32 0c-1.26-.71-3.13-2-3.51-3.23a4.75 4.75 0 0 0 1 2.84c-5-1.16-6.42-4.08-6.42-4.08l3.87-2.88h3.43l3.59 2.88z"/><path d="m56.33 66.42-1-.1.57-5.88a8.8 8.8 0 0 1 3.54-6.23l1.94-1.43.63.85-2.01 1.42a7.76 7.76 0 0 0 -3.12 5.5z"/></g><path d="m93.81 120.36h-37.62l-3.72-52.22h45.06z" fill="#f7be56"/><path d="m57.28 76.63 2.82 39.53h29.8l2.82-39.53z" fill="#fcd462"/><rect fill="#fcd462" height="6.48" rx="1.38" width="52.85" x="48.58" y="64.89"/><circle cx="61.96" cy="52.96" fill="#64798a" r="1.81"/></svg>