<svg id="Layer_1" height="512" viewBox="0 0 150 150" width="512" xmlns="http://www.w3.org/2000/svg" data-name="Layer 1"><circle cx="75" cy="75" fill="#77b3d5" r="64"/><path d="m93.64 60.05a2.39 2.39 0 0 1 -2.77.74 3.76 3.76 0 0 1 -2-2.21 9.44 9.44 0 0 1 -.49-3 41.36 41.36 0 0 1 .25-6.49 1.42 1.42 0 0 0 -2.08-1.43l-4 2.14a12.28 12.28 0 0 0 -6.68 4.2 9.82 9.82 0 0 0 -.87 1.44 9.82 9.82 0 0 0 -.87-1.44 12.28 12.28 0 0 0 -6.64-4.26l-4.09-2.16a1.37 1.37 0 0 0 -2 1.39 41.23 41.23 0 0 1 .26 6.57 9.44 9.44 0 0 1 -.49 3 3.76 3.76 0 0 1 -2 2.21 2.39 2.39 0 0 1 -2.77-.74 6.14 6.14 0 0 0 1.52 5.59 13.1 13.1 0 0 0 5 3.27 9.25 9.25 0 0 0 4.69.9c2.08-.29 3.8-1.77 5.21-3.34a15.44 15.44 0 0 0 2.21-3 15.44 15.44 0 0 0 2.21 3c1.41 1.57 3.12 3 5.21 3.34a9.25 9.25 0 0 0 4.69-.9 13.1 13.1 0 0 0 5-3.27 6.17 6.17 0 0 0 1.5-5.55z" fill="#3a556a"/><circle cx="74.99" cy="47.42" fill="#3a556a" r="13.88"/><path d="m81.46 66.28v-5.84l-6.45-2.24v-.01l-.01.01-.01-.01v.01l-6.45 2.24v5.84l-3 1.52v6.4h19.34v-6.19z" fill="#f7be56"/><path d="m81.46 66.29c-1.9 5.56-10.39 6.14-12.92 0l-1.78.89v25h16.71v-24.88z" fill="#ebf0f3"/><path d="m68.53 66.29c0 2.83.35 15.22 5.54 25.93h-24.07l1.27-13.39a7.3 7.3 0 0 1 4-5.81l10.87-5.48z" fill="#d15241"/><path d="m100.05 92.22h-24.12c5.19-10.71 5.53-23.1 5.54-25.93l2.45 1.24 10.89 5.47a7.3 7.3 0 0 1 4 5.81z" fill="#d15241"/><path d="m75 37.25c-5.8 0-10.49 6.23-10.49 13.91s4.69 13.92 10.49 13.92 10.49-6.23 10.49-13.92-4.7-13.91-10.49-13.91z" fill="#fcd462"/><path d="m81.12 59.26h-5.19v-.78h5.19a2.3 2.3 0 0 0 2-1.26l2.59-5 .69.36-2.58 5a3.1 3.1 0 0 1 -2.7 1.68z" fill="#3a556a"/><rect fill="#3a556a" height="2.56" rx=".89" width="3.64" x="73.93" y="57.63"/><path d="m85.25 73.68-2.57 2.19 1.15 2.18c-3.14 11.66-7.9 14.17-7.9 14.17 5.19-10.71 5.53-23.1 5.54-25.93 0-.39 0-.6 0-.6l2.46 1.84z" fill="#e56353"/><path d="m74.07 92.22s-5-2.36-8.1-14l1.35-2.32-2.4-1.67 1.14-6.66 2.46-1.84s0 .21 0 .6c.02 2.79.36 15.18 5.55 25.89z" fill="#e56353"/><path d="m67.25 39.65s3.65 7.67 18.68 6.89l-2.09-6.89-5.48-4.38h-5.22z" fill="#3a556a"/><path d="m100.85 80.42h-51.7a3.26 3.26 0 0 0 -3.25 3.58l2.82 27.37a3.26 3.26 0 0 0 3.28 2.95h46a3.26 3.26 0 0 0 3.25-2.93l2.85-27.39a3.26 3.26 0 0 0 -3.25-3.58z" fill="#2f4859"/><path d="m100.85 81.77h-51.7a3.19 3.19 0 0 0 -3.25 3.46l2.82 26.28a3.21 3.21 0 0 0 3.28 2.81h46a3.21 3.21 0 0 0 3.25-2.81l2.82-26.28a3.19 3.19 0 0 0 -3.22-3.46z" fill="#3a556a"/><path d="m101.61 114.32h-53.22a1.08 1.08 0 0 0 0 2.15h53.22a1.08 1.08 0 0 0 0-2.15z" fill="#2f4859"/></svg>