<svg id="Layer_1" height="512" viewBox="0 0 150 150" width="512" xmlns="http://www.w3.org/2000/svg" data-name="Layer 1"><circle cx="75" cy="75" fill="#21b3a9" r="64"/><path d="m93.9 105.18s9.39 1.46 10.86 7-.53 9-4.81 8.36-4.07-5.85-8.67-6.69 2.62-8.67 2.62-8.67z" fill="#2f4859"/><path d="m56.1 104.7s-9.39 1.47-10.86 7 .53 9 4.81 8.35 4.07-5.84 8.67-6.68-2.62-8.67-2.62-8.67z" fill="#2a4351"/><g fill="#fe7058"><path d="m101.19 83.7-5.91-17.85-10.28 21.53 5.47 7.49 9.06-6.28a4.3 4.3 0 0 0 1.66-4.89z"/><path d="m50.77 83.7 5.91-17.85 10.25 21.53-5.47 7.49-9.06-6.28a4.3 4.3 0 0 1 -1.63-4.89z"/><path d="m92.54 74.49 5.14 6.66v13.58l-43.35-.12-.21-13.46 6.96-10.51z"/><path d="m97.68 81.15c-.3-5.74-1-12.58-2.4-15.3-2-3.72-8.16-5.37-11.31-6-.46-.09-.85-.16-1.15-.2h-.14-.11-.09l-.4-.05h-.76-.37l-2.13-.15-2.92 1.3-2.9-1.43-2.13.15h-.39-.74l-.42.06h-.11-.12-.1l-.71.12h-.23c-3.09.58-9.51 2.22-11.51 6-1.44 2.72-2.09 9.56-2.4 15.3z"/></g><path d="m71.73 53.6h8.35v7.02h-8.35z" fill="#f7be56"/><path d="m73.8 81.15h4.2l-1.11-15.36 2.34-3.27-3.33-1.9-3.33 1.9 2.34 3.27z" fill="#e1e6e9"/><path d="m80.08 57.27-4.18 3.35 3.53 3.9 2.65-4.97z" fill="#ea6453"/><path d="m71.73 57.27 4.17 3.35-3.92 3.81-2.26-4.88z" fill="#ea6453"/><path d="m83.54 45.59s.6-1.26 1.29-1.14.91.08.67 1.54-.16 1-.35 2.24-.53 3.51-2.13 2.19.52-4.83.52-4.83z" fill="#fcd462"/><path d="m83.29 37.18c-1.15-2.16-7.13-2-7.13-2s-6-.18-7.13 2-.48 7.7-.48 7.7a18.86 18.86 0 0 0 .45 5.64 7.62 7.62 0 0 0 3.72 5.48 6.51 6.51 0 0 0 6.88 0 7.56 7.56 0 0 0 3.69-5.46 18.86 18.86 0 0 0 .48-5.64s.68-5.56-.48-7.72z" fill="#fcd462"/><path d="m68.78 45.59s-.6-1.26-1.29-1.14-.9.08-.66 1.54.15 1 .34 2.24.53 3.51 2.13 2.19-.52-4.83-.52-4.83z" fill="#fcd462"/><path d="m83.53 46.54h.54s2.3-8 2.34-9.45a1.56 1.56 0 0 0 -1.41-1.62s1.76-5.28-5.18-5.95-10.52 1.58-12.18 4.19-.59 8.56-.27 9.77.9 3.06.9 3.06h.63s-.68-5.49.54-7.7 2-2.94 4.46-2.16c5.62 1.8 9.18.41 9.18.41s.16 4.1.5 6a9 9 0 0 1 -.05 3.45z" fill="#2f4859"/><path d="m56.43 116.16-2.7-11.67 40.63-14.35a8.25 8.25 0 1 1 4.43 15.86z" fill="#2f4859"/><path d="m93.68 116.57 2.71-11.68-38.93-14.75a8.25 8.25 0 1 0 -4.46 15.86z" fill="#3a556a"/><path d="m92.73 77.32h-33.44a1.92 1.92 0 0 0 -1.9 2.17l2.18 16.36a1.9 1.9 0 0 0 1.89 1.66h29.1a1.92 1.92 0 0 0 1.9-1.66l2.17-16.36a1.91 1.91 0 0 0 -1.9-2.17z" fill="#ebf0f3"/></svg>