<svg id="Layer_1" height="512" viewBox="0 0 150 150" width="512" xmlns="http://www.w3.org/2000/svg" data-name="Layer 1"><circle cx="75" cy="75" fill="#d5d6db" r="64"/><rect fill="#2f4859" height="7.88" rx=".87" width="3.92" x="98.8" y="71.06"/><path d="m59 31.14h28.7v34.39h-28.7z" fill="#2f4859"/><path d="m59 84.47h28.7v34.39h-28.7z" fill="#2f4859"/><path d="m100 75a26.25 26.25 0 0 0 -6.92-17.8l-2.08-11.43-3.26-1.57v8.53a26.36 26.36 0 0 0 -28.74.34v-8.87l-3.22 1.57-2.25 12.23a26.33 26.33 0 0 0 -.07 34l2.33 12.6 3.21 1.51v-9.18a26.36 26.36 0 0 0 28.73.34v8.84l3.27-1.56 2.19-11.82a26.26 26.26 0 0 0 6.81-17.73z" fill="#3a556a"/><circle cx="73.64" cy="75" fill="#ebf0f3" r="22.3"/><g fill="#3a556a"><path d="m73.35 54.71h.59v2.76h-.59z"/><path d="m70.39 54.94h.59v2.76h-.59z" transform="matrix(.988 -.156 .156 .988 -7.93 11.74)"/><path d="m67.51 55.63h.59v2.76h-.59z" transform="matrix(.951 -.308 .308 .951 -14.26 23.63)"/><path d="m64.76 56.77h.59v2.76h-.59z" transform="matrix(.891 -.454 .454 .891 -19.31 35.86)"/><path d="m62.23 58.32h.59v2.76h-.59z" transform="matrix(.809 -.588 .588 .809 -23.16 48.22)"/><path d="m59.98 60.25h.59v2.76h-.59z" transform="matrix(.706 -.708 .708 .706 -25.93 60.77)"/><path d="m58.05 62.5h.59v2.76h-.59z" transform="matrix(.59 -.81 .81 .59 -27.63 73.57)"/><path d="m56.5 65.03h.59v2.76h-.59z" transform="matrix(.454 -.891 .891 .454 -28.16 86.88)"/><path d="m55.37 67.77h.59v2.76h-.59z" transform="matrix(.309 -.951 .951 .309 -27.32 100.7)"/><path d="m54.67 70.66h.59v2.76h-.59z" transform="matrix(.16 -.99 .99 .16 -24.78 115.07)"/><path d="m53.35 74.71h2.76v.59h-2.76z"/><path d="m53.58 77.66h2.76v.59h-2.76z" transform="matrix(.988 -.156 .156 .988 -11.51 9.55)"/><path d="m54.28 80.55h2.76v.59h-2.76z" transform="matrix(.951 -.309 .309 .951 -22.27 21.17)"/><path d="m55.41 83.29h2.76v.59h-2.76z" transform="matrix(.891 -.454 .454 .891 -31.75 34.88)"/><path d="m56.96 85.82h2.76v.59h-2.76z" transform="matrix(.809 -.587 .587 .809 -39.46 50.7)"/><path d="m58.89 88.08h2.76v.59h-2.76z" transform="matrix(.708 -.706 .706 .708 -44.81 68.38)"/><path d="m61.15 90h2.76v.59h-2.76z" transform="matrix(.588 -.809 .809 .588 -47.28 87.73)"/><path d="m63.68 91.55h2.76v.59h-2.76z" transform="matrix(.454 -.891 .891 .454 -46.31 108.13)"/><path d="m66.42 92.69h2.76v.59h-2.76z" transform="matrix(.308 -.951 .951 .308 -41.54 128.88)"/><path d="m69.3 93.38h2.76v.59h-2.76z" transform="matrix(.16 -.99 .99 .16 -32.89 148.85)"/><path d="m73.35 92.53h.59v2.76h-.59z"/><path d="m76.31 92.29h.59v2.76h-.59z" transform="matrix(.988 -.156 .156 .988 -13.71 13.14)"/><path d="m79.19 91.6h.59v2.76h-.59z" transform="matrix(.951 -.308 .308 .951 -24.77 29)"/><path d="m81.93 90.47h.59v2.76h-.59z" transform="matrix(.891 -.454 .454 .891 -32.75 47.37)"/><path d="m84.46 88.92h.59v2.76h-.59z" transform="matrix(.809 -.588 .588 .809 -36.91 67.15)"/><path d="m86.72 86.99h.59v2.76h-.59z" transform="matrix(.707 -.707 .707 .707 -37 87.48)"/><path d="m88.65 84.73h.59v2.76h-.59z" transform="matrix(.59 -.81 .81 .59 -33 107.51)"/><path d="m90.2 82.2h.59v2.76h-.59z" transform="matrix(.454 -.891 .891 .454 -25.06 126.28)"/><path d="m91.33 79.46h.59v2.76h-.59z" transform="matrix(.309 -.951 .951 .309 -13.59 142.98)"/><path d="m92.03 76.58h.59v2.76h-.59z" transform="matrix(.16 -.99 .99 .16 .89 156.96)"/><path d="m91.17 74.71h2.76v.59h-2.76z"/><path d="m90.94 71.75h2.76v.59h-2.76z" transform="matrix(.988 -.156 .156 .988 -10.13 15.32)"/><path d="m90.24 68.86h2.76v.59h-2.76z" transform="matrix(.951 -.309 .309 .951 -16.89 31.72)"/><path d="m89.11 66.12h2.76v.59h-2.76z" transform="matrix(.891 -.454 .454 .891 -20.29 48.3)"/><path d="m87.56 63.59h2.76v.59h-2.76z" transform="matrix(.809 -.587 .587 .809 -20.57 64.43)"/><path d="m85.63 61.34h2.76v.59h-2.76z" transform="matrix(.707 -.707 .707 .707 -18.1 79.52)"/><path d="m83.38 59.41h2.76v.59h-2.76z" transform="matrix(.588 -.809 .809 .588 -13.39 93.11)"/><path d="m80.85 57.86h2.76v.59h-2.76z" transform="matrix(.454 -.891 .891 .454 -6.93 105)"/><path d="m78.1 56.72h2.76v.59h-2.76z" transform="matrix(.308 -.951 .951 .308 .76 115.08)"/><path d="m75.22 56.03h2.76v.59h-2.76z" transform="matrix(.156 -.988 .988 .156 8.99 123.17)"/><path d="m74.25 75.29h-1.21l.27-15.14h.66z"/><path d="m71.91 74.31v-1.21l11.04.28v.66z"/></g><path d="m58.69 79.63h17.72v.31h-17.72z" fill="#e56353" transform="matrix(.707 -.707 .707 .707 -36.63 71.14)"/><path d="m73.65 72.36a1.24 1.24 0 1 0 1.24 1.24 1.23 1.23 0 0 0 -1.24-1.24z" fill="#2f4859"/><path d="m73.65 72.77a.83.83 0 1 0 .83.83.83.83 0 0 0 -.83-.83z" fill="#e1e6e9"/></svg>